# Made in Blockbench 5.2.1
mtllib trophy_javascript.mtl

o mesh
v 0.25 0.3125 -0.3125
v 0.25 0.3125 -0.375
v 0.25 0.125 -0.3125
v 0.25 0.125 -0.375
v -0.25 0.3125 -0.3125
v -0.25 0.3125 -0.375
v -0.25 0.125 -0.3125
v -0.25 0.125 -0.375
vt 0.71875 0.21875
vt 0.703125 0.21875
vt 0.703125 0.171875
vt 0.71875 0.171875
vt 0.8125 0.234375
vt 0.8125 0.28125
vt 0.796875 0.28125
vt 0.796875 0.234375
vt 0.71875 0.59375
vt 0.84375 0.59375
vt 0.84375 0.609375
vt 0.71875 0.609375
vt 0.84375 0.5625
vt 0.84375 0.578125
vt 0.71875 0.578125
vt 0.71875 0.5625
vt 0.515625 0.375
vt 0.515625 0.421875
vt 0.390625 0.421875
vt 0.390625 0.375
vt 0.71875 0.453125
vt 0.59375 0.453125
vt 0.59375 0.40625
vt 0.71875 0.40625
vn 1 0 0
vn -1 0 0
vn 0 1 0
vn 0 -1 0
vn 0 0 1
vn 0 0 -1
usemtl m_be7c0634-48b8-3f44-45ad-afa8481bbba2
f 2/1/1 1/2/1 3/3/1 4/4/1
f 7/5/2 5/6/2 6/7/2 8/8/2
f 5/9/3 1/10/3 2/11/3 6/12/3
f 4/13/4 3/14/4 7/15/4 8/16/4
f 3/17/5 1/18/5 5/19/5 7/20/5
f 6/21/6 2/22/6 4/23/6 8/24/6
o mesh
v 0.0625 0.625 0.0625
v 0.0625 0.625 -0.0625
v 0.0625 0.4375 0.0625
v 0.0625 0.4375 -0.0625
v -0.0625 0.625 0.0625
v -0.0625 0.625 -0.0625
v -0.0625 0.4375 0.0625
v -0.0625 0.4375 -0.0625
vt 0.75 0.515625
vt 0.71875 0.515625
vt 0.71875 0.46875
vt 0.75 0.46875
vt 0.625 0.234375
vt 0.625 0.28125
vt 0.59375 0.28125
vt 0.59375 0.234375
vt 0.765625 0.484375
vt 0.796875 0.484375
vt 0.796875 0.515625
vt 0.765625 0.515625
vt 0.8125 0.90625
vt 0.8125 0.9375
vt 0.78125 0.9375
vt 0.78125 0.90625
vt 0.671875 0.234375
vt 0.671875 0.28125
vt 0.640625 0.28125
vt 0.640625 0.234375
vt 0.71875 0.28125
vt 0.6875 0.28125
vt 0.6875 0.234375
vt 0.71875 0.234375
vn 1 0 0
vn -1 0 0
vn 0 1 0
vn 0 -1 0
vn 0 0 1
vn 0 0 -1
usemtl m_be7c0634-48b8-3f44-45ad-afa8481bbba2
f 10/25/7 9/26/7 11/27/7 12/28/7
f 15/29/8 13/30/8 14/31/8 16/32/8
f 13/33/9 9/34/9 10/35/9 14/36/9
f 12/37/10 11/38/10 15/39/10 16/40/10
f 11/41/11 9/42/11 13/43/11 15/44/11
f 14/45/12 10/46/12 12/47/12 16/48/12
o mesh
v 0.375 0.375 0.3125
v 0.375 0.375 -0.3125
v 0.375 0.0625 0.3125
v 0.375 0.0625 -0.3125
v -0.375 0.375 0.3125
v -0.375 0.375 -0.3125
v -0.375 0.0625 0.3125
v -0.375 0.0625 -0.3125
vt 0.703125 0.640625
vt 0.546875 0.640625
vt 0.546875 0.5625
vt 0.703125 0.5625
vt 0.703125 0.46875
vt 0.703125 0.546875
vt 0.546875 0.546875
vt 0.546875 0.46875
vt 0.34375 0.4375
vt 0.53125 0.4375
vt 0.53125 0.59375
vt 0.34375 0.59375
vt 0.65625 0.84375
vt 0.65625 1
vt 0.46875 1
vt 0.46875 0.84375
vt 0.65625 0.75
vt 0.65625 0.828125
vt 0.46875 0.828125
vt 0.46875 0.75
vt 0.65625 0.734375
vt 0.46875 0.734375
vt 0.46875 0.65625
vt 0.65625 0.65625
vn 1 0 0
vn -1 0 0
vn 0 1 0
vn 0 -1 0
vn 0 0 1
vn 0 0 -1
usemtl m_be7c0634-48b8-3f44-45ad-afa8481bbba2
f 18/49/13 17/50/13 19/51/13 20/52/13
f 23/53/14 21/54/14 22/55/14 24/56/14
f 21/57/15 17/58/15 18/59/15 22/60/15
f 20/61/16 19/62/16 23/63/16 24/64/16
f 19/65/17 17/66/17 21/67/17 23/68/17
f 22/69/18 18/70/18 20/71/18 24/72/18
o mesh
v 0.4375 0.4375 0.375
v 0.4375 0.4375 -0.375
v 0.4375 0.375 0.375
v 0.4375 0.375 -0.375
v -0.4375 0.4375 0.375
v -0.4375 0.4375 -0.375
v -0.4375 0.375 0.375
v -0.4375 0.375 -0.375
vt 0.859375 0.890625
vt 0.671875 0.890625
vt 0.671875 0.875
vt 0.859375 0.875
vt 0.859375 0.84375
vt 0.859375 0.859375
vt 0.671875 0.859375
vt 0.671875 0.84375
vt 0 0.8125
vt 0.21875 0.8125
vt 0.21875 1
vt 0 1
vt 0.21875 0.609375
vt 0.21875 0.796875
vt 0 0.796875
vt 0 0.609375
vt 0.21875 0.328125
vt 0.21875 0.34375
vt 0 0.34375
vt 0 0.328125
vt 0.8125 0.34375
vt 0.59375 0.34375
vt 0.59375 0.328125
vt 0.8125 0.328125
vn 1 0 0
vn -1 0 0
vn 0 1 0
vn 0 -1 0
vn 0 0 1
vn 0 0 -1
usemtl m_be7c0634-48b8-3f44-45ad-afa8481bbba2
f 26/73/19 25/74/19 27/75/19 28/76/19
f 31/77/20 29/78/20 30/79/20 32/80/20
f 29/81/21 25/82/21 26/83/21 30/84/21
f 28/85/22 27/86/22 31/87/22 32/88/22
f 27/89/23 25/90/23 29/91/23 31/92/23
f 30/93/24 26/94/24 28/95/24 32/96/24
o mesh
v 0.4375 0.0625 0.375
v 0.4375 0.0625 -0.375
v 0.4375 0 0.375
v 0.4375 0 -0.375
v -0.4375 0.0625 0.375
v -0.4375 0.0625 -0.375
v -0.4375 0 0.375
v -0.4375 0 -0.375
vt 0.859375 0.828125
vt 0.671875 0.828125
vt 0.671875 0.8125
vt 0.859375 0.8125
vt 0.859375 0.78125
vt 0.859375 0.796875
vt 0.671875 0.796875
vt 0.671875 0.78125
vt 0.234375 0.8125
vt 0.453125 0.8125
vt 0.453125 1
vt 0.234375 1
vt 0.453125 0.609375
vt 0.453125 0.796875
vt 0.234375 0.796875
vt 0.234375 0.609375
vt 0.890625 0.984375
vt 0.890625 1
vt 0.671875 1
vt 0.671875 0.984375
vt 0.890625 0.96875
vt 0.671875 0.96875
vt 0.671875 0.953125
vt 0.890625 0.953125
vn 1 0 0
vn -1 0 0
vn 0 1 0
vn 0 -1 0
vn 0 0 1
vn 0 0 -1
usemtl m_be7c0634-48b8-3f44-45ad-afa8481bbba2
f 34/97/25 33/98/25 35/99/25 36/100/25
f 39/101/26 37/102/26 38/103/26 40/104/26
f 37/105/27 33/106/27 34/107/27 38/108/27
f 36/109/28 35/110/28 39/111/28 40/112/28
f 35/113/29 33/114/29 37/115/29 39/116/29
f 38/117/30 34/118/30 36/119/30 40/120/30
o mesh
v 0.3125 1.349904257344762 0.09934565112601018
v 0.3125 1.3716102795531282 -0.023755318000515814
v 0.3125 0.6112984425856058 -0.03089048212418756
v 0.3125 0.6330044647939721 -0.15399145125071356
v -0.3125 1.349904257344762 0.09934565112601018
v -0.3125 1.3716102795531282 -0.023755318000515814
v -0.3125 0.6112984425856058 -0.03089048212418756
v -0.3125 0.6330044647939721 -0.15399145125071356
vt 0.578125 0.453125
vt 0.546875 0.453125
vt 0.546875 0.265625
vt 0.578125 0.265625
vt 0.375 0.234375
vt 0.375 0.421875
vt 0.34375 0.421875
vt 0.34375 0.234375
vt 0 0.359375
vt 0.15625 0.359375
vt 0.15625 0.390625
vt 0 0.390625
vt 0.328125 0.359375
vt 0.328125 0.390625
vt 0.171875 0.390625
vt 0.171875 0.359375
vt 0.15625 0.40625
vt 0.15625 0.59375
vt 0 0.59375
vt 0 0.40625
vt 0.328125 0.59375
vt 0.171875 0.59375
vt 0.171875 0.40625
vt 0.328125 0.40625
vn 1 0 0
vn -1 0 0
vn 0 0.984807753012208 0.17364817766693033
vn 0 -0.984807753012208 -0.17364817766693033
vn 0 -0.17364817766693033 0.984807753012208
vn 0 0.17364817766693033 -0.984807753012208
usemtl m_be7c0634-48b8-3f44-45ad-afa8481bbba2
f 42/121/31 41/122/31 43/123/31 44/124/31
f 47/125/32 45/126/32 46/127/32 48/128/32
f 45/129/33 41/130/33 42/131/33 46/132/33
f 44/133/34 43/134/34 47/135/34 48/136/34
f 43/137/35 41/138/35 45/139/35 47/140/35
f 46/141/36 42/142/36 44/143/36 48/144/36
o mesh
v 0.28125 0.6112984425856058 -0.030890482124187574
v 0.28125 0.6330044647939721 -0.15399145125071356
v 0.28125 0.5497479580223429 -0.041743493228370704
v 0.28125 0.5714539802307091 -0.16484446235489672
v -0.28125 0.6112984425856058 -0.030890482124187574
v -0.28125 0.6330044647939721 -0.15399145125071356
v -0.28125 0.5497479580223429 -0.041743493228370704
v -0.28125 0.5714539802307091 -0.16484446235489672
vt 0.5 0.171875
vt 0.46875 0.171875
vt 0.46875 0.15625
vt 0.5 0.15625
vt 0.546875 0.15625
vt 0.546875 0.171875
vt 0.515625 0.171875
vt 0.515625 0.15625
vt 0.59375 0.359375
vt 0.734375 0.359375
vt 0.734375 0.390625
vt 0.59375 0.390625
vt 0.53125 0.328125
vt 0.53125 0.359375
vt 0.390625 0.359375
vt 0.390625 0.328125
vt 0.734375 0.296875
vt 0.734375 0.3125
vt 0.59375 0.3125
vt 0.59375 0.296875
vt 0.859375 0.640625
vt 0.71875 0.640625
vt 0.71875 0.625
vt 0.859375 0.625
vn 1 0 0
vn -1 0 0
vn 0 0.984807753012208 0.17364817766693033
vn 0 -0.984807753012208 -0.17364817766693033
vn 0 -0.17364817766693033 0.984807753012208
vn 0 0.17364817766693033 -0.984807753012208
usemtl m_be7c0634-48b8-3f44-45ad-afa8481bbba2
f 50/145/37 49/146/37 51/147/37 52/148/37
f 55/149/38 53/150/38 54/151/38 56/152/38
f 53/153/39 49/154/39 50/155/39 54/156/39
f 52/157/40 51/158/40 55/159/40 56/160/40
f 51/161/41 49/162/41 53/163/41 55/164/41
f 54/165/42 50/166/42 52/167/42 56/168/42
o mesh
v 0.1875 0.5497479580223429 -0.041743493228370704
v 0.1875 0.5714539802307091 -0.1648444623548967
v 0.1875 0.4881974734590798 -0.052596504332553834
v 0.1875 0.5099034956674462 -0.17569747345907985
v -0.1875 0.5497479580223429 -0.041743493228370704
v -0.1875 0.5714539802307091 -0.1648444623548967
v -0.1875 0.4881974734590798 -0.052596504332553834
v -0.1875 0.5099034956674462 -0.17569747345907985
vt 0.890625 0.703125
vt 0.859375 0.703125
vt 0.859375 0.6875
vt 0.890625 0.6875
vt 0.890625 0.65625
vt 0.890625 0.671875
vt 0.859375 0.671875
vt 0.859375 0.65625
vt 0.234375 0.3125
vt 0.328125 0.3125
vt 0.328125 0.34375
vt 0.234375 0.34375
vt 0.765625 0.90625
vt 0.765625 0.9375
vt 0.671875 0.9375
vt 0.671875 0.90625
vt 0.3125 0.28125
vt 0.3125 0.296875
vt 0.21875 0.296875
vt 0.21875 0.28125
vt 0.8125 0.546875
vt 0.71875 0.546875
vt 0.71875 0.53125
vt 0.8125 0.53125
vn 1 0 0
vn -1 0 0
vn 0 0.984807753012208 0.17364817766693033
vn 0 -0.984807753012208 -0.17364817766693033
vn 0 -0.17364817766693033 0.984807753012208
vn 0 0.17364817766693033 -0.984807753012208
usemtl m_be7c0634-48b8-3f44-45ad-afa8481bbba2
f 58/169/43 57/170/43 59/171/43 60/172/43
f 63/173/44 61/174/44 62/175/44 64/176/44
f 61/177/45 57/178/45 58/179/45 62/180/45
f 60/181/46 59/182/46 63/183/46 64/184/46
f 59/185/47 57/186/47 61/187/47 63/188/47
f 62/189/48 58/190/48 60/191/48 64/192/48
o mesh
v 0.0625 0.4881974734590799 -0.05259650433255386
v 0.0625 0.5099034956674462 -0.17569747345907985
v 0.0625 0.42664698889581687 -0.06344951543673699
v 0.0625 0.44835301110418313 -0.186550484563263
v -0.0625 0.4881974734590799 -0.05259650433255386
v -0.0625 0.5099034956674462 -0.17569747345907985
v -0.0625 0.42664698889581687 -0.06344951543673699
v -0.0625 0.44835301110418313 -0.186550484563263
vt 0.828125 0.21875
vt 0.796875 0.21875
vt 0.796875 0.203125
vt 0.828125 0.203125
vt 0.28125 0.171875
vt 0.28125 0.1875
vt 0.25 0.1875
vt 0.25 0.171875
vt 0.46875 0.609375
vt 0.5 0.609375
vt 0.5 0.640625
vt 0.46875 0.640625
vt 0.25 0.234375
vt 0.25 0.265625
vt 0.21875 0.265625
vt 0.21875 0.234375
vt 0.328125 0.171875
vt 0.328125 0.1875
vt 0.296875 0.1875
vt 0.296875 0.171875
vt 0.375 0.1875
vt 0.34375 0.1875
vt 0.34375 0.171875
vt 0.375 0.171875
vn 1 0 0
vn -1 0 0
vn 0 0.984807753012208 0.17364817766693033
vn 0 -0.984807753012208 -0.17364817766693033
vn 0 -0.17364817766693033 0.984807753012208
vn 0 0.17364817766693033 -0.984807753012208
usemtl m_be7c0634-48b8-3f44-45ad-afa8481bbba2
f 66/193/49 65/194/49 67/195/49 68/196/49
f 71/197/50 69/198/50 70/199/50 72/200/50
f 69/201/51 65/202/51 66/203/51 70/204/51
f 68/205/52 67/206/52 71/207/52 72/208/52
f 67/209/53 65/210/53 69/211/53 71/212/53
f 70/213/54 66/214/54 68/215/54 72/216/54
o mesh
v 0.3410954798829348 1.3081022823357689 -0.0349534914006944
v 0.3410954798829348 1.3189552934399518 -0.09650397596395739
v 0.3111071510692663 0.6316913587910443 -0.15422298726755995
v 0.3111071510692663 0.6425443698952275 -0.21577347183082296
v 0.2786549660340687 1.3107870767644578 -0.03448008970526073
v 0.2786549660340687 1.3216400878686412 -0.09603057426852372
v 0.2486666372204002 0.6343761532197334 -0.1537495855721263
v 0.2486666372204002 0.6452291643239165 -0.21530007013538932
vt 0.015625 0.3125
vt 0 0.3125
vt 0 0.140625
vt 0.015625 0.140625
vt 0.046875 0.140625
vt 0.046875 0.3125
vt 0.03125 0.3125
vt 0.03125 0.140625
vt 0.515625 0.625
vt 0.53125 0.625
vt 0.53125 0.640625
vt 0.515625 0.640625
vt 0.75 0.1875
vt 0.75 0.203125
vt 0.734375 0.203125
vt 0.734375 0.1875
vt 0.078125 0.140625
vt 0.078125 0.3125
vt 0.0625 0.3125
vt 0.0625 0.140625
vt 0.109375 0.3125
vt 0.09375 0.3125
vt 0.09375 0.140625
vt 0.109375 0.140625
vn 0.9990482215818579 -0.04295671085902565 -0.007574427126938524
vn -0.9990482215818579 0.04295671085902565 0.007574427126938524
vn 0.043619387365336 0.9838704342468719 0.1734829030790772
vn -0.043619387365336 -0.9838704342468719 -0.1734829030790772
vn 8.673617379884035e-19 -0.17364817766693033 0.9848077530122081
vn -8.673617379884035e-19 0.17364817766693033 -0.9848077530122081
usemtl m_be7c0634-48b8-3f44-45ad-afa8481bbba2
f 74/217/55 73/218/55 75/219/55 76/220/55
f 79/221/56 77/222/56 78/223/56 80/224/56
f 77/225/57 73/226/57 74/227/57 78/228/57
f 76/229/58 75/230/58 79/231/58 80/232/58
f 75/233/59 73/234/59 77/235/59 79/236/59
f 78/237/60 74/238/60 76/239/60 80/240/60
o mesh
v 0.34375 1.3716102795531282 -0.023755318000515807
v 0.34375 1.3824632906573113 -0.08530580256377882
v 0.34375 1.3100597949898651 -0.03460832910469895
v 0.34375 1.3209128060940483 -0.09615881366796196
v -0.34375 1.3716102795531282 -0.023755318000515807
v -0.34375 1.3824632906573113 -0.08530580256377882
v -0.34375 1.3100597949898651 -0.03460832910469895
v -0.34375 1.3209128060940483 -0.09615881366796196
vt 0.890625 0.90625
vt 0.875 0.90625
vt 0.875 0.890625
vt 0.890625 0.890625
vt 0.140625 0.109375
vt 0.140625 0.125
vt 0.125 0.125
vt 0.125 0.109375
vt 0.671875 0.75
vt 0.84375 0.75
vt 0.84375 0.765625
vt 0.671875 0.765625
vt 0.84375 0.71875
vt 0.84375 0.734375
vt 0.671875 0.734375
vt 0.671875 0.71875
vt 0.84375 0.6875
vt 0.84375 0.703125
vt 0.671875 0.703125
vt 0.671875 0.6875
vt 0.84375 0.671875
vt 0.671875 0.671875
vt 0.671875 0.65625
vt 0.84375 0.65625
vn 1 0 0
vn -1 0 0
vn 0 0.984807753012208 0.17364817766693033
vn 0 -0.984807753012208 -0.17364817766693033
vn 0 -0.17364817766693033 0.984807753012208
vn 0 0.17364817766693033 -0.984807753012208
usemtl m_be7c0634-48b8-3f44-45ad-afa8481bbba2
f 82/241/61 81/242/61 83/243/61 84/244/61
f 87/245/62 85/246/62 86/247/62 88/248/62
f 85/249/63 81/250/63 82/251/63 86/252/63
f 84/253/64 83/254/64 87/255/64 88/256/64
f 83/257/65 81/258/65 85/259/65 87/260/65
f 86/261/66 82/262/66 84/263/66 88/264/66
o mesh
v -0.2786549660340687 1.3107870767644578 -0.03448008970526073
v -0.2786549660340687 1.3216400878686412 -0.09603057426852372
v -0.2486666372204002 0.6343761532197334 -0.1537495855721263
v -0.2486666372204002 0.6452291643239165 -0.21530007013538932
v -0.3410954798829348 1.3081022823357689 -0.0349534914006944
v -0.3410954798829348 1.3189552934399518 -0.09650397596395739
v -0.3111071510692663 0.6316913587910443 -0.15422298726755995
v -0.3111071510692663 0.6425443698952275 -0.21577347183082296
vt 0.140625 0.3125
vt 0.125 0.3125
vt 0.125 0.140625
vt 0.140625 0.140625
vt 0.171875 0.140625
vt 0.171875 0.3125
vt 0.15625 0.3125
vt 0.15625 0.140625
vt 0.671875 0.171875
vt 0.6875 0.171875
vt 0.6875 0.1875
vt 0.671875 0.1875
vt 0.234375 0.125
vt 0.234375 0.140625
vt 0.21875 0.140625
vt 0.21875 0.125
vt 0.203125 0.140625
vt 0.203125 0.3125
vt 0.1875 0.3125
vt 0.1875 0.140625
vt 0.40625 0.3125
vt 0.390625 0.3125
vt 0.390625 0.140625
vt 0.40625 0.140625
vn 0.9990482215818579 0.04295671085902565 0.007574427126938524
vn -0.9990482215818579 -0.04295671085902565 -0.007574427126938524
vn -0.043619387365336 0.9838704342468719 0.1734829030790772
vn 0.043619387365336 -0.9838704342468719 -0.1734829030790772
vn -8.673617379884035e-19 -0.17364817766693033 0.9848077530122081
vn 8.673617379884035e-19 0.17364817766693033 -0.9848077530122081
usemtl m_be7c0634-48b8-3f44-45ad-afa8481bbba2
f 90/265/67 89/266/67 91/267/67 92/268/67
f 95/269/68 93/270/68 94/271/68 96/272/68
f 93/273/69 89/274/69 90/275/69 94/276/69
f 92/277/70 91/278/70 95/279/70 96/280/70
f 91/281/71 89/282/71 93/283/71 95/284/71
f 94/285/72 90/286/72 92/287/72 96/288/72
o mesh
v 0.3125 0.6330044647939721 -0.15399145125071356
v 0.3125 0.6438574758981552 -0.21554193581397657
v 0.3125 0.5714539802307091 -0.16484446235489672
v 0.3125 0.5823069913348923 -0.22639494691815973
v 0.1875 0.6330044647939721 -0.15399145125071356
v 0.1875 0.6438574758981552 -0.21554193581397657
v 0.1875 0.5714539802307091 -0.16484446235489672
v 0.1875 0.5823069913348923 -0.22639494691815973
vt 0.890625 0.875
vt 0.875 0.875
vt 0.875 0.859375
vt 0.890625 0.859375
vt 0.171875 0.109375
vt 0.171875 0.125
vt 0.15625 0.125
vt 0.15625 0.109375
vt 0.828125 0.328125
vt 0.859375 0.328125
vt 0.859375 0.34375
vt 0.828125 0.34375
vt 0.859375 0.265625
vt 0.859375 0.28125
vt 0.828125 0.28125
vt 0.828125 0.265625
vt 0.859375 0.234375
vt 0.859375 0.25
vt 0.828125 0.25
vt 0.828125 0.234375
vt 0.28125 0.15625
vt 0.25 0.15625
vt 0.25 0.140625
vt 0.28125 0.140625
vn 1 0 0
vn -1 0 0
vn 0 0.984807753012208 0.17364817766693033
vn 0 -0.984807753012208 -0.17364817766693033
vn 0 -0.17364817766693033 0.984807753012208
vn 0 0.17364817766693033 -0.984807753012208
usemtl m_be7c0634-48b8-3f44-45ad-afa8481bbba2
f 98/289/73 97/290/73 99/291/73 100/292/73
f 103/293/74 101/294/74 102/295/74 104/296/74
f 101/297/75 97/298/75 98/299/75 102/300/75
f 100/301/76 99/302/76 103/303/76 104/304/76
f 99/305/77 97/306/77 101/307/77 103/308/77
f 102/309/78 98/310/78 100/311/78 104/312/78
o mesh
v -0.1875 0.6330044647939721 -0.15399145125071356
v -0.1875 0.6438574758981552 -0.21554193581397657
v -0.1875 0.5714539802307091 -0.16484446235489672
v -0.1875 0.5823069913348923 -0.22639494691815973
v -0.3125 0.6330044647939721 -0.15399145125071356
v -0.3125 0.6438574758981552 -0.21554193581397657
v -0.3125 0.5714539802307091 -0.16484446235489672
v -0.3125 0.5823069913348923 -0.22639494691815973
vt 0.359375 0.125
vt 0.34375 0.125
vt 0.34375 0.109375
vt 0.359375 0.109375
vt 0.890625 0.625
vt 0.890625 0.640625
vt 0.875 0.640625
vt 0.875 0.625
vt 0.84375 0.171875
vt 0.875 0.171875
vt 0.875 0.1875
vt 0.84375 0.1875
vt 0.875 0.140625
vt 0.875 0.15625
vt 0.84375 0.15625
vt 0.84375 0.140625
vt 0.890625 0.75
vt 0.890625 0.765625
vt 0.859375 0.765625
vt 0.859375 0.75
vt 0.890625 0.734375
vt 0.859375 0.734375
vt 0.859375 0.71875
vt 0.890625 0.71875
vn 1 0 0
vn -1 0 0
vn 0 0.984807753012208 0.17364817766693033
vn 0 -0.984807753012208 -0.17364817766693033
vn 0 -0.17364817766693033 0.984807753012208
vn 0 0.17364817766693033 -0.984807753012208
usemtl m_be7c0634-48b8-3f44-45ad-afa8481bbba2
f 106/313/79 105/314/79 107/315/79 108/316/79
f 111/317/80 109/318/80 110/319/80 112/320/80
f 109/321/81 105/322/81 106/323/81 110/324/81
f 108/325/82 107/326/82 111/327/82 112/328/82
f 107/329/83 105/330/83 109/331/83 111/332/83
f 110/333/84 106/334/84 108/335/84 112/336/84
o mesh
v 0.1875 0.5714539802307093 -0.1648444623548967
v 0.1875 0.5823069913348924 -0.2263949469181597
v 0.1875 0.5099034956674462 -0.17569747345907985
v 0.1875 0.5207565067716293 -0.23724795802234286
v 0.0625 0.5714539802307093 -0.1648444623548967
v 0.0625 0.5823069913348924 -0.2263949469181597
v 0.0625 0.5099034956674462 -0.17569747345907985
v 0.0625 0.5207565067716293 -0.23724795802234286
vt 0.890625 0.8125
vt 0.875 0.8125
vt 0.875 0.796875
vt 0.890625 0.796875
vt 0.265625 0.109375
vt 0.265625 0.125
vt 0.25 0.125
vt 0.25 0.109375
vt 0.5625 0.140625
vt 0.59375 0.140625
vt 0.59375 0.15625
vt 0.5625 0.15625
vt 0.875 0.40625
vt 0.875 0.421875
vt 0.84375 0.421875
vt 0.84375 0.40625
vt 0.640625 0.140625
vt 0.640625 0.15625
vt 0.609375 0.15625
vt 0.609375 0.140625
vt 0.6875 0.15625
vt 0.65625 0.15625
vt 0.65625 0.140625
vt 0.6875 0.140625
vn 1 0 0
vn -1 0 0
vn 0 0.984807753012208 0.17364817766693033
vn 0 -0.984807753012208 -0.17364817766693033
vn 0 -0.17364817766693033 0.984807753012208
vn 0 0.17364817766693033 -0.984807753012208
usemtl m_be7c0634-48b8-3f44-45ad-afa8481bbba2
f 114/337/85 113/338/85 115/339/85 116/340/85
f 119/341/86 117/342/86 118/343/86 120/344/86
f 117/345/87 113/346/87 114/347/87 118/348/87
f 116/349/88 115/350/88 119/351/88 120/352/88
f 115/353/89 113/354/89 117/355/89 119/356/89
f 118/357/90 114/358/90 116/359/90 120/360/90
o mesh
v -0.0625 0.5714539802307093 -0.1648444623548967
v -0.0625 0.5823069913348924 -0.2263949469181597
v -0.0625 0.5099034956674462 -0.17569747345907985
v -0.0625 0.5207565067716293 -0.23724795802234286
v -0.1875 0.5714539802307093 -0.1648444623548967
v -0.1875 0.5823069913348924 -0.2263949469181597
v -0.1875 0.5099034956674462 -0.17569747345907985
v -0.1875 0.5207565067716293 -0.23724795802234286
vt 0.890625 0.84375
vt 0.875 0.84375
vt 0.875 0.828125
vt 0.890625 0.828125
vt 0.203125 0.109375
vt 0.203125 0.125
vt 0.1875 0.125
vt 0.1875 0.109375
vt 0.296875 0.140625
vt 0.328125 0.140625
vt 0.328125 0.15625
vt 0.296875 0.15625
vt 0.375 0.140625
vt 0.375 0.15625
vt 0.34375 0.15625
vt 0.34375 0.140625
vt 0.875 0.46875
vt 0.875 0.484375
vt 0.84375 0.484375
vt 0.84375 0.46875
vt 0.875 0.453125
vt 0.84375 0.453125
vt 0.84375 0.4375
vt 0.875 0.4375
vn 1 0 0
vn -1 0 0
vn 0 0.984807753012208 0.17364817766693033
vn 0 -0.984807753012208 -0.17364817766693033
vn 0 -0.17364817766693033 0.984807753012208
vn 0 0.17364817766693033 -0.984807753012208
usemtl m_be7c0634-48b8-3f44-45ad-afa8481bbba2
f 122/361/91 121/362/91 123/363/91 124/364/91
f 127/365/92 125/366/92 126/367/92 128/368/92
f 125/369/93 121/370/93 122/371/93 126/372/93
f 124/373/94 123/374/94 127/375/94 128/376/94
f 123/377/95 121/378/95 125/379/95 127/380/95
f 126/381/96 122/382/96 124/383/96 128/384/96
o mesh
v 0.0625 0.5099034956674462 -0.17569747345907982
v 0.0625 0.5207565067716293 -0.23724795802234283
v 0.0625 0.44835301110418313 -0.18655048456326298
v 0.0625 0.45920602220836626 -0.248100969126526
v -0.0625 0.5099034956674462 -0.17569747345907982
v -0.0625 0.5207565067716293 -0.23724795802234283
v -0.0625 0.44835301110418313 -0.18655048456326298
v -0.0625 0.45920602220836626 -0.248100969126526
vt 0.296875 0.125
vt 0.28125 0.125
vt 0.28125 0.109375
vt 0.296875 0.109375
vt 0.328125 0.109375
vt 0.328125 0.125
vt 0.3125 0.125
vt 0.3125 0.109375
vt 0.703125 0.140625
vt 0.734375 0.140625
vt 0.734375 0.15625
vt 0.703125 0.15625
vt 0.78125 0.140625
vt 0.78125 0.15625
vt 0.75 0.15625
vt 0.75 0.140625
vt 0.875 0.203125
vt 0.875 0.21875
vt 0.84375 0.21875
vt 0.84375 0.203125
vt 0.828125 0.15625
vt 0.796875 0.15625
vt 0.796875 0.140625
vt 0.828125 0.140625
vn 1 0 0
vn -1 0 0
vn 0 0.984807753012208 0.17364817766693033
vn 0 -0.984807753012208 -0.17364817766693033
vn 0 -0.17364817766693033 0.984807753012208
vn 0 0.17364817766693033 -0.984807753012208
usemtl m_be7c0634-48b8-3f44-45ad-afa8481bbba2
f 130/385/97 129/386/97 131/387/97 132/388/97
f 135/389/98 133/390/98 134/391/98 136/392/98
f 133/393/99 129/394/99 130/395/99 134/396/99
f 132/397/100 131/398/100 135/399/100 136/400/100
f 131/401/101 129/402/101 133/403/101 135/404/101
f 134/405/102 130/406/102 132/407/102 136/408/102
o mesh
v -0.125 1.0023073721735503 -0.0888733846256147
v -0.125 1.0131603832777334 -0.15042386918887768
v -0.125 0.7868806762021296 -0.1268589234902557
v -0.125 0.7977336873063128 -0.18840940805351872
v -0.1875 1.0023073721735503 -0.0888733846256147
v -0.1875 1.0131603832777334 -0.15042386918887768
v -0.1875 0.7868806762021296 -0.1268589234902557
v -0.1875 0.7977336873063128 -0.18840940805351872
vt 0.765625 0.453125
vt 0.75 0.453125
vt 0.75 0.390625
vt 0.765625 0.390625
vt 0.78125 0.25
vt 0.78125 0.3125
vt 0.765625 0.3125
vt 0.765625 0.25
vt 0.484375 0.125
vt 0.5 0.125
vt 0.5 0.140625
vt 0.484375 0.140625
vt 0.875 0.5
vt 0.875 0.515625
vt 0.859375 0.515625
vt 0.859375 0.5
vt 0.78125 0.171875
vt 0.78125 0.234375
vt 0.765625 0.234375
vt 0.765625 0.171875
vt 0.234375 0.21875
vt 0.21875 0.21875
vt 0.21875 0.15625
vt 0.234375 0.15625
vn 1 0 0
vn -1 0 0
vn 0 0.984807753012208 0.17364817766693033
vn 0 -0.984807753012208 -0.17364817766693033
vn 0 -0.17364817766693033 0.984807753012208
vn 0 0.17364817766693033 -0.984807753012208
usemtl m_be7c0634-48b8-3f44-45ad-afa8481bbba2
f 138/409/103 137/410/103 139/411/103 140/412/103
f 143/413/104 141/414/104 142/415/104 144/416/104
f 141/417/105 137/418/105 138/419/105 142/420/105
f 140/421/106 139/422/106 143/423/106 144/424/106
f 139/425/107 137/426/107 141/427/107 143/428/107
f 142/429/108 138/430/108 140/431/108 144/432/108
o mesh
v -0.0625 1.248509310426602 -0.04546134020888211
v -0.0625 1.2593623215307852 -0.10701182477214512
v -0.0625 1.1869588258633392 -0.05631435131306525
v -0.0625 1.1978118369675221 -0.11786483587632826
v -0.1875 1.248509310426602 -0.04546134020888211
v -0.1875 1.2593623215307852 -0.10701182477214512
v -0.1875 1.1869588258633392 -0.05631435131306525
v -0.1875 1.1978118369675221 -0.11786483587632826
vt 0.53125 0.140625
vt 0.515625 0.140625
vt 0.515625 0.125
vt 0.53125 0.125
vt 0.875 0.375
vt 0.875 0.390625
vt 0.859375 0.390625
vt 0.859375 0.375
vt 0.8125 0.5
vt 0.84375 0.5
vt 0.84375 0.515625
vt 0.8125 0.515625
vt 0.609375 0.171875
vt 0.609375 0.1875
vt 0.578125 0.1875
vt 0.578125 0.171875
vt 0.65625 0.171875
vt 0.65625 0.1875
vt 0.625 0.1875
vt 0.625 0.171875
vt 0.84375 0.375
vt 0.8125 0.375
vt 0.8125 0.359375
vt 0.84375 0.359375
vn 1 0 0
vn -1 0 0
vn 0 0.984807753012208 0.17364817766693033
vn 0 -0.984807753012208 -0.17364817766693033
vn 0 -0.17364817766693033 0.984807753012208
vn 0 0.17364817766693033 -0.984807753012208
usemtl m_be7c0634-48b8-3f44-45ad-afa8481bbba2
f 146/433/109 145/434/109 147/435/109 148/436/109
f 151/437/110 149/438/110 150/439/110 152/440/110
f 149/441/111 145/442/111 146/443/111 150/444/111
f 148/445/112 147/446/112 151/447/112 152/448/112
f 147/449/113 145/450/113 149/451/113 151/452/113
f 150/453/114 146/454/114 148/455/114 152/456/114
o mesh
v 0 1.248509310426602 -0.04546134020888208
v 0 1.2593623215307852 -0.10701182477214509
v 0 1.00230737217355 -0.08887338462561467
v 0 1.0131603832777332 -0.15042386918887768
v -0.0625 1.248509310426602 -0.04546134020888208
v -0.0625 1.2593623215307852 -0.10701182477214509
v -0.0625 1.00230737217355 -0.08887338462561467
v -0.0625 1.0131603832777332 -0.15042386918887768
vt 0.28125 0.265625
vt 0.265625 0.265625
vt 0.265625 0.203125
vt 0.28125 0.203125
vt 0.3125 0.203125
vt 0.3125 0.265625
vt 0.296875 0.265625
vt 0.296875 0.203125
vt 0.859375 0.59375
vt 0.875 0.59375
vt 0.875 0.609375
vt 0.859375 0.609375
vt 0.4375 0.125
vt 0.4375 0.140625
vt 0.421875 0.140625
vt 0.421875 0.125
vt 0.75 0.21875
vt 0.75 0.28125
vt 0.734375 0.28125
vt 0.734375 0.21875
vt 0.5625 0.25
vt 0.546875 0.25
vt 0.546875 0.1875
vt 0.5625 0.1875
vn 1 0 0
vn -1 0 0
vn 0 0.984807753012208 0.17364817766693033
vn 0 -0.984807753012208 -0.17364817766693033
vn 0 -0.17364817766693033 0.984807753012208
vn 0 0.17364817766693033 -0.984807753012208
usemtl m_be7c0634-48b8-3f44-45ad-afa8481bbba2
f 154/457/115 153/458/115 155/459/115 156/460/115
f 159/461/116 157/462/116 158/463/116 160/464/116
f 157/465/117 153/466/117 154/467/117 158/468/117
f 156/469/118 155/470/118 159/471/118 160/472/118
f 155/473/119 153/474/119 157/475/119 159/476/119
f 158/477/120 154/478/120 156/479/120 160/480/120
o mesh
v -0.0625 1.063857856736813 -0.07802037352143155
v -0.0625 1.0747108678409962 -0.13957085808469455
v -0.0625 1.0023073721735503 -0.0888733846256147
v -0.0625 1.0131603832777332 -0.1504238691888777
v -0.1875 1.063857856736813 -0.07802037352143155
v -0.1875 1.0747108678409962 -0.13957085808469455
v -0.1875 1.0023073721735503 -0.0888733846256147
v -0.1875 1.0131603832777332 -0.1504238691888777
vt 0.875 0.3125
vt 0.859375 0.3125
vt 0.859375 0.296875
vt 0.875 0.296875
vt 0.015625 0.109375
vt 0.015625 0.125
vt 0 0.125
vt 0 0.109375
vt 0.796875 0.171875
vt 0.828125 0.171875
vt 0.828125 0.1875
vt 0.796875 0.1875
vt 0.859375 0.921875
vt 0.859375 0.9375
vt 0.828125 0.9375
vt 0.828125 0.921875
vt 0.453125 0.15625
vt 0.453125 0.171875
vt 0.421875 0.171875
vt 0.421875 0.15625
vt 0.859375 0.546875
vt 0.828125 0.546875
vt 0.828125 0.53125
vt 0.859375 0.53125
vn 1 0 0
vn -1 0 0
vn 0 0.984807753012208 0.17364817766693033
vn 0 -0.984807753012208 -0.17364817766693033
vn 0 -0.17364817766693033 0.984807753012208
vn 0 0.17364817766693033 -0.984807753012208
usemtl m_be7c0634-48b8-3f44-45ad-afa8481bbba2
f 162/481/121 161/482/121 163/483/121 164/484/121
f 167/485/122 165/486/122 166/487/122 168/488/122
f 165/489/123 161/490/123 162/491/123 166/492/123
f 164/493/124 163/494/124 167/495/124 168/496/124
f 163/497/125 161/498/125 165/499/125 167/500/125
f 166/501/126 162/502/126 164/503/126 168/504/126
o mesh
v -0.028485994482879307 0.8075564257132394 -0.1232132310050772
v -0.028485994482879307 0.8184094368174226 -0.1847637155683402
v -0.04466218480178685 0.748103223052977 -0.13369643472360973
v -0.04466218480178685 0.7589562341571602 -0.19524691928687274
v -0.17941190484054623 0.8473825198138923 -0.11619081607889785
v -0.17941190484054623 0.8582355309180755 -0.17774130064216084
v -0.19558809515945377 0.78792931715363 -0.1266740197974304
v -0.19558809515945377 0.7987823282578131 -0.18822450436069338
vt 0.046875 0.125
vt 0.03125 0.125
vt 0.03125 0.109375
vt 0.046875 0.109375
vt 0.078125 0.109375
vt 0.078125 0.125
vt 0.0625 0.125
vt 0.0625 0.109375
vt 0.75 0.359375
vt 0.796875 0.359375
vt 0.796875 0.375
vt 0.75 0.375
vt 0.375 0.203125
vt 0.375 0.21875
vt 0.328125 0.21875
vt 0.328125 0.203125
vt 0.828125 0.453125
vt 0.828125 0.46875
vt 0.78125 0.46875
vt 0.78125 0.453125
vt 0.828125 0.4375
vt 0.78125 0.4375
vt 0.78125 0.421875
vt 0.828125 0.421875
vn 0.9659258262890684 -0.2548870022441788 -0.04494345552754778
vn -0.9659258262890684 0.2548870022441788 0.04494345552754778
vn 0.25881904510252074 0.9512512425641979 0.16773125949652065
vn -0.25881904510252074 -0.9512512425641979 -0.16773125949652065
vn 0 -0.1736481776669304 0.9848077530122082
vn 0 0.1736481776669304 -0.9848077530122082
usemtl m_be7c0634-48b8-3f44-45ad-afa8481bbba2
f 170/505/127 169/506/127 171/507/127 172/508/127
f 175/509/128 173/510/128 174/511/128 176/512/128
f 173/513/129 169/514/129 170/515/129 174/516/129
f 172/517/130 171/518/130 175/519/130 176/520/130
f 171/521/131 169/522/131 173/523/131 175/524/131
f 174/525/132 170/526/132 172/527/132 176/528/132
o mesh
v 0.09375 1.248509310426602 -0.04546134020888211
v 0.09375 1.2593623215307852 -0.10701182477214512
v 0.09375 0.7561054339204981 -0.13228542904234727
v 0.09375 0.7669584450246812 -0.19383591360561028
v 0.03125 1.248509310426602 -0.04546134020888211
v 0.03125 1.2593623215307852 -0.10701182477214512
v 0.03125 0.7561054339204981 -0.13228542904234727
v 0.03125 0.7669584450246812 -0.19383591360561028
vt 0.4375 0.3125
vt 0.421875 0.3125
vt 0.421875 0.1875
vt 0.4375 0.1875
vt 0.46875 0.1875
vt 0.46875 0.3125
vt 0.453125 0.3125
vt 0.453125 0.1875
vt 0.859375 0.5625
vt 0.875 0.5625
vt 0.875 0.578125
vt 0.859375 0.578125
vt 0.46875 0.125
vt 0.46875 0.140625
vt 0.453125 0.140625
vt 0.453125 0.125
vt 0.5 0.1875
vt 0.5 0.3125
vt 0.484375 0.3125
vt 0.484375 0.1875
vt 0.53125 0.3125
vt 0.515625 0.3125
vt 0.515625 0.1875
vt 0.53125 0.1875
vn 1 0 0
vn -1 0 0
vn 0 0.984807753012208 0.17364817766693033
vn 0 -0.984807753012208 -0.17364817766693033
vn 0 -0.17364817766693033 0.984807753012208
vn 0 0.17364817766693033 -0.984807753012208
usemtl m_be7c0634-48b8-3f44-45ad-afa8481bbba2
f 178/529/133 177/530/133 179/531/133 180/532/133
f 183/533/134 181/534/134 182/535/134 184/536/134
f 181/537/135 177/538/135 178/539/135 182/540/135
f 180/541/136 179/542/136 183/543/136 184/544/136
f 179/545/137 177/546/137 181/547/137 183/548/137
f 182/549/138 178/550/138 180/551/138 184/552/138
o mesh
v 0.22096281519821315 0.8564333716329138 -0.1145949067048101
v 0.22096281519821315 0.8672863827370969 -0.1761453912680731
v 0.2371390055171207 0.7969801689726513 -0.12507811042334266
v 0.2371390055171207 0.8078331800768346 -0.18662859498660564
v 0.07003690484054623 0.8166072775322608 -0.12161732163098944
v 0.07003690484054623 0.8274602886364439 -0.18316780619425244
v 0.08621309515945377 0.7571540748719985 -0.132100525349522
v 0.08621309515945377 0.7680070859761816 -0.193651009912785
vt 0.890625 0.9375
vt 0.875 0.9375
vt 0.875 0.921875
vt 0.890625 0.921875
vt 0.109375 0.109375
vt 0.109375 0.125
vt 0.09375 0.125
vt 0.09375 0.109375
vt 0.578125 0.203125
vt 0.625 0.203125
vt 0.625 0.21875
vt 0.578125 0.21875
vt 0.828125 0.390625
vt 0.828125 0.40625
vt 0.78125 0.40625
vt 0.78125 0.390625
vt 0.6875 0.203125
vt 0.6875 0.21875
vt 0.640625 0.21875
vt 0.640625 0.203125
vt 0.84375 0.3125
vt 0.796875 0.3125
vt 0.796875 0.296875
vt 0.84375 0.296875
vn 0.9659258262890684 0.2548870022441788 0.04494345552754778
vn -0.9659258262890684 -0.2548870022441788 -0.04494345552754778
vn -0.25881904510252074 0.9512512425641979 0.16773125949652065
vn 0.25881904510252074 -0.9512512425641979 -0.16773125949652065
vn 0 -0.1736481776669304 0.9848077530122082
vn 0 0.1736481776669304 -0.9848077530122082
usemtl m_be7c0634-48b8-3f44-45ad-afa8481bbba2
f 186/553/139 185/554/139 187/555/139 188/556/139
f 191/557/140 189/558/140 190/559/140 192/560/140
f 189/561/141 185/562/141 186/563/141 190/564/141
f 188/565/142 187/566/142 191/567/142 192/568/142
f 187/569/143 185/570/143 189/571/143 191/572/143
f 190/573/144 186/574/144 188/575/144 192/576/144