# Made in Blockbench 5.2.1
mtllib trophy_csharp.mtl

o mesh
v 0.25 0.3125 -0.3125
v 0.25 0.3125 -0.375
v 0.25 0.125 -0.3125
v 0.25 0.125 -0.375
v -0.25 0.3125 -0.3125
v -0.25 0.3125 -0.375
v -0.25 0.125 -0.3125
v -0.25 0.125 -0.375
vt 0.015625 0.25
vt 0 0.25
vt 0 0.203125
vt 0.015625 0.203125
vt 0.15625 0.203125
vt 0.15625 0.25
vt 0.140625 0.25
vt 0.140625 0.203125
vt 0 0.3125
vt 0.125 0.3125
vt 0.125 0.328125
vt 0 0.328125
vt 0.796875 0.75
vt 0.796875 0.765625
vt 0.671875 0.765625
vt 0.671875 0.75
vt 0.59375 0.625
vt 0.59375 0.671875
vt 0.46875 0.671875
vt 0.46875 0.625
vt 0.296875 0.421875
vt 0.171875 0.421875
vt 0.171875 0.375
vt 0.296875 0.375
vn 1 0 0
vn -1 0 0
vn 0 1 0
vn 0 -1 0
vn 0 0 1
vn 0 0 -1
usemtl m_e6c17ccb-813a-0109-b590-38a37f3f68d7
f 2/1/1 1/2/1 3/3/1 4/4/1
f 7/5/2 5/6/2 6/7/2 8/8/2
f 5/9/3 1/10/3 2/11/3 6/12/3
f 4/13/4 3/14/4 7/15/4 8/16/4
f 3/17/5 1/18/5 5/19/5 7/20/5
f 6/21/6 2/22/6 4/23/6 8/24/6
o mesh
v 0.0625 0.625 0.0625
v 0.0625 0.625 -0.0625
v 0.0625 0.4375 0.0625
v 0.0625 0.4375 -0.0625
v -0.0625 0.625 0.0625
v -0.0625 0.625 -0.0625
v -0.0625 0.4375 0.0625
v -0.0625 0.4375 -0.0625
vt 0.703125 0.734375
vt 0.671875 0.734375
vt 0.671875 0.6875
vt 0.703125 0.6875
vt 0.171875 0.265625
vt 0.171875 0.3125
vt 0.140625 0.3125
vt 0.140625 0.265625
vt 0.671875 0.28125
vt 0.703125 0.28125
vt 0.703125 0.3125
vt 0.671875 0.3125
vt 0.03125 0.265625
vt 0.03125 0.296875
vt 0 0.296875
vt 0 0.265625
vt 0.21875 0.265625
vt 0.21875 0.3125
vt 0.1875 0.3125
vt 0.1875 0.265625
vt 0.265625 0.3125
vt 0.234375 0.3125
vt 0.234375 0.265625
vt 0.265625 0.265625
vn 1 0 0
vn -1 0 0
vn 0 1 0
vn 0 -1 0
vn 0 0 1
vn 0 0 -1
usemtl m_e6c17ccb-813a-0109-b590-38a37f3f68d7
f 10/25/7 9/26/7 11/27/7 12/28/7
f 15/29/8 13/30/8 14/31/8 16/32/8
f 13/33/9 9/34/9 10/35/9 14/36/9
f 12/37/10 11/38/10 15/39/10 16/40/10
f 11/41/11 9/42/11 13/43/11 15/44/11
f 14/45/12 10/46/12 12/47/12 16/48/12
o mesh
v 0.375 0.375 0.3125
v 0.375 0.375 -0.3125
v 0.375 0.0625 0.3125
v 0.375 0.0625 -0.3125
v -0.375 0.375 0.3125
v -0.375 0.375 -0.3125
v -0.375 0.0625 0.3125
v -0.375 0.0625 -0.3125
vt 0.5625 0.453125
vt 0.40625 0.453125
vt 0.40625 0.375
vt 0.5625 0.375
vt 0.15625 0.34375
vt 0.15625 0.421875
vt 0 0.421875
vt 0 0.34375
vt 0 0.4375
vt 0.1875 0.4375
vt 0.1875 0.59375
vt 0 0.59375
vt 0.390625 0.4375
vt 0.390625 0.59375
vt 0.203125 0.59375
vt 0.203125 0.4375
vt 0.65625 0.78125
vt 0.65625 0.859375
vt 0.46875 0.859375
vt 0.46875 0.78125
vt 0.65625 0.765625
vt 0.46875 0.765625
vt 0.46875 0.6875
vt 0.65625 0.6875
vn 1 0 0
vn -1 0 0
vn 0 1 0
vn 0 -1 0
vn 0 0 1
vn 0 0 -1
usemtl m_e6c17ccb-813a-0109-b590-38a37f3f68d7
f 18/49/13 17/50/13 19/51/13 20/52/13
f 23/53/14 21/54/14 22/55/14 24/56/14
f 21/57/15 17/58/15 18/59/15 22/60/15
f 20/61/16 19/62/16 23/63/16 24/64/16
f 19/65/17 17/66/17 21/67/17 23/68/17
f 22/69/18 18/70/18 20/71/18 24/72/18
o mesh
v 0.4375 0.4375 0.375
v 0.4375 0.4375 -0.375
v 0.4375 0.375 0.375
v 0.4375 0.375 -0.375
v -0.4375 0.4375 0.375
v -0.4375 0.4375 -0.375
v -0.4375 0.375 0.375
v -0.4375 0.375 -0.375
vt 0.8125 0.34375
vt 0.625 0.34375
vt 0.625 0.328125
vt 0.8125 0.328125
vt 0.859375 0.84375
vt 0.859375 0.859375
vt 0.671875 0.859375
vt 0.671875 0.84375
vt 0 0.8125
vt 0.21875 0.8125
vt 0.21875 1
vt 0 1
vt 0.21875 0.609375
vt 0.21875 0.796875
vt 0 0.796875
vt 0 0.609375
vt 0.796875 0.5
vt 0.796875 0.515625
vt 0.578125 0.515625
vt 0.578125 0.5
vt 0.796875 0.484375
vt 0.578125 0.484375
vt 0.578125 0.46875
vt 0.796875 0.46875
vn 1 0 0
vn -1 0 0
vn 0 1 0
vn 0 -1 0
vn 0 0 1
vn 0 0 -1
usemtl m_e6c17ccb-813a-0109-b590-38a37f3f68d7
f 26/73/19 25/74/19 27/75/19 28/76/19
f 31/77/20 29/78/20 30/79/20 32/80/20
f 29/81/21 25/82/21 26/83/21 30/84/21
f 28/85/22 27/86/22 31/87/22 32/88/22
f 27/89/23 25/90/23 29/91/23 31/92/23
f 30/93/24 26/94/24 28/95/24 32/96/24
o mesh
v 0.4375 0.0625 0.375
v 0.4375 0.0625 -0.375
v 0.4375 0 0.375
v 0.4375 0 -0.375
v -0.4375 0.0625 0.375
v -0.4375 0.0625 -0.375
v -0.4375 0 0.375
v -0.4375 0 -0.375
vt 0.859375 0.828125
vt 0.671875 0.828125
vt 0.671875 0.8125
vt 0.859375 0.8125
vt 0.859375 0.78125
vt 0.859375 0.796875
vt 0.671875 0.796875
vt 0.671875 0.78125
vt 0.234375 0.8125
vt 0.453125 0.8125
vt 0.453125 1
vt 0.234375 1
vt 0.453125 0.609375
vt 0.453125 0.796875
vt 0.234375 0.796875
vt 0.234375 0.609375
vt 0.796875 0.4375
vt 0.796875 0.453125
vt 0.578125 0.453125
vt 0.578125 0.4375
vt 0.796875 0.421875
vt 0.578125 0.421875
vt 0.578125 0.40625
vt 0.796875 0.40625
vn 1 0 0
vn -1 0 0
vn 0 1 0
vn 0 -1 0
vn 0 0 1
vn 0 0 -1
usemtl m_e6c17ccb-813a-0109-b590-38a37f3f68d7
f 34/97/25 33/98/25 35/99/25 36/100/25
f 39/101/26 37/102/26 38/103/26 40/104/26
f 37/105/27 33/106/27 34/107/27 38/108/27
f 36/109/28 35/110/28 39/111/28 40/112/28
f 35/113/29 33/114/29 37/115/29 39/116/29
f 38/117/30 34/118/30 36/119/30 40/120/30
o mesh
v 0.3125 1.034157528578827 0.07129325915631013
v 0.3125 1.0612124803210898 -0.05074374173368154
v 0.3125 0.5460095250188602 -0.03692654781274131
v 0.3125 0.5730644767611232 -0.158963548702733
v -0.3125 1.034157528578827 0.07129325915631013
v -0.3125 1.0612124803210898 -0.05074374173368154
v -0.3125 0.5460095250188602 -0.03692654781274131
v -0.3125 0.5730644767611232 -0.158963548702733
vt 0.34375 0.421875
vt 0.3125 0.421875
vt 0.3125 0.296875
vt 0.34375 0.296875
vt 0.390625 0.296875
vt 0.390625 0.421875
vt 0.359375 0.421875
vt 0.359375 0.296875
vt 0.578125 0.578125
vt 0.734375 0.578125
vt 0.734375 0.609375
vt 0.578125 0.609375
vt 0.734375 0.53125
vt 0.734375 0.5625
vt 0.578125 0.5625
vt 0.578125 0.53125
vt 0.5625 0.46875
vt 0.5625 0.59375
vt 0.40625 0.59375
vt 0.40625 0.46875
vt 0.625 1
vt 0.46875 1
vt 0.46875 0.875
vt 0.625 0.875
vn 1 0 0
vn -1 0 0
vn 0 0.9762960071199334 0.21643961393810288
vn 0 -0.9762960071199334 -0.21643961393810288
vn 0 -0.21643961393810288 0.9762960071199334
vn 0 0.21643961393810288 -0.9762960071199334
usemtl m_e6c17ccb-813a-0109-b590-38a37f3f68d7
f 42/121/31 41/122/31 43/123/31 44/124/31
f 47/125/32 45/126/32 46/127/32 48/128/32
f 45/129/33 41/130/33 42/131/33 46/132/33
f 44/133/34 43/134/34 47/135/34 48/136/34
f 43/137/35 41/138/35 45/139/35 47/140/35
f 46/141/36 42/142/36 44/143/36 48/144/36
o mesh
v 0.22167788165510469 0.8300322448371504 -0.10199516604900885
v 0.22167788165510469 0.8435597207082819 -0.16301366649400467
v 0.2783221183448953 0.8042447122450622 -0.10771212438740567
v 0.2783221183448953 0.8177721881161937 -0.1687306248324015
v 0.14243695757872357 0.6641276185173534 -0.13877533621187926
v 0.14243695757872357 0.6776550943884848 -0.1997938366568751
v 0.19908119426851417 0.6383400859252651 -0.1444922945502761
v 0.19908119426851417 0.6518675617963966 -0.20551079499527192
vt 0.5 0.234375
vt 0.484375 0.234375
vt 0.484375 0.21875
vt 0.5 0.21875
vt 0.53125 0.21875
vt 0.53125 0.234375
vt 0.515625 0.234375
vt 0.515625 0.21875
vt 0.71875 0.71875
vt 0.765625 0.71875
vt 0.765625 0.734375
vt 0.71875 0.734375
vt 0.765625 0.6875
vt 0.765625 0.703125
vt 0.71875 0.703125
vt 0.71875 0.6875
vt 0.359375 0.265625
vt 0.359375 0.28125
vt 0.3125 0.28125
vt 0.3125 0.265625
vt 0.765625 0.671875
vt 0.71875 0.671875
vt 0.71875 0.65625
vt 0.765625 0.65625
vn 0.42261826174069933 0.8848246737055846 0.19616090753530893
vn -0.42261826174069933 -0.8848246737055846 -0.19616090753530893
vn -0.9063077870366503 0.41260052147341164 0.0914713334143491
vn 0.9063077870366503 -0.41260052147341164 -0.0914713334143491
vn 1.3877787807814457e-17 -0.2164396139381029 0.9762960071199334
vn -1.3877787807814457e-17 0.2164396139381029 -0.9762960071199334
usemtl m_e6c17ccb-813a-0109-b590-38a37f3f68d7
f 50/145/37 49/146/37 51/147/37 52/148/37
f 55/149/38 53/150/38 54/151/38 56/152/38
f 53/153/39 49/154/39 50/155/39 54/156/39
f 52/157/40 51/158/40 55/159/40 56/160/40
f 51/161/41 49/162/41 53/163/41 55/164/41
f 54/165/42 50/166/42 52/167/42 56/168/42
o mesh
v 0.2783221183448953 0.8300322448371504 -0.10199516604900885
v 0.2783221183448953 0.8435597207082819 -0.16301366649400467
v 0.22167788165510469 0.8042447122450622 -0.10771212438740567
v 0.22167788165510469 0.8177721881161937 -0.1687306248324015
v 0.19908119426851417 0.9959368711569475 -0.06521499588613842
v 0.19908119426851417 1.009464347028079 -0.12623349633113426
v 0.14243695757872354 0.9701493385648593 -0.07093195422453524
v 0.14243695757872354 0.9836768144359908 -0.1319504546695311
vt 0.5625 0.234375
vt 0.546875 0.234375
vt 0.546875 0.21875
vt 0.5625 0.21875
vt 0.59375 0.21875
vt 0.59375 0.234375
vt 0.578125 0.234375
vt 0.578125 0.21875
vt 0.71875 0.625
vt 0.765625 0.625
vt 0.765625 0.640625
vt 0.71875 0.640625
vt 0.765625 0.296875
vt 0.765625 0.3125
vt 0.71875 0.3125
vt 0.71875 0.296875
vt 0.765625 0.265625
vt 0.765625 0.28125
vt 0.71875 0.28125
vt 0.71875 0.265625
vt 0.421875 0.265625
vt 0.375 0.265625
vt 0.375 0.25
vt 0.421875 0.25
vn 0.42261826174069933 -0.8848246737055846 -0.19616090753530893
vn -0.42261826174069933 0.8848246737055846 0.19616090753530893
vn 0.9063077870366503 0.41260052147341164 0.0914713334143491
vn -0.9063077870366503 -0.41260052147341164 -0.0914713334143491
vn -1.3877787807814457e-17 -0.2164396139381029 0.9762960071199334
vn 1.3877787807814457e-17 0.2164396139381029 -0.9762960071199334
usemtl m_e6c17ccb-813a-0109-b590-38a37f3f68d7
f 58/169/43 57/170/43 59/171/43 60/172/43
f 63/173/44 61/174/44 62/175/44 64/176/44
f 61/177/45 57/178/45 58/179/45 62/180/45
f 60/181/46 59/182/46 63/183/46 64/184/46
f 59/185/47 57/186/47 61/187/47 63/188/47
f 62/189/48 58/190/48 60/191/48 64/192/48
o mesh
v 0.18207349444790843 0.9997304758113015 -0.06437397398209077
v 0.18207349444790843 1.013257951682433 -0.12539247442708662
v 0.19292650555209157 0.9396389834958907 -0.07769593709866658
v 0.19292650555209157 0.9531664593670222 -0.13871443754366242
v -0.0025779592418805897 0.9679432215925745 -0.07142103858245681
v -0.0025779592418805897 0.981470697463706 -0.13243953902745265
v 0.00827505186230254 0.9078517292771638 -0.08474300169903261
v 0.00827505186230254 0.9213792051482952 -0.14576150214402844
vt 0.625 0.234375
vt 0.609375 0.234375
vt 0.609375 0.21875
vt 0.625 0.21875
vt 0.65625 0.21875
vt 0.65625 0.234375
vt 0.640625 0.234375
vt 0.640625 0.21875
vt 0.4375 0.25
vt 0.484375 0.25
vt 0.484375 0.265625
vt 0.4375 0.265625
vt 0.640625 0.25
vt 0.640625 0.265625
vt 0.59375 0.265625
vt 0.59375 0.25
vt 0.78125 0.375
vt 0.78125 0.390625
vt 0.734375 0.390625
vt 0.734375 0.375
vt 0.703125 0.265625
vt 0.65625 0.265625
vt 0.65625 0.25
vt 0.703125 0.25
vn 0.984807753012208 0.16953202249987687 0.0375843445352855
vn -0.984807753012208 -0.16953202249987687 -0.0375843445352855
vn -0.17364817766693033 0.9614638770465722 0.2131514098652129
vn 0.17364817766693033 -0.9614638770465722 -0.2131514098652129
vn 0 -0.21643961393810293 0.9762960071199335
vn 0 0.21643961393810293 -0.9762960071199335
usemtl m_e6c17ccb-813a-0109-b590-38a37f3f68d7
f 66/193/49 65/194/49 67/195/49 68/196/49
f 71/197/50 69/198/50 70/199/50 72/200/50
f 69/201/51 65/202/51 66/203/51 70/204/51
f 68/205/52 67/206/52 71/207/52 72/208/52
f 67/209/53 65/210/53 69/211/53 71/212/53
f 70/213/54 66/214/54 68/215/54 72/216/54
o mesh
v 0.19292650555209157 0.6946379735863222 -0.1320113533377479
v 0.19292650555209157 0.7081654494574536 -0.19302985378274376
v 0.18207349444790843 0.6345464812709114 -0.1453333164543237
v 0.18207349444790843 0.6480739571420429 -0.20635181689931956
v 0.008275051862302568 0.7264252278050491 -0.12496428873738188
v 0.008275051862302568 0.7399527036761805 -0.1859827891823777
v -0.002577959241880562 0.6663337354896384 -0.13828625185395768
v -0.002577959241880562 0.6798612113607697 -0.19930475229895353
vt 0.6875 0.234375
vt 0.671875 0.234375
vt 0.671875 0.21875
vt 0.6875 0.21875
vt 0.78125 0.234375
vt 0.78125 0.25
vt 0.765625 0.25
vt 0.765625 0.234375
vt 0.75 0.984375
vt 0.796875 0.984375
vt 0.796875 1
vt 0.75 1
vt 0.796875 0.953125
vt 0.796875 0.96875
vt 0.75 0.96875
vt 0.75 0.953125
vt 0.796875 0.921875
vt 0.796875 0.9375
vt 0.75 0.9375
vt 0.75 0.921875
vt 0.796875 0.90625
vt 0.75 0.90625
vt 0.75 0.890625
vt 0.796875 0.890625
vn 0.984807753012208 -0.16953202249987687 -0.0375843445352855
vn -0.984807753012208 0.16953202249987687 0.0375843445352855
vn 0.17364817766693033 0.9614638770465722 0.2131514098652129
vn -0.17364817766693033 -0.9614638770465722 -0.2131514098652129
vn 0 -0.21643961393810293 0.9762960071199335
vn 0 0.21643961393810293 -0.9762960071199335
usemtl m_e6c17ccb-813a-0109-b590-38a37f3f68d7
f 74/217/55 73/218/55 75/219/55 76/220/55
f 79/221/56 77/222/56 78/223/56 80/224/56
f 77/225/57 73/226/57 74/227/57 78/228/57
f 76/229/58 75/230/58 79/231/58 80/232/58
f 75/233/59 73/234/59 77/235/59 79/236/59
f 78/237/60 74/238/60 76/239/60 80/240/60
o mesh
v 0.1875 0.5460095250188602 -0.036926547812741295
v 0.1875 0.5730644767611232 -0.15896354870273297
v 0.1875 0.42397252412886854 -0.06398149955500415
v 0.1875 0.45102747587113146 -0.18601850044499582
v -0.1875 0.5460095250188602 -0.036926547812741295
v -0.1875 0.5730644767611232 -0.15896354870273297
v -0.1875 0.42397252412886854 -0.06398149955500415
v -0.1875 0.45102747587113146 -0.18601850044499582
vt 0.4375 0.3125
vt 0.40625 0.3125
vt 0.40625 0.28125
vt 0.4375 0.28125
vt 0.484375 0.28125
vt 0.484375 0.3125
vt 0.453125 0.3125
vt 0.453125 0.28125
vt 0.609375 0.640625
vt 0.703125 0.640625
vt 0.703125 0.671875
vt 0.609375 0.671875
vt 0.671875 0.359375
vt 0.671875 0.390625
vt 0.578125 0.390625
vt 0.578125 0.359375
vt 0.734375 0.96875
vt 0.734375 1
vt 0.640625 1
vt 0.640625 0.96875
vt 0.734375 0.953125
vt 0.640625 0.953125
vt 0.640625 0.921875
vt 0.734375 0.921875
vn 1 0 0
vn -1 0 0
vn 0 0.9762960071199334 0.21643961393810288
vn 0 -0.9762960071199334 -0.21643961393810288
vn 0 -0.21643961393810288 0.9762960071199334
vn 0 0.21643961393810288 -0.9762960071199334
usemtl m_e6c17ccb-813a-0109-b590-38a37f3f68d7
f 82/241/61 81/242/61 83/243/61 84/244/61
f 87/245/62 85/246/62 86/247/62 88/248/62
f 85/249/63 81/250/63 82/251/63 86/252/63
f 84/253/64 83/254/64 87/255/64 88/256/64
f 83/257/65 81/258/65 85/259/65 87/260/65
f 86/261/66 82/262/66 84/263/66 88/264/66
o mesh
v 0.1875 1.1561945294688187 0.098348210898573
v 0.1875 1.1832494812110816 -0.02368878999141867
v 0.1875 1.034157528578827 0.07129325915631014
v 0.1875 1.0612124803210898 -0.050743741733681534
v -0.1875 1.1561945294688187 0.098348210898573
v -0.1875 1.1832494812110816 -0.02368878999141867
v -0.1875 1.034157528578827 0.07129325915631014
v -0.1875 1.0612124803210898 -0.050743741733681534
vt 0.71875 0.390625
vt 0.6875 0.390625
vt 0.6875 0.359375
vt 0.71875 0.359375
vt 0.65625 0.28125
vt 0.65625 0.3125
vt 0.625 0.3125
vt 0.625 0.28125
vt 0.640625 0.875
vt 0.734375 0.875
vt 0.734375 0.90625
vt 0.640625 0.90625
vt 0.265625 0.328125
vt 0.265625 0.359375
vt 0.171875 0.359375
vt 0.171875 0.328125
vt 0.5 0.328125
vt 0.5 0.359375
vt 0.40625 0.359375
vt 0.40625 0.328125
vt 0.609375 0.34375
vt 0.515625 0.34375
vt 0.515625 0.3125
vt 0.609375 0.3125
vn 1 0 0
vn -1 0 0
vn 0 0.9762960071199334 0.21643961393810288
vn 0 -0.9762960071199334 -0.21643961393810288
vn 0 -0.21643961393810288 0.9762960071199334
vn 0 0.21643961393810288 -0.9762960071199334
usemtl m_e6c17ccb-813a-0109-b590-38a37f3f68d7
f 90/265/67 89/266/67 91/267/67 92/268/67
f 95/269/68 93/270/68 94/271/68 96/272/68
f 93/273/69 89/274/69 90/275/69 94/276/69
f 92/277/70 91/278/70 95/279/70 96/280/70
f 91/281/71 89/282/71 93/283/71 95/284/71
f 94/285/72 90/286/72 92/287/72 96/288/72
o mesh
v -0.03382416791757516 0.8707363609603989 -0.09297128075688627
v -0.03382416791757516 0.8775000988959646 -0.12348053097938419
v -0.029745224410698545 0.8404881216029355 -0.099677153976782
v -0.029745224410698545 0.8472518595385012 -0.1301864041992799
v -0.15775477558930145 0.8548073359242732 -0.09650266058850109
v -0.15775477558930145 0.8615710738598389 -0.127011910810999
v -0.15367583208242486 0.8245590965668098 -0.10320853380839681
v -0.15367583208242486 0.8313228345023755 -0.13371778403089474
vt 0.609375 0.296875
vt 0.59375 0.296875
vt 0.59375 0.28125
vt 0.609375 0.28125
vt 0.09375 0.21875
vt 0.09375 0.234375
vt 0.078125 0.234375
vt 0.078125 0.21875
vt 0.171875 0.234375
vt 0.203125 0.234375
vt 0.203125 0.25
vt 0.171875 0.25
vt 0.25 0.234375
vt 0.25 0.25
vt 0.21875 0.25
vt 0.21875 0.234375
vt 0.34375 0.234375
vt 0.34375 0.25
vt 0.3125 0.25
vt 0.3125 0.234375
vt 0.78125 0.609375
vt 0.75 0.609375
vt 0.75 0.59375
vt 0.78125 0.59375
vn 0.9914448613738105 0.1274322002890053 0.028251038652918576
vn -0.9914448613738105 -0.1274322002890053 -0.028251038652918576
vn -0.13052619222005157 0.9679436594388269 0.21458794303666345
vn 0.13052619222005157 -0.9679436594388269 -0.21458794303666345
vn 0 -0.2164396139381029 0.9762960071199335
vn 0 0.2164396139381029 -0.9762960071199335
usemtl m_e6c17ccb-813a-0109-b590-38a37f3f68d7
f 98/289/73 97/290/73 99/291/73 100/292/73
f 103/293/74 101/294/74 102/295/74 104/296/74
f 101/297/75 97/298/75 98/299/75 102/300/75
f 100/301/76 99/302/76 103/303/76 104/304/76
f 99/305/77 97/306/77 101/307/77 103/308/77
f 102/309/78 98/310/78 100/311/78 104/312/78
o mesh
v -0.05339443738341755 0.8989934721883465 -0.08670683001594238
v -0.05339443738341755 0.9057572101239122 -0.11721608023844031
v -0.03299971984903449 0.7477522754010297 -0.12023619611542105
v -0.03299971984903449 0.7545160133365955 -0.15074544633791898
v -0.08437708930134913 0.895011215929315 -0.0875896749738461
v -0.08437708930134913 0.9017749538648807 -0.11809892519634402
v -0.06398237176696607 0.7437700191419983 -0.12111904107332476
v -0.06398237176696607 0.750533757077564 -0.15162829129582267
vt 0.296875 0.359375
vt 0.28125 0.359375
vt 0.28125 0.3125
vt 0.296875 0.3125
vt 0.0625 0.25
vt 0.0625 0.296875
vt 0.046875 0.296875
vt 0.046875 0.25
vt 0.109375 0.21875
vt 0.125 0.21875
vt 0.125 0.234375
vt 0.109375 0.234375
vt 0.28125 0.21875
vt 0.28125 0.234375
vt 0.265625 0.234375
vt 0.265625 0.21875
vt 0.09375 0.25
vt 0.09375 0.296875
vt 0.078125 0.296875
vt 0.078125 0.25
vt 0.125 0.296875
vt 0.109375 0.296875
vt 0.109375 0.25
vt 0.125 0.25
vn 0.9914448613738105 0.1274322002890053 0.028251038652918576
vn -0.9914448613738105 -0.1274322002890053 -0.028251038652918576
vn -0.13052619222005157 0.9679436594388269 0.21458794303666345
vn 0.13052619222005157 -0.9679436594388269 -0.21458794303666345
vn 0 -0.2164396139381029 0.9762960071199335
vn 0 0.2164396139381029 -0.9762960071199335
usemtl m_e6c17ccb-813a-0109-b590-38a37f3f68d7
f 106/313/79 105/314/79 107/315/79 108/316/79
f 111/317/80 109/318/80 110/319/80 112/320/80
f 109/321/81 105/322/81 106/323/81 110/324/81
f 108/325/82 107/326/82 111/327/82 112/328/82
f 107/329/83 105/330/83 109/331/83 111/332/83
f 110/333/84 106/334/84 108/335/84 112/336/84
o mesh
v -0.1153597412192807 0.8910289596702837 -0.08847251993174979
v -0.1153597412192807 0.8977926976058495 -0.11898177015424771
v -0.09496502368489765 0.739787762882967 -0.12200188603122845
v -0.09496502368489765 0.7465515008185327 -0.15251113625372636
v -0.14634239313721228 0.8870467034112522 -0.0893553648896535
v -0.14634239313721228 0.893810441346818 -0.11986461511215142
v -0.1259476756028292 0.7358055066239355 -0.12288473098913216
v -0.1259476756028292 0.7425692445595012 -0.1533939812116301
vt 0.296875 0.296875
vt 0.28125 0.296875
vt 0.28125 0.25
vt 0.296875 0.25
vt 0.515625 0.25
vt 0.515625 0.296875
vt 0.5 0.296875
vt 0.5 0.25
vt 0.359375 0.21875
vt 0.375 0.21875
vt 0.375 0.234375
vt 0.359375 0.234375
vt 0.40625 0.21875
vt 0.40625 0.234375
vt 0.390625 0.234375
vt 0.390625 0.21875
vt 0.546875 0.25
vt 0.546875 0.296875
vt 0.53125 0.296875
vt 0.53125 0.25
vt 0.578125 0.296875
vt 0.5625 0.296875
vt 0.5625 0.25
vt 0.578125 0.25
vn 0.9914448613738105 0.1274322002890053 0.028251038652918576
vn -0.9914448613738105 -0.1274322002890053 -0.028251038652918576
vn -0.13052619222005157 0.9679436594388269 0.21458794303666345
vn 0.13052619222005157 -0.9679436594388269 -0.21458794303666345
vn 0 -0.2164396139381029 0.9762960071199335
vn 0 0.2164396139381029 -0.9762960071199335
usemtl m_e6c17ccb-813a-0109-b590-38a37f3f68d7
f 114/337/85 113/338/85 115/339/85 116/340/85
f 119/341/86 117/342/86 118/343/86 120/344/86
f 117/345/87 113/346/87 114/347/87 118/348/87
f 116/349/88 115/350/88 119/351/88 120/352/88
f 115/353/89 113/354/89 117/355/89 119/356/89
f 118/357/90 114/358/90 116/359/90 120/360/90
o mesh
v -0.025666280903821934 0.8102398822454722 -0.10638302719667772
v -0.025666280903821934 0.8170036201810379 -0.13689227741917565
v -0.021587337396945322 0.7799916428880088 -0.11308890041657345
v -0.021587337396945322 0.7867553808235745 -0.1435981506390714
v -0.14959688857554823 0.7943108572093465 -0.10991440702829254
v -0.14959688857554823 0.8010745951449122 -0.14042365725079045
v -0.1455179450686716 0.7640626178518831 -0.11662028024818827
v -0.1455179450686716 0.7708263557874488 -0.1471295304706862
vt 0.4375 0.234375
vt 0.421875 0.234375
vt 0.421875 0.21875
vt 0.4375 0.21875
vt 0.46875 0.21875
vt 0.46875 0.234375
vt 0.453125 0.234375
vt 0.453125 0.21875
vt 0.75 0.5625
vt 0.78125 0.5625
vt 0.78125 0.578125
vt 0.75 0.578125
vt 0.78125 0.53125
vt 0.78125 0.546875
vt 0.75 0.546875
vt 0.75 0.53125
vt 0.75 0.234375
vt 0.75 0.25
vt 0.71875 0.25
vt 0.71875 0.234375
vt 0.0625 0.234375
vt 0.03125 0.234375
vt 0.03125 0.21875
vt 0.0625 0.21875
vn 0.9914448613738105 0.1274322002890053 0.028251038652918576
vn -0.9914448613738105 -0.1274322002890053 -0.028251038652918576
vn -0.13052619222005157 0.9679436594388269 0.21458794303666345
vn 0.13052619222005157 -0.9679436594388269 -0.21458794303666345
vn 0 -0.2164396139381029 0.9762960071199335
vn 0 0.2164396139381029 -0.9762960071199335
usemtl m_e6c17ccb-813a-0109-b590-38a37f3f68d7
f 122/361/91 121/362/91 123/363/91 124/364/91
f 127/365/92 125/366/92 126/367/92 128/368/92
f 125/369/93 121/370/93 122/371/93 126/372/93
f 124/373/94 123/374/94 127/375/94 128/376/94
f 123/377/95 121/378/95 125/379/95 127/380/95
f 126/381/96 122/382/96 124/383/96 128/384/96