# Made in Blockbench 5.2.1
mtllib trophy_css.mtl

o mesh
v 0.4375 0.0625 0.375
v 0.4375 0.0625 -0.375
v 0.4375 0 0.375
v 0.4375 0 -0.375
v -0.4375 0.0625 0.375
v -0.4375 0.0625 -0.375
v -0.4375 0 0.375
v -0.4375 0 -0.375
vt 0.8125 0.34375
vt 0.625 0.34375
vt 0.625 0.328125
vt 0.8125 0.328125
vt 0.1875 0.3125
vt 0.1875 0.328125
vt 0 0.328125
vt 0 0.3125
vt 0.234375 0.8125
vt 0.453125 0.8125
vt 0.453125 1
vt 0.234375 1
vt 0.453125 0.609375
vt 0.453125 0.796875
vt 0.234375 0.796875
vt 0.234375 0.609375
vt 0.859375 0.921875
vt 0.859375 0.9375
vt 0.640625 0.9375
vt 0.640625 0.921875
vt 0.859375 0.90625
vt 0.640625 0.90625
vt 0.640625 0.890625
vt 0.859375 0.890625
vn 1 0 0
vn -1 0 0
vn 0 1 0
vn 0 -1 0
vn 0 0 1
vn 0 0 -1
usemtl m_4e24e0c5-5a4d-4c17-e437-2360f0f6f475
f 2/1/1 1/2/1 3/3/1 4/4/1
f 7/5/2 5/6/2 6/7/2 8/8/2
f 5/9/3 1/10/3 2/11/3 6/12/3
f 4/13/4 3/14/4 7/15/4 8/16/4
f 3/17/5 1/18/5 5/19/5 7/20/5
f 6/21/6 2/22/6 4/23/6 8/24/6
o mesh
v 0.375 0.375 0.3125
v 0.375 0.375 -0.3125
v 0.375 0.0625 0.3125
v 0.375 0.0625 -0.3125
v -0.375 0.375 0.3125
v -0.375 0.375 -0.3125
v -0.375 0.0625 0.3125
v -0.375 0.0625 -0.3125
vt 0.15625 0.421875
vt 0 0.421875
vt 0 0.34375
vt 0.15625 0.34375
vt 0.328125 0.34375
vt 0.328125 0.421875
vt 0.171875 0.421875
vt 0.171875 0.34375
vt 0 0.4375
vt 0.1875 0.4375
vt 0.1875 0.59375
vt 0 0.59375
vt 0.390625 0.4375
vt 0.390625 0.59375
vt 0.203125 0.59375
vt 0.203125 0.4375
vt 0.65625 0.71875
vt 0.65625 0.796875
vt 0.46875 0.796875
vt 0.46875 0.71875
vt 0.65625 0.703125
vt 0.46875 0.703125
vt 0.46875 0.625
vt 0.65625 0.625
vn 1 0 0
vn -1 0 0
vn 0 1 0
vn 0 -1 0
vn 0 0 1
vn 0 0 -1
usemtl m_4e24e0c5-5a4d-4c17-e437-2360f0f6f475
f 10/25/7 9/26/7 11/27/7 12/28/7
f 15/29/8 13/30/8 14/31/8 16/32/8
f 13/33/9 9/34/9 10/35/9 14/36/9
f 12/37/10 11/38/10 15/39/10 16/40/10
f 11/41/11 9/42/11 13/43/11 15/44/11
f 14/45/12 10/46/12 12/47/12 16/48/12
o mesh
v 0.4375 0.4375 0.375
v 0.4375 0.4375 -0.375
v 0.4375 0.375 0.375
v 0.4375 0.375 -0.375
v -0.4375 0.4375 0.375
v -0.4375 0.4375 -0.375
v -0.4375 0.375 0.375
v -0.4375 0.375 -0.375
vt 0.828125 0.875
vt 0.640625 0.875
vt 0.640625 0.859375
vt 0.828125 0.859375
vt 0.828125 0.828125
vt 0.828125 0.84375
vt 0.640625 0.84375
vt 0.640625 0.828125
vt 0 0.8125
vt 0.21875 0.8125
vt 0.21875 1
vt 0 1
vt 0.21875 0.609375
vt 0.21875 0.796875
vt 0 0.796875
vt 0 0.609375
vt 0.859375 0.984375
vt 0.859375 1
vt 0.640625 1
vt 0.640625 0.984375
vt 0.859375 0.96875
vt 0.640625 0.96875
vt 0.640625 0.953125
vt 0.859375 0.953125
vn 1 0 0
vn -1 0 0
vn 0 1 0
vn 0 -1 0
vn 0 0 1
vn 0 0 -1
usemtl m_4e24e0c5-5a4d-4c17-e437-2360f0f6f475
f 18/49/13 17/50/13 19/51/13 20/52/13
f 23/53/14 21/54/14 22/55/14 24/56/14
f 21/57/15 17/58/15 18/59/15 22/60/15
f 20/61/16 19/62/16 23/63/16 24/64/16
f 19/65/17 17/66/17 21/67/17 23/68/17
f 22/69/18 18/70/18 20/71/18 24/72/18
o mesh
v 0.25 0.3125 -0.3125
v 0.25 0.3125 -0.375
v 0.25 0.125 -0.3125
v 0.25 0.125 -0.375
v -0.25 0.3125 -0.3125
v -0.25 0.3125 -0.375
v -0.25 0.125 -0.3125
v -0.25 0.125 -0.375
vt 0.140625 0.171875
vt 0.125 0.171875
vt 0.125 0.125
vt 0.140625 0.125
vt 0.171875 0.125
vt 0.171875 0.171875
vt 0.15625 0.171875
vt 0.15625 0.125
vt 0 0.28125
vt 0.125 0.28125
vt 0.125 0.296875
vt 0 0.296875
vt 0.84375 0.59375
vt 0.84375 0.609375
vt 0.71875 0.609375
vt 0.71875 0.59375
vt 0.703125 0.5625
vt 0.703125 0.609375
vt 0.578125 0.609375
vt 0.578125 0.5625
vt 0.703125 0.546875
vt 0.578125 0.546875
vt 0.578125 0.5
vt 0.703125 0.5
vn 1 0 0
vn -1 0 0
vn 0 1 0
vn 0 -1 0
vn 0 0 1
vn 0 0 -1
usemtl m_4e24e0c5-5a4d-4c17-e437-2360f0f6f475
f 26/73/19 25/74/19 27/75/19 28/76/19
f 31/77/20 29/78/20 30/79/20 32/80/20
f 29/81/21 25/82/21 26/83/21 30/84/21
f 28/85/22 27/86/22 31/87/22 32/88/22
f 27/89/23 25/90/23 29/91/23 31/92/23
f 30/93/24 26/94/24 28/95/24 32/96/24
o mesh
v 0.0625 0.625 0.0625
v 0.0625 0.625 -0.0625
v 0.0625 0.4375 0.0625
v 0.0625 0.4375 -0.0625
v -0.0625 0.625 0.0625
v -0.0625 0.625 -0.0625
v -0.0625 0.4375 0.0625
v -0.0625 0.4375 -0.0625
vt 0.484375 0.296875
vt 0.453125 0.296875
vt 0.453125 0.25
vt 0.484375 0.25
vt 0.75 0.53125
vt 0.75 0.578125
vt 0.71875 0.578125
vt 0.71875 0.53125
vt 0.453125 0.203125
vt 0.484375 0.203125
vt 0.484375 0.234375
vt 0.453125 0.234375
vt 0.359375 0.1875
vt 0.359375 0.21875
vt 0.328125 0.21875
vt 0.328125 0.1875
vt 0.59375 0.234375
vt 0.59375 0.28125
vt 0.5625 0.28125
vt 0.5625 0.234375
vt 0.71875 0.28125
vt 0.6875 0.28125
vt 0.6875 0.234375
vt 0.71875 0.234375
vn 1 0 0
vn -1 0 0
vn 0 1 0
vn 0 -1 0
vn 0 0 1
vn 0 0 -1
usemtl m_4e24e0c5-5a4d-4c17-e437-2360f0f6f475
f 34/97/25 33/98/25 35/99/25 36/100/25
f 39/101/26 37/102/26 38/103/26 40/104/26
f 37/105/27 33/106/27 34/107/27 38/108/27
f 36/109/28 35/110/28 39/111/28 40/112/28
f 35/113/29 33/114/29 37/115/29 39/116/29
f 38/117/30 34/118/30 36/119/30 40/120/30
o mesh
v 0.3125 1.3649636714959696 0.11471575972876627
v 0.3125 1.386669693704336 -0.008385209397759733
v 0.3125 0.6263578567368137 -0.015520373521431478
v 0.3125 0.6480638789451799 -0.13862134264795747
v -0.3125 1.3649636714959696 0.11471575972876627
v -0.3125 1.386669693704336 -0.008385209397759733
v -0.3125 0.6263578567368137 -0.015520373521431478
v -0.3125 0.6480638789451799 -0.13862134264795747
vt 0.375 0.421875
vt 0.34375 0.421875
vt 0.34375 0.234375
vt 0.375 0.234375
vt 0.609375 0.296875
vt 0.609375 0.484375
vt 0.578125 0.484375
vt 0.578125 0.296875
vt 0.390625 0.359375
vt 0.546875 0.359375
vt 0.546875 0.390625
vt 0.390625 0.390625
vt 0.78125 0.453125
vt 0.78125 0.484375
vt 0.625 0.484375
vt 0.625 0.453125
vt 0.5625 0.40625
vt 0.5625 0.59375
vt 0.40625 0.59375
vt 0.40625 0.40625
vt 0.625 1
vt 0.46875 1
vt 0.46875 0.8125
vt 0.625 0.8125
vn 1 0 0
vn -1 0 0
vn 0 0.984807753012208 0.17364817766693033
vn 0 -0.984807753012208 -0.17364817766693033
vn 0 -0.17364817766693033 0.984807753012208
vn 0 0.17364817766693033 -0.984807753012208
usemtl m_4e24e0c5-5a4d-4c17-e437-2360f0f6f475
f 42/121/31 41/122/31 43/123/31 44/124/31
f 47/125/32 45/126/32 46/127/32 48/128/32
f 45/129/33 41/130/33 42/131/33 46/132/33
f 44/133/34 43/134/34 47/135/34 48/136/34
f 43/137/35 41/138/35 45/139/35 47/140/35
f 46/141/36 42/142/36 44/143/36 48/144/36
o mesh
v 0.3410954798829348 1.3231616964869768 -0.019583382797938448
v 0.3410954798829348 1.3340147075911597 -0.08113386736120144
v 0.3111071510692663 0.6467507729422522 -0.138852878664804
v 0.3111071510692663 0.6576037840464354 -0.200403363228067
v 0.2786549660340687 1.3258464909156658 -0.01910998110250478
v 0.2786549660340687 1.336699502019849 -0.08066046566576777
v 0.2486666372204002 0.6494355673709413 -0.13837947696937036
v 0.2486666372204002 0.6602885784751245 -0.19992996153263337
vt 0.515625 0.34375
vt 0.5 0.34375
vt 0.5 0.171875
vt 0.515625 0.171875
vt 0.546875 0.171875
vt 0.546875 0.34375
vt 0.53125 0.34375
vt 0.53125 0.171875
vt 0.09375 0.125
vt 0.109375 0.125
vt 0.109375 0.140625
vt 0.09375 0.140625
vt 0.609375 0.125
vt 0.609375 0.140625
vt 0.59375 0.140625
vt 0.59375 0.125
vt 0.21875 0.15625
vt 0.21875 0.328125
vt 0.203125 0.328125
vt 0.203125 0.15625
vt 0.25 0.328125
vt 0.234375 0.328125
vt 0.234375 0.15625
vt 0.25 0.15625
vn 0.9990482215818579 -0.04295671085902565 -0.007574427126938524
vn -0.9990482215818579 0.04295671085902565 0.007574427126938524
vn 0.043619387365336 0.9838704342468719 0.1734829030790772
vn -0.043619387365336 -0.9838704342468719 -0.1734829030790772
vn 8.673617379884035e-19 -0.17364817766693033 0.9848077530122081
vn -8.673617379884035e-19 0.17364817766693033 -0.9848077530122081
usemtl m_4e24e0c5-5a4d-4c17-e437-2360f0f6f475
f 50/145/37 49/146/37 51/147/37 52/148/37
f 55/149/38 53/150/38 54/151/38 56/152/38
f 53/153/39 49/154/39 50/155/39 54/156/39
f 52/157/40 51/158/40 55/159/40 56/160/40
f 51/161/41 49/162/41 53/163/41 55/164/41
f 54/165/42 50/166/42 52/167/42 56/168/42
o mesh
v -0.2786549660340687 1.3258464909156658 -0.01910998110250478
v -0.2786549660340687 1.336699502019849 -0.08066046566576777
v -0.2486666372204002 0.6494355673709413 -0.13837947696937036
v -0.2486666372204002 0.6602885784751245 -0.19992996153263337
v -0.3410954798829348 1.3231616964869768 -0.019583382797938448
v -0.3410954798829348 1.3340147075911597 -0.08113386736120144
v -0.3111071510692663 0.6467507729422522 -0.138852878664804
v -0.3111071510692663 0.6576037840464354 -0.200403363228067
vt 0.28125 0.328125
vt 0.265625 0.328125
vt 0.265625 0.15625
vt 0.28125 0.15625
vt 0.3125 0.15625
vt 0.3125 0.328125
vt 0.296875 0.328125
vt 0.296875 0.15625
vt 0.6875 0.125
vt 0.703125 0.125
vt 0.703125 0.140625
vt 0.6875 0.140625
vt 0.890625 0.921875
vt 0.890625 0.9375
vt 0.875 0.9375
vt 0.875 0.921875
vt 0.640625 0.140625
vt 0.640625 0.3125
vt 0.625 0.3125
vt 0.625 0.140625
vt 0.671875 0.3125
vt 0.65625 0.3125
vt 0.65625 0.140625
vt 0.671875 0.140625
vn 0.9990482215818579 0.04295671085902565 0.007574427126938524
vn -0.9990482215818579 -0.04295671085902565 -0.007574427126938524
vn -0.043619387365336 0.9838704342468719 0.1734829030790772
vn 0.043619387365336 -0.9838704342468719 -0.1734829030790772
vn -8.673617379884035e-19 -0.17364817766693033 0.9848077530122081
vn 8.673617379884035e-19 0.17364817766693033 -0.9848077530122081
usemtl m_4e24e0c5-5a4d-4c17-e437-2360f0f6f475
f 58/169/43 57/170/43 59/171/43 60/172/43
f 63/173/44 61/174/44 62/175/44 64/176/44
f 61/177/45 57/178/45 58/179/45 62/180/45
f 60/181/46 59/182/46 63/183/46 64/184/46
f 59/185/47 57/186/47 61/187/47 63/188/47
f 62/189/48 58/190/48 60/191/48 64/192/48
o mesh
v 0.1875 0.9250410594798635 -0.08978279267913342
v 0.1875 0.9358940705840466 -0.15133327724239642
v 0.1875 0.771164848071706 -0.11691532043959128
v 0.1875 0.7820178591758892 -0.17846580500285428
v 0.125 0.9250410594798635 -0.08978279267913342
v 0.125 0.9358940705840466 -0.15133327724239642
v 0.125 0.771164848071706 -0.11691532043959128
v 0.125 0.7820178591758892 -0.17846580500285428
vt 0.34375 0.171875
vt 0.328125 0.171875
vt 0.328125 0.125
vt 0.34375 0.125
vt 0.375 0.125
vt 0.375 0.171875
vt 0.359375 0.171875
vt 0.359375 0.125
vt 0.875 0.5625
vt 0.890625 0.5625
vt 0.890625 0.578125
vt 0.875 0.578125
vt 0.890625 0.53125
vt 0.890625 0.546875
vt 0.875 0.546875
vt 0.875 0.53125
vt 0.40625 0.125
vt 0.40625 0.171875
vt 0.390625 0.171875
vt 0.390625 0.125
vt 0.4375 0.171875
vt 0.421875 0.171875
vt 0.421875 0.125
vt 0.4375 0.125
vn 1 0 0
vn -1 0 0
vn 0 0.984807753012208 0.17364817766693033
vn 0 -0.984807753012208 -0.17364817766693033
vn 0 -0.17364817766693033 0.984807753012208
vn 0 0.17364817766693033 -0.984807753012208
usemtl m_4e24e0c5-5a4d-4c17-e437-2360f0f6f475
f 66/193/49 65/194/49 67/195/49 68/196/49
f 71/197/50 69/198/50 70/199/50 72/200/50
f 69/201/51 65/202/51 66/203/51 70/204/51
f 68/205/52 67/206/52 71/207/52 72/208/52
f 67/209/53 65/210/53 69/211/53 71/212/53
f 70/213/54 66/214/54 68/215/54 72/216/54
o mesh
v -0.125 1.017366786324758 -0.07350327602285872
v -0.125 1.028219797428941 -0.13505376058612173
v -0.125 0.8019400903533375 -0.11148881488749973
v -0.125 0.8127931014575206 -0.17303929945076274
v -0.1875 1.017366786324758 -0.07350327602285872
v -0.1875 1.028219797428941 -0.13505376058612173
v -0.1875 0.8019400903533375 -0.11148881488749973
v -0.1875 0.8127931014575206 -0.17303929945076274
vt 0.125 0.265625
vt 0.109375 0.265625
vt 0.109375 0.203125
vt 0.125 0.203125
vt 0.578125 0.15625
vt 0.578125 0.21875
vt 0.5625 0.21875
vt 0.5625 0.15625
vt 0.875 0.5
vt 0.890625 0.5
vt 0.890625 0.515625
vt 0.875 0.515625
vt 0.515625 0.109375
vt 0.515625 0.125
vt 0.5 0.125
vt 0.5 0.109375
vt 0.609375 0.15625
vt 0.609375 0.21875
vt 0.59375 0.21875
vt 0.59375 0.15625
vt 0.703125 0.21875
vt 0.6875 0.21875
vt 0.6875 0.15625
vt 0.703125 0.15625
vn 1 0 0
vn -1 0 0
vn 0 0.984807753012208 0.17364817766693033
vn 0 -0.984807753012208 -0.17364817766693033
vn 0 -0.17364817766693033 0.984807753012208
vn 0 0.17364817766693033 -0.984807753012208
usemtl m_4e24e0c5-5a4d-4c17-e437-2360f0f6f475
f 74/217/55 73/218/55 75/219/55 76/220/55
f 79/221/56 77/222/56 78/223/56 80/224/56
f 77/225/57 73/226/57 74/227/57 78/228/57
f 76/229/58 75/230/58 79/231/58 80/232/58
f 75/233/59 73/234/59 77/235/59 79/236/59
f 78/237/60 74/238/60 76/239/60 80/240/60
o mesh
v 0.03294918758865409 0.7838753787626851 -0.11467411093964867
v 0.03294918758865409 0.7947283898668682 -0.17622459550291167
v 0.016772997269746542 0.7244221761024228 -0.12515731465818122
v 0.016772997269746542 0.7352751872066059 -0.1867077992214442
v -0.17834708691207962 0.8396319105035992 -0.1048427300429976
v -0.17834708691207962 0.8504849216077823 -0.1663932146062606
v -0.19452327723098717 0.7801787078433369 -0.11532593376153014
v -0.19452327723098717 0.79103171894752 -0.17687641832479314
vt 0.734375 0.125
vt 0.71875 0.125
vt 0.71875 0.109375
vt 0.734375 0.109375
vt 0.765625 0.109375
vt 0.765625 0.125
vt 0.75 0.125
vt 0.75 0.109375
vt 0.78125 0.359375
vt 0.84375 0.359375
vt 0.84375 0.375
vt 0.78125 0.375
vt 0.78125 0.203125
vt 0.78125 0.21875
vt 0.71875 0.21875
vt 0.71875 0.203125
vt 0.0625 0.1875
vt 0.0625 0.203125
vt 0 0.203125
vt 0 0.1875
vt 0.859375 0.484375
vt 0.796875 0.484375
vt 0.796875 0.46875
vt 0.859375 0.46875
vn 0.9659258262890684 -0.2548870022441788 -0.04494345552754778
vn -0.9659258262890684 0.2548870022441788 0.04494345552754778
vn 0.25881904510252074 0.9512512425641979 0.16773125949652065
vn -0.25881904510252074 -0.9512512425641979 -0.16773125949652065
vn 0 -0.1736481776669304 0.9848077530122082
vn 0 0.1736481776669304 -0.9848077530122082
usemtl m_4e24e0c5-5a4d-4c17-e437-2360f0f6f475
f 82/241/61 81/242/61 83/243/61 84/244/61
f 87/245/62 85/246/62 86/247/62 88/248/62
f 85/249/63 81/250/63 82/251/63 86/252/63
f 84/253/64 83/254/64 87/255/64 88/256/64
f 83/257/65 81/258/65 85/259/65 87/260/65
f 86/261/66 82/262/66 84/263/66 88/264/66
o mesh
v 0.17302299726974654 0.8332951411818049 -0.1059600734449556
v 0.17302299726974654 0.844148152285988 -0.1675105580082186
v 0.1891991875886541 0.7738419385215426 -0.11644327716348815
v 0.1891991875886541 0.7846949496257257 -0.17799376172675113
v -0.038273277230987154 0.7775386094408908 -0.11579145434160668
v -0.038273277230987154 0.788391620545074 -0.17734193890486968
v -0.02209708691207961 0.7180854067806285 -0.1262746580601392
v -0.02209708691207961 0.7289384178848116 -0.18782514262340222
vt 0.796875 0.125
vt 0.78125 0.125
vt 0.78125 0.109375
vt 0.796875 0.109375
vt 0.890625 0.203125
vt 0.890625 0.21875
vt 0.875 0.21875
vt 0.875 0.203125
vt 0.796875 0.203125
vt 0.859375 0.203125
vt 0.859375 0.21875
vt 0.796875 0.21875
vt 0.78125 0.171875
vt 0.78125 0.1875
vt 0.71875 0.1875
vt 0.71875 0.171875
vt 0.859375 0.171875
vt 0.859375 0.1875
vt 0.796875 0.1875
vt 0.796875 0.171875
vt 0.0625 0.171875
vt 0 0.171875
vt 0 0.15625
vt 0.0625 0.15625
vn 0.9659258262890684 0.2548870022441788 0.04494345552754778
vn -0.9659258262890684 -0.2548870022441788 -0.04494345552754778
vn -0.25881904510252074 0.9512512425641979 0.16773125949652065
vn 0.25881904510252074 -0.9512512425641979 -0.16773125949652065
vn 0 -0.1736481776669304 0.9848077530122082
vn 0 0.1736481776669304 -0.9848077530122082
usemtl m_4e24e0c5-5a4d-4c17-e437-2360f0f6f475
f 90/265/67 89/266/67 91/267/67 92/268/67
f 95/269/68 93/270/68 94/271/68 96/272/68
f 93/273/69 89/274/69 90/275/69 94/276/69
f 92/277/70 91/278/70 95/279/70 96/280/70
f 91/281/71 89/282/71 93/283/71 95/284/71
f 94/285/72 90/286/72 92/287/72 96/288/72
o mesh
v 0.34375 1.386669693704335 -0.008385209397760038
v 0.34375 1.3975227048085181 -0.06993569396102305
v 0.34375 1.325119209141072 -0.019238220501943182
v 0.34375 1.335972220245255 -0.08078870506520619
v -0.34375 1.386669693704335 -0.008385209397760038
v -0.34375 1.3975227048085181 -0.06993569396102305
v -0.34375 1.325119209141072 -0.019238220501943182
v -0.34375 1.335972220245255 -0.08078870506520619
vt 0.828125 0.125
vt 0.8125 0.125
vt 0.8125 0.109375
vt 0.828125 0.109375
vt 0.890625 0.171875
vt 0.890625 0.1875
vt 0.875 0.1875
vt 0.875 0.171875
vt 0.671875 0.75
vt 0.84375 0.75
vt 0.84375 0.765625
vt 0.671875 0.765625
vt 0.84375 0.71875
vt 0.84375 0.734375
vt 0.671875 0.734375
vt 0.671875 0.71875
vt 0.84375 0.6875
vt 0.84375 0.703125
vt 0.671875 0.703125
vt 0.671875 0.6875
vt 0.84375 0.671875
vt 0.671875 0.671875
vt 0.671875 0.65625
vt 0.84375 0.65625
vn 1 0 0
vn -1 0 0
vn 0 0.984807753012208 0.17364817766693033
vn 0 -0.984807753012208 -0.17364817766693033
vn 0 -0.17364817766693033 0.984807753012208
vn 0 0.17364817766693033 -0.984807753012208
usemtl m_4e24e0c5-5a4d-4c17-e437-2360f0f6f475
f 98/289/73 97/290/73 99/291/73 100/292/73
f 103/293/74 101/294/74 102/295/74 104/296/74
f 101/297/75 97/298/75 98/299/75 102/300/75
f 100/301/76 99/302/76 103/303/76 104/304/76
f 99/305/77 97/306/77 101/307/77 103/308/77
f 102/309/78 98/310/78 100/311/78 104/312/78
o mesh
v 0.28125 0.6263578567368131 -0.015520373521431596
v 0.28125 0.6480638789451794 -0.13862134264795758
v 0.28125 0.5648073721735501 -0.026373384625614726
v 0.28125 0.5865133943819164 -0.14947435375214074
v -0.28125 0.6263578567368131 -0.015520373521431596
v -0.28125 0.6480638789451794 -0.13862134264795758
v -0.28125 0.5648073721735501 -0.026373384625614726
v -0.28125 0.5865133943819164 -0.14947435375214074
vt 0.859375 0.640625
vt 0.828125 0.640625
vt 0.828125 0.625
vt 0.859375 0.625
vt 0.859375 0.5
vt 0.859375 0.515625
vt 0.828125 0.515625
vt 0.828125 0.5
vt 0.625 0.40625
vt 0.765625 0.40625
vt 0.765625 0.4375
vt 0.625 0.4375
vt 0.765625 0.359375
vt 0.765625 0.390625
vt 0.625 0.390625
vt 0.625 0.359375
vt 0.8125 0.625
vt 0.8125 0.640625
vt 0.671875 0.640625
vt 0.671875 0.625
vt 0.828125 0.3125
vt 0.6875 0.3125
vt 0.6875 0.296875
vt 0.828125 0.296875
vn 1 0 0
vn -1 0 0
vn 0 0.984807753012208 0.17364817766693033
vn 0 -0.984807753012208 -0.17364817766693033
vn 0 -0.17364817766693033 0.984807753012208
vn 0 0.17364817766693033 -0.984807753012208
usemtl m_4e24e0c5-5a4d-4c17-e437-2360f0f6f475
f 106/313/79 105/314/79 107/315/79 108/316/79
f 111/317/80 109/318/80 110/319/80 112/320/80
f 109/321/81 105/322/81 106/323/81 110/324/81
f 108/325/82 107/326/82 111/327/82 112/328/82
f 107/329/83 105/330/83 109/331/83 111/332/83
f 110/333/84 106/334/84 108/335/84 112/336/84
o mesh
v 0.3125 0.6480638789451794 -0.13862134264795767
v 0.3125 0.6589168900493625 -0.20017182721122068
v 0.3125 0.5865133943819164 -0.14947435375214083
v 0.3125 0.5973664054860995 -0.21102483831540383
v 0.1875 0.6480638789451794 -0.13862134264795767
v 0.1875 0.6589168900493625 -0.20017182721122068
v 0.1875 0.5865133943819164 -0.14947435375214083
v 0.1875 0.5973664054860995 -0.21102483831540383
vt 0.859375 0.125
vt 0.84375 0.125
vt 0.84375 0.109375
vt 0.859375 0.109375
vt 0.890625 0.109375
vt 0.890625 0.125
vt 0.875 0.125
vt 0.875 0.109375
vt 0.828125 0.328125
vt 0.859375 0.328125
vt 0.859375 0.34375
vt 0.828125 0.34375
vt 0.875 0.859375
vt 0.875 0.875
vt 0.84375 0.875
vt 0.84375 0.859375
vt 0.875 0.828125
vt 0.875 0.84375
vt 0.84375 0.84375
vt 0.84375 0.828125
vt 0.53125 0.15625
vt 0.5 0.15625
vt 0.5 0.140625
vt 0.53125 0.140625
vn 1 0 0
vn -1 0 0
vn 0 0.984807753012208 0.17364817766693033
vn 0 -0.984807753012208 -0.17364817766693033
vn 0 -0.17364817766693033 0.984807753012208
vn 0 0.17364817766693033 -0.984807753012208
usemtl m_4e24e0c5-5a4d-4c17-e437-2360f0f6f475
f 114/337/85 113/338/85 115/339/85 116/340/85
f 119/341/86 117/342/86 118/343/86 120/344/86
f 117/345/87 113/346/87 114/347/87 118/348/87
f 116/349/88 115/350/88 119/351/88 120/352/88
f 115/353/89 113/354/89 117/355/89 119/356/89
f 118/357/90 114/358/90 116/359/90 120/360/90
o mesh
v -0.0625 0.5865133943819165 -0.14947435375214085
v -0.0625 0.5973664054860996 -0.21102483831540383
v -0.0625 0.5249629098186535 -0.16032736485632398
v -0.0625 0.5358159209228366 -0.221877849419587
v -0.1875 0.5865133943819165 -0.14947435375214085
v -0.1875 0.5973664054860996 -0.21102483831540383
v -0.1875 0.5249629098186535 -0.16032736485632398
v -0.1875 0.5358159209228366 -0.221877849419587
vt 0.015625 0.109375
vt 0 0.109375
vt 0 0.09375
vt 0.015625 0.09375
vt 0.046875 0.09375
vt 0.046875 0.109375
vt 0.03125 0.109375
vt 0.03125 0.09375
vt 0.84375 0.296875
vt 0.875 0.296875
vt 0.875 0.3125
vt 0.84375 0.3125
vt 0.75 0.140625
vt 0.75 0.15625
vt 0.71875 0.15625
vt 0.71875 0.140625
vt 0.875 0.265625
vt 0.875 0.28125
vt 0.84375 0.28125
vt 0.84375 0.265625
vt 0.875 0.25
vt 0.84375 0.25
vt 0.84375 0.234375
vt 0.875 0.234375
vn 1 0 0
vn -1 0 0
vn 0 0.984807753012208 0.17364817766693033
vn 0 -0.984807753012208 -0.17364817766693033
vn 0 -0.17364817766693033 0.984807753012208
vn 0 0.17364817766693033 -0.984807753012208
usemtl m_4e24e0c5-5a4d-4c17-e437-2360f0f6f475
f 122/361/91 121/362/91 123/363/91 124/364/91
f 127/365/92 125/366/92 126/367/92 128/368/92
f 125/369/93 121/370/93 122/371/93 126/372/93
f 124/373/94 123/374/94 127/375/94 128/376/94
f 123/377/95 121/378/95 125/379/95 127/380/95
f 126/381/96 122/382/96 124/383/96 128/384/96
o mesh
v 0.1875 0.5865133943819165 -0.14947435375214085
v 0.1875 0.5973664054860996 -0.21102483831540383
v 0.1875 0.5249629098186535 -0.16032736485632398
v 0.1875 0.5358159209228366 -0.221877849419587
v 0.0625 0.5865133943819165 -0.14947435375214085
v 0.0625 0.5973664054860996 -0.21102483831540383
v 0.0625 0.5249629098186535 -0.16032736485632398
v 0.0625 0.5358159209228366 -0.221877849419587
vt 0.078125 0.109375
vt 0.0625 0.109375
vt 0.0625 0.09375
vt 0.078125 0.09375
vt 0.109375 0.09375
vt 0.109375 0.109375
vt 0.09375 0.109375
vt 0.09375 0.09375
vt 0.765625 0.140625
vt 0.796875 0.140625
vt 0.796875 0.15625
vt 0.765625 0.15625
vt 0.84375 0.140625
vt 0.84375 0.15625
vt 0.8125 0.15625
vt 0.8125 0.140625
vt 0.03125 0.125
vt 0.03125 0.140625
vt 0 0.140625
vt 0 0.125
vt 0.078125 0.140625
vt 0.046875 0.140625
vt 0.046875 0.125
vt 0.078125 0.125
vn 1 0 0
vn -1 0 0
vn 0 0.984807753012208 0.17364817766693033
vn 0 -0.984807753012208 -0.17364817766693033
vn 0 -0.17364817766693033 0.984807753012208
vn 0 0.17364817766693033 -0.984807753012208
usemtl m_4e24e0c5-5a4d-4c17-e437-2360f0f6f475
f 130/385/97 129/386/97 131/387/97 132/388/97
f 135/389/98 133/390/98 134/391/98 136/392/98
f 133/393/99 129/394/99 130/395/99 134/396/99
f 132/397/100 131/398/100 135/399/100 136/400/100
f 131/401/101 129/402/101 133/403/101 135/404/101
f 134/405/102 130/406/102 132/407/102 136/408/102
o mesh
v 0.0625 0.5249629098186535 -0.16032736485632398
v 0.0625 0.5358159209228366 -0.221877849419587
v 0.0625 0.46341242525539045 -0.17118037596050714
v 0.0625 0.4742654363595736 -0.23273086052377015
v -0.0625 0.5249629098186535 -0.16032736485632398
v -0.0625 0.5358159209228366 -0.221877849419587
v -0.0625 0.46341242525539045 -0.17118037596050714
v -0.0625 0.4742654363595736 -0.23273086052377015
vt 0.140625 0.109375
vt 0.125 0.109375
vt 0.125 0.09375
vt 0.140625 0.09375
vt 0.90625 0.859375
vt 0.90625 0.875
vt 0.890625 0.875
vt 0.890625 0.859375
vt 0.1875 0.125
vt 0.21875 0.125
vt 0.21875 0.140625
vt 0.1875 0.140625
vt 0.890625 0.765625
vt 0.890625 0.78125
vt 0.859375 0.78125
vt 0.859375 0.765625
vt 0.265625 0.125
vt 0.265625 0.140625
vt 0.234375 0.140625
vt 0.234375 0.125
vt 0.890625 0.75
vt 0.859375 0.75
vt 0.859375 0.734375
vt 0.890625 0.734375
vn 1 0 0
vn -1 0 0
vn 0 0.984807753012208 0.17364817766693033
vn 0 -0.984807753012208 -0.17364817766693033
vn 0 -0.17364817766693033 0.984807753012208
vn 0 0.17364817766693033 -0.984807753012208
usemtl m_4e24e0c5-5a4d-4c17-e437-2360f0f6f475
f 138/409/103 137/410/103 139/411/103 140/412/103
f 143/413/104 141/414/104 142/415/104 144/416/104
f 141/417/105 137/418/105 138/419/105 142/420/105
f 140/421/106 139/422/106 143/423/106 144/424/106
f 139/425/107 137/426/107 141/427/107 143/428/107
f 142/429/108 138/430/108 140/431/108 144/432/108
o mesh
v -0.1875 0.6480638789451794 -0.13862134264795767
v -0.1875 0.6589168900493625 -0.20017182721122068
v -0.1875 0.5865133943819164 -0.14947435375214083
v -0.1875 0.5973664054860995 -0.21102483831540383
v -0.3125 0.6480638789451794 -0.13862134264795767
v -0.3125 0.6589168900493625 -0.20017182721122068
v -0.3125 0.5865133943819164 -0.14947435375214083
v -0.3125 0.5973664054860995 -0.21102483831540383
vt 0.171875 0.109375
vt 0.15625 0.109375
vt 0.15625 0.09375
vt 0.171875 0.09375
vt 0.90625 0.828125
vt 0.90625 0.84375
vt 0.890625 0.84375
vt 0.890625 0.828125
vt 0.28125 0.125
vt 0.3125 0.125
vt 0.3125 0.140625
vt 0.28125 0.140625
vt 0.890625 0.703125
vt 0.890625 0.71875
vt 0.859375 0.71875
vt 0.859375 0.703125
vt 0.890625 0.671875
vt 0.890625 0.6875
vt 0.859375 0.6875
vt 0.859375 0.671875
vt 0.890625 0.609375
vt 0.859375 0.609375
vt 0.859375 0.59375
vt 0.890625 0.59375
vn 1 0 0
vn -1 0 0
vn 0 0.984807753012208 0.17364817766693033
vn 0 -0.984807753012208 -0.17364817766693033
vn 0 -0.17364817766693033 0.984807753012208
vn 0 0.17364817766693033 -0.984807753012208
usemtl m_4e24e0c5-5a4d-4c17-e437-2360f0f6f475
f 146/433/109 145/434/109 147/435/109 148/436/109
f 151/437/110 149/438/110 150/439/110 152/440/110
f 149/441/111 145/442/111 146/443/111 150/444/111
f 148/445/112 147/446/112 151/447/112 152/448/112
f 147/449/113 145/450/113 149/451/113 151/452/113
f 150/453/114 146/454/114 148/455/114 152/456/114
o mesh
v 0.1875 0.5648073721735501 -0.026373384625614726
v 0.1875 0.5865133943819164 -0.14947435375214072
v 0.1875 0.5032568876102871 -0.037226395729797856
v 0.1875 0.5249629098186535 -0.16032736485632387
v -0.1875 0.5648073721735501 -0.026373384625614726
v -0.1875 0.5865133943819164 -0.14947435375214072
v -0.1875 0.5032568876102871 -0.037226395729797856
v -0.1875 0.5249629098186535 -0.16032736485632387
vt 0.484375 0.140625
vt 0.453125 0.140625
vt 0.453125 0.125
vt 0.484375 0.125
vt 0.578125 0.125
vt 0.578125 0.140625
vt 0.546875 0.140625
vt 0.546875 0.125
vt 0.390625 0.3125
vt 0.484375 0.3125
vt 0.484375 0.34375
vt 0.390625 0.34375
vt 0.765625 0.78125
vt 0.765625 0.8125
vt 0.671875 0.8125
vt 0.671875 0.78125
vt 0.875 0.421875
vt 0.875 0.4375
vt 0.78125 0.4375
vt 0.78125 0.421875
vt 0.875 0.40625
vt 0.78125 0.40625
vt 0.78125 0.390625
vt 0.875 0.390625
vn 1 0 0
vn -1 0 0
vn 0 0.984807753012208 0.17364817766693033
vn 0 -0.984807753012208 -0.17364817766693033
vn 0 -0.17364817766693033 0.984807753012208
vn 0 0.17364817766693033 -0.984807753012208
usemtl m_4e24e0c5-5a4d-4c17-e437-2360f0f6f475
f 154/457/115 153/458/115 155/459/115 156/460/115
f 159/461/116 157/462/116 158/463/116 160/464/116
f 157/465/117 153/466/117 154/467/117 158/468/117
f 156/469/118 155/470/118 159/471/118 160/472/118
f 155/473/119 153/474/119 157/475/119 159/476/119
f 158/477/120 154/478/120 156/479/120 160/480/120
o mesh
v 0.0625 0.5032568876102872 -0.037226395729797884
v 0.0625 0.5249629098186535 -0.16032736485632387
v 0.0625 0.44170640304702413 -0.048079406833981014
v 0.0625 0.4634124252553904 -0.17118037596050703
v -0.0625 0.5032568876102872 -0.037226395729797884
v -0.0625 0.5249629098186535 -0.16032736485632387
v -0.0625 0.44170640304702413 -0.048079406833981014
v -0.0625 0.4634124252553904 -0.17118037596050703
vt 0.890625 0.375
vt 0.859375 0.375
vt 0.859375 0.359375
vt 0.890625 0.359375
vt 0.890625 0.140625
vt 0.890625 0.15625
vt 0.859375 0.15625
vt 0.859375 0.140625
vt 0.078125 0.15625
vt 0.109375 0.15625
vt 0.109375 0.1875
vt 0.078125 0.1875
vt 0.484375 0.15625
vt 0.484375 0.1875
vt 0.453125 0.1875
vt 0.453125 0.15625
vt 0.90625 0.984375
vt 0.90625 1
vt 0.875 1
vt 0.875 0.984375
vt 0.90625 0.96875
vt 0.875 0.96875
vt 0.875 0.953125
vt 0.90625 0.953125
vn 1 0 0
vn -1 0 0
vn 0 0.984807753012208 0.17364817766693033
vn 0 -0.984807753012208 -0.17364817766693033
vn 0 -0.17364817766693033 0.984807753012208
vn 0 0.17364817766693033 -0.984807753012208
usemtl m_4e24e0c5-5a4d-4c17-e437-2360f0f6f475
f 162/481/121 161/482/121 163/483/121 164/484/121
f 167/485/122 165/486/122 166/487/122 168/488/122
f 165/489/123 161/490/123 162/491/123 166/492/123
f 164/493/124 163/494/124 167/495/124 168/496/124
f 163/497/125 161/498/125 165/499/125 167/500/125
f 166/501/126 162/502/126 164/503/126 168/504/126
o mesh
v 0.171875 1.26356872457781 -0.03009123160612613
v 0.171875 1.2744217356819931 -0.09164171616938914
v 0.171875 1.2020182400145472 -0.040944242710309275
v 0.171875 1.21287125111873 -0.10249472727357228
v -0.203125 1.26356872457781 -0.03009123160612613
v -0.203125 1.2744217356819931 -0.09164171616938914
v -0.203125 1.2020182400145472 -0.040944242710309275
v -0.203125 1.21287125111873 -0.10249472727357228
vt 0.890625 0.484375
vt 0.875 0.484375
vt 0.875 0.46875
vt 0.890625 0.46875
vt 0.640625 0.109375
vt 0.640625 0.125
vt 0.625 0.125
vt 0.625 0.109375
vt 0.71875 0.5
vt 0.8125 0.5
vt 0.8125 0.515625
vt 0.71875 0.515625
vt 0.09375 0.25
vt 0.09375 0.265625
vt 0 0.265625
vt 0 0.25
vt 0.828125 0.265625
vt 0.828125 0.28125
vt 0.734375 0.28125
vt 0.734375 0.265625
vt 0.828125 0.25
vt 0.734375 0.25
vt 0.734375 0.234375
vt 0.828125 0.234375
vn 1 0 0
vn -1 0 0
vn 0 0.984807753012208 0.17364817766693033
vn 0 -0.984807753012208 -0.17364817766693033
vn 0 -0.17364817766693033 0.984807753012208
vn 0 0.17364817766693033 -0.984807753012208
usemtl m_4e24e0c5-5a4d-4c17-e437-2360f0f6f475
f 170/505/127 169/506/127 171/507/127 172/508/127
f 175/509/128 173/510/128 174/511/128 176/512/128
f 173/513/129 169/514/129 170/515/129 174/516/129
f 172/517/130 171/518/130 175/519/130 176/520/130
f 171/521/131 169/522/131 173/523/131 175/524/131
f 174/525/132 170/526/132 172/527/132 176/528/132
o mesh
v 0.1875 1.078917270888021 -0.06265026491867558
v 0.1875 1.0897702819922042 -0.12420074948193859
v 0.1875 1.017366786324758 -0.07350327602285872
v 0.1875 1.028219797428941 -0.13505376058612173
v -0.1875 1.078917270888021 -0.06265026491867558
v -0.1875 1.0897702819922042 -0.12420074948193859
v -0.1875 1.017366786324758 -0.07350327602285872
v -0.1875 1.028219797428941 -0.13505376058612173
vt 0.671875 0.125
vt 0.65625 0.125
vt 0.65625 0.109375
vt 0.671875 0.109375
vt 0.890625 0.328125
vt 0.890625 0.34375
vt 0.875 0.34375
vt 0.875 0.328125
vt 0 0.21875
vt 0.09375 0.21875
vt 0.09375 0.234375
vt 0 0.234375
vt 0.859375 0.5625
vt 0.859375 0.578125
vt 0.765625 0.578125
vt 0.765625 0.5625
vt 0.859375 0.53125
vt 0.859375 0.546875
vt 0.765625 0.546875
vt 0.765625 0.53125
vt 0.875 0.8125
vt 0.78125 0.8125
vt 0.78125 0.796875
vt 0.875 0.796875
vn 1 0 0
vn -1 0 0
vn 0 0.984807753012208 0.17364817766693033
vn 0 -0.984807753012208 -0.17364817766693033
vn 0 -0.17364817766693033 0.984807753012208
vn 0 0.17364817766693033 -0.984807753012208
usemtl m_4e24e0c5-5a4d-4c17-e437-2360f0f6f475
f 178/529/133 177/530/133 179/531/133 180/532/133
f 183/533/134 181/534/134 182/535/134 184/536/134
f 181/537/135 177/538/135 178/539/135 182/540/135
f 180/541/136 179/542/136 183/543/136 184/544/136
f 179/545/137 177/546/137 181/547/137 183/548/137
f 182/549/138 178/550/138 180/551/138 184/552/138
o mesh
v -0.17213717879638574 1.2646020010353047 -0.029909037088138954
v -0.17213717879638574 1.2754550121394879 -0.09145952165140195
v 0.18821097218226684 1.079866470243603 -0.0624828954622154
v 0.18821097218226684 1.090719481347786 -0.1240333800254784
v -0.20099646712357538 1.2100060544403215 -0.039535775510152936
v -0.20099646712357538 1.2208590655445046 -0.10108626007341594
v 0.15935168385507723 1.0252705236486197 -0.07210963388422939
v 0.15935168385507723 1.0361235347528028 -0.13366011844749237
vt 0.15625 0.296875
vt 0.140625 0.296875
vt 0.140625 0.1875
vt 0.15625 0.1875
vt 0.1875 0.1875
vt 0.1875 0.296875
vt 0.171875 0.296875
vt 0.171875 0.1875
vt 0.875 0.890625
vt 0.890625 0.890625
vt 0.890625 0.90625
vt 0.875 0.90625
vt 0.890625 0.640625
vt 0.890625 0.65625
vt 0.875 0.65625
vt 0.875 0.640625
vt 0.40625 0.1875
vt 0.40625 0.296875
vt 0.390625 0.296875
vt 0.390625 0.1875
vt 0.4375 0.296875
vt 0.421875 0.296875
vt 0.421875 0.1875
vt 0.4375 0.1875
vn 0.46174861323503386 0.873535145519731 0.15402781475222374
vn -0.46174861323503386 -0.873535145519731 -0.15402781475222374
vn -0.8870108331782218 0.45473361425649694 0.08018180522849588
vn 0.8870108331782218 -0.45473361425649694 -0.08018180522849588
vn 0 -0.17364817766693033 0.984807753012208
vn 0 0.17364817766693033 -0.984807753012208
usemtl m_4e24e0c5-5a4d-4c17-e437-2360f0f6f475
f 186/553/139 185/554/139 187/555/139 188/556/139
f 191/557/140 189/558/140 190/559/140 192/560/140
f 189/561/141 185/562/141 186/563/141 190/564/141
f 188/565/142 187/566/142 191/567/142 192/568/142
f 187/569/143 185/570/143 189/571/143 191/572/143
f 190/573/144 186/574/144 188/575/144 192/576/144