# Made in Blockbench 5.2.1
mtllib laptop.mtl

o mesh
v 0.5 0.0625 0.25
v 0.5 0.0625 -0.5
v 0.5 0 0.25
v 0.5 0 -0.5
v -0.5 0.0625 0.25
v -0.5 0.0625 -0.5
v -0.5 0 0.25
v -0.5 0 -0.5
vt 0.59375 0.53125
vt 0.40625 0.53125
vt 0.40625 0.515625
vt 0.59375 0.515625
vt 0.1875 0.484375
vt 0.1875 0.5
vt 0 0.5
vt 0 0.484375
vt 0.265625 0.8125
vt 0.515625 0.8125
vt 0.515625 1
vt 0.265625 1
vt 0.515625 0.609375
vt 0.515625 0.796875
vt 0.265625 0.796875
vt 0.265625 0.609375
vt 0.25 0.546875
vt 0.25 0.5625
vt 0 0.5625
vt 0 0.546875
vt 0.515625 0.5625
vt 0.265625 0.5625
vt 0.265625 0.546875
vt 0.515625 0.546875
vn 1 0 0
vn -1 0 0
vn 0 1 0
vn 0 -1 0
vn 0 0 1
vn 0 0 -1
usemtl m_c7147eba-9d18-3469-889d-df447b23938f
f 2/1/1 1/2/1 3/3/1 4/4/1
f 7/5/2 5/6/2 6/7/2 8/8/2
f 5/9/3 1/10/3 2/11/3 6/12/3
f 4/13/4 3/14/4 7/15/4 8/16/4
f 3/17/5 1/18/5 5/19/5 7/20/5
f 6/21/6 2/22/6 4/23/6 8/24/6
o mesh
v 0.5 0.02056187052107286 0.27936539439955965
v 0.5 0.725331336110504 0.535880501893811
v 0.5 0.04193812947892714 0.22063460560044038
v 0.5 0.7467075950683584 0.4771497130946917
v -0.5 0.02056187052107286 0.27936539439955965
v -0.5 0.725331336110504 0.535880501893811
v -0.5 0.04193812947892714 0.22063460560044038
v -0.5 0.7467075950683584 0.4771497130946917
vt 0.1875 0.53125
vt 0 0.53125
vt 0 0.515625
vt 0.1875 0.515625
vt 0.390625 0.515625
vt 0.390625 0.53125
vt 0.203125 0.53125
vt 0.203125 0.515625
vt 0 0.8125
vt 0.25 0.8125
vt 0.25 1
vt 0 1
vt 0.25 0.609375
vt 0.25 0.796875
vt 0 0.796875
vt 0 0.609375
vt 0.25 0.578125
vt 0.25 0.59375
vt 0 0.59375
vt 0 0.578125
vt 0.515625 0.59375
vt 0.265625 0.59375
vt 0.265625 0.578125
vt 0.515625 0.578125
vn 1 0 0
vn -1 0 0
vn 0 -0.34202014332566855 0.9396926207859085
vn 0 0.34202014332566855 -0.9396926207859085
vn 0 -0.9396926207859085 -0.34202014332566855
vn 0 0.9396926207859085 0.34202014332566855
usemtl m_c7147eba-9d18-3469-889d-df447b23938f
f 10/25/7 9/26/7 11/27/7 12/28/7
f 15/29/8 13/30/8 14/31/8 16/32/8
f 13/33/9 9/34/9 10/35/9 14/36/9
f 12/37/10 11/38/10 15/39/10 16/40/10
f 11/41/11 9/42/11 13/43/11 15/44/11
f 14/45/12 10/46/12 12/47/12 16/48/12