# Made in Blockbench 5.2.1
mtllib linux_penguin.mtl

o mesh
v 0.25 0.625 0.1875
v 0.25 0.625 -0.1875
v 0.25 0 0.1875
v 0.25 0 -0.1875
v -0.25 0.625 0.1875
v -0.25 0.625 -0.1875
v -0.25 0 0.1875
v -0.25 0 -0.1875
vt 0.09375 0.828125
vt 0 0.828125
vt 0 0.671875
vt 0.09375 0.671875
vt 0.203125 0.671875
vt 0.203125 0.828125
vt 0.109375 0.828125
vt 0.109375 0.671875
vt 0.21875 0.734375
vt 0.34375 0.734375
vt 0.34375 0.828125
vt 0.21875 0.828125
vt 0.40625 0.90625
vt 0.40625 1
vt 0.28125 1
vt 0.28125 0.90625
vt 0.125 0.84375
vt 0.125 1
vt 0 1
vt 0 0.84375
vt 0.265625 1
vt 0.140625 1
vt 0.140625 0.84375
vt 0.265625 0.84375
vn 1 0 0
vn -1 0 0
vn 0 1 0
vn 0 -1 0
vn 0 0 1
vn 0 0 -1
usemtl m_c39313b7-6028-ac84-8ef3-66ef55be3667
f 2/1/1 1/2/1 3/3/1 4/4/1
f 7/5/2 5/6/2 6/7/2 8/8/2
f 5/9/3 1/10/3 2/11/3 6/12/3
f 4/13/4 3/14/4 7/15/4 8/16/4
f 3/17/5 1/18/5 5/19/5 7/20/5
f 6/21/6 2/22/6 4/23/6 8/24/6
o mesh
v 0.1875 1 0.171875
v 0.1875 1 -0.171875
v 0.1875 0.625 0.171875
v 0.1875 0.625 -0.171875
v -0.1875 1 0.171875
v -0.1875 1 -0.171875
v -0.1875 0.625 0.171875
v -0.1875 0.625 -0.171875
vt 0.0859375 0.65625
vt 0 0.65625
vt 0 0.5625
vt 0.0859375 0.5625
vt 0.1953125 0.5625
vt 0.1953125 0.65625
vt 0.109375 0.65625
vt 0.109375 0.5625
vt 0.359375 0.8046875
vt 0.453125 0.8046875
vt 0.453125 0.890625
vt 0.359375 0.890625
vt 0.3125 0.5234375
vt 0.3125 0.609375
vt 0.21875 0.609375
vt 0.21875 0.5234375
vt 0.3125 0.625
vt 0.3125 0.71875
vt 0.21875 0.71875
vt 0.21875 0.625
vt 0.421875 0.71875
vt 0.328125 0.71875
vt 0.328125 0.625
vt 0.421875 0.625
vn 1 0 0
vn -1 0 0
vn 0 1 0
vn 0 -1 0
vn 0 0 1
vn 0 0 -1
usemtl m_c39313b7-6028-ac84-8ef3-66ef55be3667
f 10/25/7 9/26/7 11/27/7 12/28/7
f 15/29/8 13/30/8 14/31/8 16/32/8
f 13/33/9 9/34/9 10/35/9 14/36/9
f 12/37/10 11/38/10 15/39/10 16/40/10
f 11/41/11 9/42/11 13/43/11 15/44/11
f 14/45/12 10/46/12 12/47/12 16/48/12
o mesh
v -0.17142277085948157 0.3838037259894138 -0.3224960884490733
v -0.16238877345619412 0.35898302211646993 -0.3791403251388639
v -0.05518195115218988 0.06443469862473386 -0.16401424029631095
v -0.04614795374890246 0.03961399475178993 -0.22065847698610158
v -0.40634592605595865 0.2982986901579967 -0.3224960884490733
v -0.3973119286526713 0.2734779862850528 -0.3791403251388639
v -0.290105106348667 -0.02107033720668325 -0.16401424029631095
v -0.28107110894537957 -0.04589104107962719 -0.22065847698610158
vt 0.515625 1
vt 0.5 1
vt 0.5 0.90625
vt 0.515625 0.90625
vt 0.265625 0.40625
vt 0.265625 0.5
vt 0.25 0.5
vt 0.25 0.40625
vt 0.515625 0.65625
vt 0.578125 0.65625
vt 0.578125 0.671875
vt 0.515625 0.671875
vt 0.59375 0.90625
vt 0.59375 0.921875
vt 0.53125 0.921875
vt 0.53125 0.90625
vt 0.484375 0.90625
vt 0.484375 1
vt 0.421875 1
vt 0.421875 0.90625
vt 0.140625 0.546875
vt 0.078125 0.546875
vt 0.078125 0.453125
vt 0.140625 0.453125
vn 0.9396926207859086 0.34202014332566855 -1.3877787807814457e-17
vn -0.9396926207859086 -0.34202014332566855 1.3877787807814457e-17
vn -0.3099755192194445 0.8516507396391466 -0.42261826174069955
vn 0.3099755192194445 -0.8516507396391466 0.42261826174069955
vn -0.14454395845259893 0.39713126196710297 0.9063077870366499
vn 0.14454395845259893 -0.39713126196710297 -0.9063077870366499
usemtl m_c39313b7-6028-ac84-8ef3-66ef55be3667
f 18/49/13 17/50/13 19/51/13 20/52/13
f 23/53/14 21/54/14 22/55/14 24/56/14
f 21/57/15 17/58/15 18/59/15 22/60/15
f 20/61/16 19/62/16 23/63/16 24/64/16
f 19/65/17 17/66/17 21/67/17 23/68/17
f 22/69/18 18/70/18 20/71/18 24/72/18
o mesh
v 0.4116226935549523 0.31279648970919355 -0.2558781291331592
v 0.4069960243186734 0.3000848204552319 -0.31689662957815506
v 0.2864053559486631 -0.03123531788831202 -0.17471327390637065
v 0.28177868671238426 -0.04394698714227366 -0.2357317743513665
v 0.17669953835847518 0.39830152554061066 -0.2558781291331592
v 0.17207286912219627 0.38558985628664905 -0.31689662957815506
v 0.05148220075218604 0.054269717943105145 -0.17471327390637065
v 0.04685553151590713 0.041558048689143506 -0.2357317743513665
vt 0.296875 0.5
vt 0.28125 0.5
vt 0.28125 0.40625
vt 0.296875 0.40625
vt 0.53125 0.6875
vt 0.53125 0.78125
vt 0.515625 0.78125
vt 0.515625 0.6875
vt 0.40625 0.453125
vt 0.46875 0.453125
vt 0.46875 0.46875
vt 0.40625 0.46875
vt 0.609375 0.875
vt 0.609375 0.890625
vt 0.546875 0.890625
vt 0.546875 0.875
vt 0.53125 0.796875
vt 0.53125 0.890625
vt 0.46875 0.890625
vt 0.46875 0.796875
vt 0.546875 0.640625
vt 0.484375 0.640625
vt 0.484375 0.546875
vt 0.546875 0.546875
vn 0.9396926207859084 -0.34202014332566866 0
vn -0.9396926207859084 0.34202014332566866 0
vn 0.3339129002834376 0.9174181535933481 -0.21643961393810285
vn -0.3339129002834376 -0.9174181535933481 0.21643961393810285
vn 0.07402670778046233 0.2033867080633861 0.9762960071199334
vn -0.07402670778046233 -0.2033867080633861 -0.9762960071199334
usemtl m_c39313b7-6028-ac84-8ef3-66ef55be3667
f 26/73/19 25/74/19 27/75/19 28/76/19
f 31/77/20 29/78/20 30/79/20 32/80/20
f 29/81/21 25/82/21 26/83/21 30/84/21
f 28/85/22 27/86/22 31/87/22 32/88/22
f 27/89/23 25/90/23 29/91/23 31/92/23
f 30/93/24 26/94/24 28/95/24 32/96/24
o mesh
v 0.09375 0.796875 -0.171875
v 0.09375 0.796875 -0.296875
v 0.09375 0.734375 -0.171875
v 0.09375 0.734375 -0.296875
v -0.09375 0.796875 -0.171875
v -0.09375 0.796875 -0.296875
v -0.09375 0.734375 -0.171875
v -0.09375 0.734375 -0.296875
vt 0.46875 0.640625
vt 0.4375 0.640625
vt 0.4375 0.625
vt 0.46875 0.625
vt 0.59375 0.625
vt 0.59375 0.640625
vt 0.5625 0.640625
vt 0.5625 0.625
vt 0.515625 0.5
vt 0.5625 0.5
vt 0.5625 0.53125
vt 0.515625 0.53125
vt 0.5625 0.453125
vt 0.5625 0.484375
vt 0.515625 0.484375
vt 0.515625 0.453125
vt 0.59375 0.78125
vt 0.59375 0.796875
vt 0.546875 0.796875
vt 0.546875 0.78125
vt 0.59375 0.765625
vt 0.546875 0.765625
vt 0.546875 0.75
vt 0.59375 0.75
vn 1 0 0
vn -1 0 0
vn 0 1 0
vn 0 -1 0
vn 0 0 1
vn 0 0 -1
usemtl m_c39313b7-6028-ac84-8ef3-66ef55be3667
f 34/97/25 33/98/25 35/99/25 36/100/25
f 39/101/26 37/102/26 38/103/26 40/104/26
f 37/105/27 33/106/27 34/107/27 38/108/27
f 36/109/28 35/110/28 39/111/28 40/112/28
f 35/113/29 33/114/29 37/115/29 39/116/29
f 38/117/30 34/118/30 36/119/30 40/120/30
o mesh
v 0.109375 0.734375 -0.171875
v 0.109375 0.734375 -0.328125
v 0.109375 0.671875 -0.171875
v 0.109375 0.671875 -0.328125
v -0.109375 0.734375 -0.171875
v -0.109375 0.734375 -0.328125
v -0.109375 0.671875 -0.171875
v -0.109375 0.671875 -0.328125
vt 0.6015625 0.953125
vt 0.5625 0.953125
vt 0.5625 0.9375
vt 0.6015625 0.9375
vt 0.1171875 0.421875
vt 0.1171875 0.4375
vt 0.078125 0.4375
vt 0.078125 0.421875
vt 0.28125 0.8515625
vt 0.3359375 0.8515625
vt 0.3359375 0.890625
vt 0.28125 0.890625
vt 0.4140625 0.7421875
vt 0.4140625 0.78125
vt 0.359375 0.78125
vt 0.359375 0.7421875
vt 0.6015625 0.84375
vt 0.6015625 0.859375
vt 0.546875 0.859375
vt 0.546875 0.84375
vt 0.6015625 0.828125
vt 0.546875 0.828125
vt 0.546875 0.8125
vt 0.6015625 0.8125
vn 1 0 0
vn -1 0 0
vn 0 1 0
vn 0 -1 0
vn 0 0 1
vn 0 0 -1
usemtl m_c39313b7-6028-ac84-8ef3-66ef55be3667
f 42/121/31 41/122/31 43/123/31 44/124/31
f 47/125/32 45/126/32 46/127/32 48/128/32
f 45/129/33 41/130/33 42/131/33 46/132/33
f 44/133/34 43/134/34 47/135/34 48/136/34
f 43/137/35 41/138/35 45/139/35 47/140/35
f 46/141/36 42/142/36 44/143/36 48/144/36
o mesh
v 0.0625 0.671875 -0.171875
v 0.0625 0.671875 -0.265625
v 0.0625 0.609375 -0.171875
v 0.0625 0.609375 -0.265625
v -0.0625 0.671875 -0.171875
v -0.0625 0.671875 -0.265625
v -0.0625 0.609375 -0.171875
v -0.0625 0.609375 -0.265625
vt 0.5859375 0.578125
vt 0.5625 0.578125
vt 0.5625 0.5625
vt 0.5859375 0.5625
vt 0.5390625 0.421875
vt 0.5390625 0.4375
vt 0.515625 0.4375
vt 0.515625 0.421875
vt 0.546875 0.7109375
vt 0.578125 0.7109375
vt 0.578125 0.734375
vt 0.546875 0.734375
vt 0.59375 0.9765625
vt 0.59375 1
vt 0.5625 1
vt 0.5625 0.9765625
vt 0.59375 0.59375
vt 0.59375 0.609375
vt 0.5625 0.609375
vt 0.5625 0.59375
vt 0.4375 0.4375
vt 0.40625 0.4375
vt 0.40625 0.421875
vt 0.4375 0.421875
vn 1 0 0
vn -1 0 0
vn 0 1 0
vn 0 -1 0
vn 0 0 1
vn 0 0 -1
usemtl m_c39313b7-6028-ac84-8ef3-66ef55be3667
f 50/145/37 49/146/37 51/147/37 52/148/37
f 55/149/38 53/150/38 54/151/38 56/152/38
f 53/153/39 49/154/39 50/155/39 54/156/39
f 52/157/40 51/158/40 55/159/40 56/160/40
f 51/161/41 49/162/41 53/163/41 55/164/41
f 54/165/42 50/166/42 52/167/42 56/168/42
o mesh
v -0.2774930130182175 0.43362599510091915 0.11987441640665833
v -0.19680502969045985 0.6284240187713259 -0.014450485680047608
v -0.38030084218350807 0.18542593961193865 -0.30182130649978456
v -0.29961285885575045 0.3802239632823455 -0.43614620858649056
v -0.33523548380017293 0.45754370962373725 0.11987441640665834
v -0.25454750047241526 0.6523417332941441 -0.0144504856800476
v -0.4380433129654635 0.20934365413475675 -0.30182130649978456
v -0.3573553296377059 0.4041416778051636 -0.43614620858649056
vt 0.390625 0.609375
vt 0.328125 0.609375
vt 0.328125 0.484375
vt 0.390625 0.484375
vt 0.46875 0.484375
vt 0.46875 0.609375
vt 0.40625 0.609375
vt 0.40625 0.484375
vt 0.53125 0.9375
vt 0.546875 0.9375
vt 0.546875 1
vt 0.53125 1
vt 0.328125 0.40625
vt 0.328125 0.46875
vt 0.3125 0.46875
vt 0.3125 0.40625
vt 0.171875 0.421875
vt 0.171875 0.546875
vt 0.15625 0.546875
vt 0.15625 0.421875
vt 0.203125 0.546875
vt 0.1875 0.546875
vt 0.1875 0.421875
vt 0.203125 0.421875
vn 0.9238795325112868 -0.3826834323650898 -2.498001805406602e-16
vn -0.9238795325112868 0.3826834323650898 2.498001805406602e-16
vn 0.20561565833058107 0.49640011097796094 0.8433914458128857
vn -0.20561565833058107 -0.49640011097796094 -0.8433914458128857
vn -0.3227519333110307 -0.7791920946816272 0.5372996083468238
vn 0.3227519333110307 0.7791920946816272 -0.5372996083468238
usemtl m_c39313b7-6028-ac84-8ef3-66ef55be3667
f 58/169/43 57/170/43 59/171/43 60/172/43
f 63/173/44 61/174/44 62/175/44 64/176/44
f 61/177/45 57/178/45 58/179/45 62/180/45
f 60/181/46 59/182/46 63/183/46 64/184/46
f 59/185/47 57/186/47 61/187/47 63/188/47
f 62/189/48 58/190/48 60/191/48 64/192/48
o mesh
v 0.31942969254695325 0.4970608720027435 0.1395513915653314
v 0.24652800768475597 0.5947888464083393 -0.07870210179235143
v 0.5555988916201163 0.1296619983584122 -0.10384576752658843
v 0.48269720675791905 0.22738997276400796 -0.32209926088427127
v 0.2674432930656117 0.462416464147905 0.14140322129669797
v 0.19454160820341443 0.5601444385535007 -0.07685027206098485
v 0.5036124921387748 0.09501759050357367 -0.10199393779522185
v 0.4307108072765775 0.19274556490916944 -0.32024743115290466
vt 0.5 0.78125
vt 0.4375 0.78125
vt 0.4375 0.65625
vt 0.5 0.65625
vt 0.0625 0.421875
vt 0.0625 0.546875
vt 0 0.546875
vt 0 0.421875
vt 0.34375 0.40625
vt 0.359375 0.40625
vt 0.359375 0.46875
vt 0.34375 0.46875
vt 0.390625 0.40625
vt 0.390625 0.46875
vt 0.375 0.46875
vt 0.375 0.40625
vt 0.5 0.40625
vt 0.5 0.53125
vt 0.484375 0.53125
vt 0.484375 0.40625
vt 0.234375 0.5
vt 0.21875 0.5
vt 0.21875 0.375
vt 0.234375 0.375
vn 0.8317823917014646 0.5543105256774168 -0.02962927570186516
vn -0.8317823917014646 -0.5543105256774168 0.02962927570186516
vn -0.4723383981463261 0.7347977472886627 0.48679431818383967
vn 0.4723383981463261 -0.7347977472886627 -0.48679431818383967
vn 0.2916067394487892 -0.39091189762238315 0.8730139734307314
vn -0.2916067394487892 0.39091189762238315 -0.8730139734307314
usemtl m_c39313b7-6028-ac84-8ef3-66ef55be3667
f 66/193/49 65/194/49 67/195/49 68/196/49
f 71/197/50 69/198/50 70/199/50 72/200/50
f 69/201/51 65/202/51 66/203/51 70/204/51
f 68/205/52 67/206/52 71/207/52 72/208/52
f 67/209/53 65/210/53 69/211/53 71/212/53
f 70/213/54 66/214/54 68/215/54 72/216/54