# Made in Blockbench 5.2.1
mtllib github_octocat.mtl

o head
v 0.375 1.375 0.296875
v 0.375 1.375 -0.296875
v 0.375 0.875 0.296875
v 0.375 0.875 -0.296875
v -0.375 1.375 0.296875
v -0.375 1.375 -0.296875
v -0.375 0.875 0.296875
v -0.375 0.875 -0.296875
vt 0.1640625 0.7265625
vt 0.0859375 0.7265625
vt 0.0859375 0.6640625
vt 0.1640625 0.6640625
vt 0.078125 0.6328125
vt 0.078125 0.6953125
vt 0 0.6953125
vt 0 0.6328125
vt 0.203125 0.75
vt 0.296875 0.75
vt 0.296875 0.828125
vt 0.203125 0.828125
vt 0.328125 0.921875
vt 0.328125 1
vt 0.234375 1
vt 0.234375 0.921875
vt 0.328125 0.8515625
vt 0.328125 0.9140625
vt 0.234375 0.9140625
vt 0.234375 0.8515625
vt 0.296875 0.7421875
vt 0.203125 0.7421875
vt 0.203125 0.6796875
vt 0.296875 0.6796875
vn 1 0 0
vn -1 0 0
vn 0 1 0
vn 0 -1 0
vn 0 0 1
vn 0 0 -1
usemtl m_7034f7fe-63d5-3082-a90a-c3047105ec32
f 2/1/1 1/2/1 3/3/1 4/4/1
f 7/5/2 5/6/2 6/7/2 8/8/2
f 5/9/3 1/10/3 2/11/3 6/12/3
f 4/13/4 3/14/4 7/15/4 8/16/4
f 3/17/5 1/18/5 5/19/5 7/20/5
f 6/21/6 2/22/6 4/23/6 8/24/6
o head_mask
v -0.2180434582331786 1.7776756731121857 0.0625
v -0.2180434582331786 1.7776756731121857 -0.0625
v -0.13253842240176145 1.5427525179157087 0.0625
v -0.13253842240176145 1.5427525179157087 -0.0625
v -0.4529666134296557 1.6921706372807686 0.0625
v -0.4529666134296557 1.6921706372807686 -0.0625
v -0.36746157759823855 1.4572474820842913 0.0625
v -0.36746157759823855 1.4572474820842913 -0.0625
vt 0.40625 0.7578125
vt 0.390625 0.7578125
vt 0.390625 0.7265625
vt 0.40625 0.7265625
vt 0.40625 0.6875
vt 0.40625 0.71875
vt 0.390625 0.71875
vt 0.390625 0.6875
vt 0.4453125 0.90625
vt 0.4765625 0.90625
vt 0.4765625 0.921875
vt 0.4453125 0.921875
vt 0.484375 0.609375
vt 0.484375 0.625
vt 0.453125 0.625
vt 0.453125 0.609375
vt 0.46875 0.8671875
vt 0.46875 0.8984375
vt 0.4375 0.8984375
vt 0.4375 0.8671875
vt 0.46875 0.859375
vt 0.4375 0.859375
vt 0.4375 0.828125
vt 0.46875 0.828125
vn 0.9396926207859084 0.34202014332566866 0
vn -0.9396926207859084 -0.34202014332566866 0
vn -0.34202014332566866 0.9396926207859084 0
vn 0.34202014332566866 -0.9396926207859084 0
vn 0 0 1
vn 0 0 -1
usemtl m_7034f7fe-63d5-3082-a90a-c3047105ec32
f 10/25/7 9/26/7 11/27/7 12/28/7
f 15/29/8 13/30/8 14/31/8 16/32/8
f 13/33/9 9/34/9 10/35/9 14/36/9
f 12/37/10 11/38/10 15/39/10 16/40/10
f 11/41/11 9/42/11 13/43/11 15/44/11
f 14/45/12 10/46/12 12/47/12 16/48/12
o head_mask
v 0.4529666134296557 1.6921706372807686 0.0625
v 0.4529666134296557 1.6921706372807686 -0.0625
v 0.36746157759823855 1.4572474820842913 0.0625
v 0.36746157759823855 1.4572474820842913 -0.0625
v 0.2180434582331786 1.7776756731121857 0.0625
v 0.2180434582331786 1.7776756731121857 -0.0625
v 0.13253842240176145 1.5427525179157087 0.0625
v 0.13253842240176145 1.5427525179157087 -0.0625
vt 0.46875 0.6015625
vt 0.453125 0.6015625
vt 0.453125 0.5703125
vt 0.46875 0.5703125
vt 0.46875 0.53125
vt 0.46875 0.5625
vt 0.453125 0.5625
vt 0.453125 0.53125
vt 0.140625 0.515625
vt 0.171875 0.515625
vt 0.171875 0.53125
vt 0.140625 0.53125
vt 0.2109375 0.515625
vt 0.2109375 0.53125
vt 0.1796875 0.53125
vt 0.1796875 0.515625
vt 0.46875 0.7890625
vt 0.46875 0.8203125
vt 0.4375 0.8203125
vt 0.4375 0.7890625
vt 0.46875 0.78125
vt 0.4375 0.78125
vt 0.4375 0.75
vt 0.46875 0.75
vn 0.9396926207859084 -0.34202014332566866 0
vn -0.9396926207859084 0.34202014332566866 0
vn 0.34202014332566866 0.9396926207859084 0
vn -0.34202014332566866 -0.9396926207859084 0
vn 0 0 1
vn 0 0 -1
usemtl m_7034f7fe-63d5-3082-a90a-c3047105ec32
f 18/49/13 17/50/13 19/51/13 20/52/13
f 23/53/14 21/54/14 22/55/14 24/56/14
f 21/57/15 17/58/15 18/59/15 22/60/15
f 20/61/16 19/62/16 23/63/16 24/64/16
f 19/65/17 17/66/17 21/67/17 23/68/17
f 22/69/18 18/70/18 20/71/18 24/72/18
o head_mask
v 0.4375 1.5625 0.3125
v 0.4375 1.5625 -0.3125
v 0.4375 0.8125 0.3125
v 0.4375 0.8125 -0.3125
v -0.4375 1.5625 0.3125
v -0.4375 1.5625 -0.3125
v -0.4375 0.8125 0.3125
v -0.4375 0.8125 -0.3125
vt 0.1953125 0.828125
vt 0.1171875 0.828125
vt 0.1171875 0.734375
vt 0.1953125 0.734375
vt 0.078125 0.703125
vt 0.078125 0.796875
vt 0 0.796875
vt 0 0.703125
vt 0.1171875 0.921875
vt 0.2265625 0.921875
vt 0.2265625 1
vt 0.1171875 1
vt 0.2265625 0.8359375
vt 0.2265625 0.9140625
vt 0.1171875 0.9140625
vt 0.1171875 0.8359375
vt 0.109375 0.90625
vt 0.109375 1
vt 0 1
vt 0 0.90625
vt 0.109375 0.8984375
vt 0 0.8984375
vt 0 0.8046875
vt 0.109375 0.8046875
vn 1 0 0
vn -1 0 0
vn 0 1 0
vn 0 -1 0
vn 0 0 1
vn 0 0 -1
usemtl m_7034f7fe-63d5-3082-a90a-c3047105ec32
f 26/73/19 25/74/19 27/75/19 28/76/19
f 31/77/20 29/78/20 30/79/20 32/80/20
f 29/81/21 25/82/21 26/83/21 30/84/21
f 28/85/22 27/86/22 31/87/22 32/88/22
f 27/89/23 25/90/23 29/91/23 31/92/23
f 30/93/24 26/94/24 28/95/24 32/96/24
o mesh
v 0.3125 0.8125 0.25
v 0.3125 0.8125 -0.25
v 0.3125 0.59375 0.25
v 0.3125 0.59375 -0.25
v -0.3125 0.8125 0.25
v -0.3125 0.8125 -0.25
v -0.3125 0.59375 0.25
v -0.3125 0.59375 -0.25
vt 0.3984375 0.8984375
vt 0.3359375 0.8984375
vt 0.3359375 0.8671875
vt 0.3984375 0.8671875
vt 0.4453125 0.6328125
vt 0.4453125 0.6640625
vt 0.3828125 0.6640625
vt 0.3828125 0.6328125
vt 0.3046875 0.78125
vt 0.3828125 0.78125
vt 0.3828125 0.84375
vt 0.3046875 0.84375
vt 0.3828125 0.7109375
vt 0.3828125 0.7734375
vt 0.3046875 0.7734375
vt 0.3046875 0.7109375
vt 0.3828125 0.671875
vt 0.3828125 0.703125
vt 0.3046875 0.703125
vt 0.3046875 0.671875
vt 0.25 0.671875
vt 0.171875 0.671875
vt 0.171875 0.640625
vt 0.25 0.640625
vn 1 0 0
vn -1 0 0
vn 0 1 0
vn 0 -1 0
vn 0 0 1
vn 0 0 -1
usemtl m_7034f7fe-63d5-3082-a90a-c3047105ec32
f 34/97/25 33/98/25 35/99/25 36/100/25
f 39/101/26 37/102/26 38/103/26 40/104/26
f 37/105/27 33/106/27 34/107/27 38/108/27
f 36/109/28 35/110/28 39/111/28 40/112/28
f 35/113/29 33/114/29 37/115/29 39/116/29
f 38/117/30 34/118/30 36/119/30 40/120/30
o mesh
v -0.008410520671729704 0.7674300575166647 -0.22472733076746648
v -0.06525222245379186 0.7985701823102952 -0.33161191135024387
v -0.06854687459310099 0.04170316732275592 -0.40418233846165597
v -0.12538857637516315 0.0728432921163864 -0.5110669190444334
v -0.17472505189264625 0.7598842993886896 -0.13847892070072454
v -0.23156675367470841 0.7910244241823201 -0.24536350128350193
v -0.23486140581401754 0.03415740919478072 -0.31793392839491397
v -0.2917031075960797 0.0652975339884112 -0.42481850897769136
vt 0.046875 0.625
vt 0.03125 0.625
vt 0.03125 0.53125
vt 0.046875 0.53125
vt 0.0703125 0.53125
vt 0.0703125 0.625
vt 0.0546875 0.625
vt 0.0546875 0.53125
vt 0.0859375 0.7421875
vt 0.109375 0.7421875
vt 0.109375 0.7578125
vt 0.0859375 0.7578125
vt 0.3125 0.5078125
vt 0.3125 0.5234375
vt 0.2890625 0.5234375
vt 0.2890625 0.5078125
vt 0.28125 0.578125
vt 0.28125 0.671875
vt 0.2578125 0.671875
vt 0.2578125 0.578125
vt 0.359375 1
vt 0.3359375 1
vt 0.3359375 0.90625
vt 0.359375 0.90625
vn 0.8870108331782216 0.04024404334920061 -0.4599915203559571
vn -0.8870108331782216 -0.04024404334920061 0.4599915203559571
vn 0.080181805228495 0.9676358535918785 0.23927334359225258
vn -0.080181805228495 -0.9676358535918785 -0.23927334359225258
vn 0.4547336142564972 -0.24912099834904353 0.8550766446622191
vn -0.4547336142564972 0.24912099834904353 -0.8550766446622191
usemtl m_7034f7fe-63d5-3082-a90a-c3047105ec32
f 42/121/31 41/122/31 43/123/31 44/124/31
f 47/125/32 45/126/32 46/127/32 48/128/32
f 45/129/33 41/130/33 42/131/33 46/132/33
f 44/133/34 43/134/34 47/135/34 48/136/34
f 43/137/35 41/138/35 45/139/35 47/140/35
f 46/141/36 42/142/36 44/143/36 48/144/36
o mesh
v -0.06446823749301617 0.03974845099773722 -0.396488436623814
v -0.08886116202883737 0.15668980375403346 -0.4332947573869277
v -0.16908982845008752 -0.04798783638121251 -0.605908269931382
v -0.1934827529859087 0.06895351637508373 -0.6427145906944958
v -0.23078276871393272 0.0322026928697621 -0.31024002655707206
v -0.2551756932497539 0.14914404562605835 -0.34704634732018574
v -0.33540435967100407 -0.05553359450918763 -0.5196598598646401
v -0.3597972842068253 0.06140775824710862 -0.5564661806277538
vt 0.234375 0.53125
vt 0.21875 0.53125
vt 0.21875 0.5
vt 0.234375 0.5
vt 0.484375 0.7109375
vt 0.484375 0.7421875
vt 0.46875 0.7421875
vt 0.46875 0.7109375
vt 0.3203125 0.5078125
vt 0.34375 0.5078125
vt 0.34375 0.5234375
vt 0.3203125 0.5234375
vt 0.375 0.5078125
vt 0.375 0.5234375
vt 0.3515625 0.5234375
vt 0.3515625 0.5078125
vt 0.109375 0.765625
vt 0.109375 0.796875
vt 0.0859375 0.796875
vt 0.0859375 0.765625
vt 0.1953125 0.7265625
vt 0.171875 0.7265625
vt 0.171875 0.6953125
vt 0.1953125 0.6953125
vn 0.8870108331782217 0.0402440433492006 -0.45999152035595703
vn -0.8870108331782217 -0.0402440433492006 0.45999152035595703
vn 0.41848636382828525 0.3509451495157989 0.8376793332302722
vn -0.41848636382828525 -0.3509451495157989 -0.8376793332302722
vn 0.19514339628656954 -0.93553082205037 0.2944505661049095
vn -0.19514339628656954 0.93553082205037 -0.2944505661049095
usemtl m_7034f7fe-63d5-3082-a90a-c3047105ec32
f 50/145/37 49/146/37 51/147/37 52/148/37
f 55/149/38 53/150/38 54/151/38 56/152/38
f 53/153/39 49/154/39 50/155/39 54/156/39
f 52/157/40 51/158/40 55/159/40 56/160/40
f 51/161/41 49/162/41 53/163/41 55/164/41
f 54/165/42 50/166/42 52/167/42 56/168/42
o mesh
v 0.17053284026878873 0.7573604466845267 -0.13581788071734574
v 0.23279500889952295 0.7885643264925898 -0.2396193269612299
v 0.22290829652775324 0.032783465646406995 -0.3222180151898012
v 0.28517046515848743 0.06398734545447005 -0.42601946143368535
v 0.008475748390649643 0.7696985036804302 -0.22931398396002753
v 0.07073791702138385 0.8009023834884933 -0.33311543020391166
v 0.060851204649614146 0.04512152264231051 -0.415714118432483
v 0.12311337328034835 0.07632540245037356 -0.5195155646763672
vt 0.3984375 0.625
vt 0.3828125 0.625
vt 0.3828125 0.53125
vt 0.3984375 0.53125
vt 0.40625 0.765625
vt 0.40625 0.859375
vt 0.390625 0.859375
vt 0.390625 0.765625
vt 0.3828125 0.5078125
vt 0.40625 0.5078125
vt 0.40625 0.5234375
vt 0.3828125 0.5234375
vt 0.5 0.5859375
vt 0.5 0.6015625
vt 0.4765625 0.6015625
vt 0.4765625 0.5859375
vt 0.3125 0.5703125
vt 0.3125 0.6640625
vt 0.2890625 0.6640625
vt 0.2890625 0.5703125
vt 0.34375 0.6640625
vt 0.3203125 0.6640625
vt 0.3203125 0.5703125
vt 0.34375 0.5703125
vn 0.864304490016742 -0.06580297064481862 0.4986458839609697
vn -0.864304490016742 0.06580297064481862 -0.4986458839609697
vn -0.06983394167861932 0.9661026413841598 0.2485335126299407
vn 0.06983394167861932 -0.9661026413841598 -0.2485335126299407
vn -0.49809734904587355 -0.24963103846450427 0.8304115699510732
vn 0.49809734904587355 0.24963103846450427 -0.8304115699510732
usemtl m_7034f7fe-63d5-3082-a90a-c3047105ec32
f 58/169/43 57/170/43 59/171/43 60/172/43
f 63/173/44 61/174/44 62/175/44 64/176/44
f 61/177/45 57/178/45 58/179/45 62/180/45
f 60/181/46 59/182/46 63/183/46 64/184/46
f 59/185/47 57/186/47 61/187/47 63/188/47
f 62/189/48 58/190/48 60/191/48 64/192/48
o mesh
v 0.21844569336666741 0.030823775522471807 -0.3147415782282099
v 0.2470072291585219 0.1476447049134606 -0.34883129998471923
v 0.33046383464922346 -0.05658820815709731 -0.5204381536318954
v 0.35902537044107796 0.060232721233891465 -0.5545278753884046
v 0.0563886014885283 0.0431618325183753 -0.40823768147089173
v 0.08495013728038282 0.15998276190936409 -0.44232740322740105
v 0.16840674277108433 -0.044250151161193824 -0.6139342568745771
v 0.19696827856293886 0.07257077822979496 -0.6480239786310864
vt 0.484375 0.703125
vt 0.46875 0.703125
vt 0.46875 0.671875
vt 0.484375 0.671875
vt 0.015625 0.4921875
vt 0.015625 0.5234375
vt 0 0.5234375
vt 0 0.4921875
vt 0.4140625 0.5078125
vt 0.4375 0.5078125
vt 0.4375 0.5234375
vt 0.4140625 0.5234375
vt 0.5 0.5625
vt 0.5 0.578125
vt 0.4765625 0.578125
vt 0.4765625 0.5625
vt 0.4609375 0.7109375
vt 0.4609375 0.7421875
vt 0.4375 0.7421875
vt 0.4375 0.7109375
vt 0.3125 0.5625
vt 0.2890625 0.5625
vt 0.2890625 0.53125
vt 0.3125 0.53125
vn 0.8643044900167419 -0.06580297064481867 0.4986458839609697
vn -0.8643044900167419 0.06580297064481867 -0.4986458839609697
vn -0.44807256513022403 0.3496479347182765 0.8227863016147418
vn 0.44807256513022403 -0.3496479347182765 -0.8227863016147418
vn -0.22849228633483615 -0.9345674351279103 0.27271777405207437
vn 0.22849228633483615 0.9345674351279103 -0.27271777405207437
usemtl m_7034f7fe-63d5-3082-a90a-c3047105ec32
f 66/193/49 65/194/49 67/195/49 68/196/49
f 71/197/50 69/198/50 70/199/50 72/200/50
f 69/201/51 65/202/51 66/203/51 70/204/51
f 68/205/52 67/206/52 71/207/52 72/208/52
f 67/209/53 65/210/53 69/211/53 71/212/53
f 70/213/54 66/214/54 68/215/54 72/216/54
o mesh
v 0.19322129319819087 0.767265568410973 0.10499514548622899
v 0.31434573949317607 0.7909324655315684 0.08515209908663596
v 0.33200685171601096 0.030876104522301384 0.07386435332394298
v 0.45313129801099616 0.054543001642896716 0.05402130692434997
v 0.16252333408718725 0.7692991117832103 -0.07996363372625495
v 0.2836477803821724 0.7929660089038056 -0.09980668012584798
v 0.3013088926050074 0.03290964789453854 -0.11109442588854096
v 0.42243333889999257 0.05657654501513387 -0.13093747228813396
vt 0.4140625 1
vt 0.3984375 1
vt 0.3984375 0.90625
vt 0.4140625 0.90625
vt 0.421875 0.53125
vt 0.421875 0.625
vt 0.40625 0.625
vt 0.40625 0.53125
vt 0.4453125 0.5078125
vt 0.46875 0.5078125
vt 0.46875 0.5234375
vt 0.4453125 0.5234375
vt 0.5 0.5390625
vt 0.5 0.5546875
vt 0.4765625 0.5546875
vt 0.4765625 0.5390625
vt 0.109375 0.5625
vt 0.109375 0.65625
vt 0.0859375 0.65625
vt 0.0859375 0.5625
vt 0.140625 0.65625
vt 0.1171875 0.65625
vt 0.1171875 0.5625
vt 0.140625 0.5625
vn 0.16372244859201915 -0.010845564651931941 0.986446822466581
vn -0.16372244859201915 0.010845564651931941 -0.986446822466581
vn -0.1850474113570935 0.9818526185182289 0.04150772288304801
vn 0.1850474113570935 -0.9818526185182289 -0.04150772288304801
vn -0.9689955703598816 -0.18933517696476282 0.1587443711967442
vn 0.9689955703598816 0.18933517696476282 -0.1587443711967442
usemtl m_7034f7fe-63d5-3082-a90a-c3047105ec32
f 74/217/55 73/218/55 75/219/55 76/220/55
f 79/221/56 77/222/56 78/223/56 80/224/56
f 77/225/57 73/226/57 74/227/57 78/228/57
f 76/229/58 75/230/58 79/231/58 80/232/58
f 75/233/59 73/234/59 77/235/59 79/236/59
f 78/237/60 74/238/60 76/239/60 80/240/60
o mesh
v 0.32331172747836695 0.029458640696775375 0.07529191515836219
v 0.3738381100762946 0.14356923766290663 0.06816055332481387
v 0.5482851117607326 -0.07255966647450601 0.03683100816898996
v 0.5988114943586602 0.041550930491625254 0.02969964633544165
v 0.29261376836736336 0.031492184069012615 -0.10966686405412175
v 0.343140150965291 0.14560278103514387 -0.11679822588767007
v 0.5175871526497289 -0.07052612310226877 -0.14812777104349398
v 0.5681135352476565 0.043584473863862494 -0.1552591328770423
vt 0.4921875 1
vt 0.4765625 1
vt 0.4765625 0.96875
vt 0.4921875 0.96875
vt 0.0390625 0.4921875
vt 0.0390625 0.5234375
vt 0.0234375 0.5234375
vt 0.0234375 0.4921875
vt 0.4765625 0.515625
vt 0.5 0.515625
vt 0.5 0.53125
vt 0.4765625 0.53125
vt 0.09375 0.5
vt 0.09375 0.515625
vt 0.0703125 0.515625
vt 0.0703125 0.5
vt 0.4609375 0.671875
vt 0.4609375 0.703125
vt 0.4375 0.703125
vt 0.4375 0.671875
vt 0.34375 0.5625
vt 0.3203125 0.5625
vt 0.3203125 0.53125
vt 0.34375 0.53125
vn 0.16372244859201918 -0.010845564651931934 0.9864468224665811
vn -0.16372244859201918 0.010845564651931934 -0.9864468224665811
vn -0.8998935371294624 0.4080732286851256 0.15384362795748902
vn 0.8998935371294624 -0.4080732286851256 -0.15384362795748902
vn -0.40421106078342134 -0.9128847757290501 0.057050894668386476
vn 0.40421106078342134 0.9128847757290501 -0.057050894668386476
usemtl m_7034f7fe-63d5-3082-a90a-c3047105ec32
f 82/241/61 81/242/61 83/243/61 84/244/61
f 87/245/62 85/246/62 86/247/62 88/248/62
f 85/249/63 81/250/63 82/251/63 86/252/63
f 84/253/64 83/254/64 87/255/64 88/256/64
f 83/257/65 81/258/65 85/259/65 87/260/65
f 86/261/66 82/262/66 84/263/66 88/264/66
o mesh
v 0.0856335059820968 0.6655541304420752 0.29805334056786636
v 0.0976033837581605 0.7898035296432727 0.2914345170948032
v 0.8019067122525629 0.5854981381758327 0.09058350642011914
v 0.8138765900286267 0.7097475373770301 0.08396468294705599
v 0.03301774853009516 0.6610391357344344 0.11814378859648797
v 0.04498762630615885 0.7852885349356318 0.11152496512342482
v 0.7492909548005613 0.5809831434681918 -0.08932604555125931
v 0.761260832576625 0.7052325426693893 -0.09594486902432245
vt 0.4296875 0.8984375
vt 0.4140625 0.8984375
vt 0.4140625 0.8046875
vt 0.4296875 0.8046875
vt 0.4296875 0.703125
vt 0.4296875 0.796875
vt 0.4140625 0.796875
vt 0.4140625 0.703125
vt 0.484375 0.90625
vt 0.5078125 0.90625
vt 0.5078125 0.921875
vt 0.484375 0.921875
vt 0.125 0.5
vt 0.125 0.515625
vt 0.1015625 0.515625
vt 0.1015625 0.5
vt 0.375 0.5703125
vt 0.375 0.6640625
vt 0.3515625 0.6640625
vt 0.3515625 0.5703125
vt 0.390625 1
vt 0.3671875 1
vt 0.3671875 0.90625
vt 0.390625 0.90625
vn 0.2806173730773423 0.024079971774084562 0.9595176105140183
vn -0.2806173730773423 -0.024079971774084562 -0.9595176105140183
vn -0.9550309416939549 0.10674132302165691 0.27662644553032945
vn 0.9550309416939549 -0.10674132302165691 -0.27662644553032945
vn -0.0957590222085093 -0.9939951936095797 0.05295058778450531
vn 0.0957590222085093 0.9939951936095797 -0.05295058778450531
usemtl m_7034f7fe-63d5-3082-a90a-c3047105ec32
f 90/265/67 89/266/67 91/267/67 92/268/67
f 95/269/68 93/270/68 94/271/68 96/272/68
f 93/273/69 89/274/69 90/275/69 94/276/69
f 92/277/70 91/278/70 95/279/70 96/280/70
f 91/281/71 89/282/71 93/283/71 95/284/71
f 94/285/72 90/286/72 92/287/72 96/288/72
o mesh
v 0.8007884015610103 0.5766606907830123 0.09113234771969654
v 0.709864597868382 0.6588568900160064 0.11566083633425119
v 0.9573445122967648 0.7649129125801527 0.04062209945526542
v 0.8664207086041364 0.8471091118131469 0.06515058806982008
v 0.7481726441090086 0.5721456960753715 -0.08877720425168188
v 0.6572488404163803 0.6543418953083655 -0.06424871563712724
v 0.9047287548447631 0.7603979178725119 -0.139287452516113
v 0.8138049511521348 0.8425941171055059 -0.11475896390155835
vt 0.4921875 0.9609375
vt 0.4765625 0.9609375
vt 0.4765625 0.9296875
vt 0.4921875 0.9296875
vt 0.0625 0.4921875
vt 0.0625 0.5234375
vt 0.046875 0.5234375
vt 0.046875 0.4921875
vt 0.484375 0.6484375
vt 0.5078125 0.6484375
vt 0.5078125 0.6640625
vt 0.484375 0.6640625
vt 0.15625 0.4921875
vt 0.15625 0.5078125
vt 0.1328125 0.5078125
vt 0.1328125 0.4921875
vt 0.375 0.53125
vt 0.375 0.5625
vt 0.3515625 0.5625
vt 0.3515625 0.53125
vt 0.46875 1
vt 0.4453125 1
vt 0.4453125 0.96875
vt 0.46875 0.96875
vn 0.2806173730773423 0.024079971774084562 0.9595176105140182
vn -0.2806173730773423 -0.024079971774084562 -0.9595176105140182
vn -0.6262244429430177 -0.7530088871885615 0.2020409930577244
vn 0.6262244429430177 0.7530088871885615 -0.2020409930577244
vn 0.7273904295410264 -0.6575695938639528 -0.19622790891643702
vn -0.7273904295410264 0.6575695938639528 0.19622790891643702
usemtl m_7034f7fe-63d5-3082-a90a-c3047105ec32
f 98/289/73 97/290/73 99/291/73 100/292/73
f 103/293/74 101/294/74 102/295/74 104/296/74
f 101/297/75 97/298/75 98/299/75 102/300/75
f 100/301/76 99/302/76 103/303/76 104/304/76
f 99/305/77 97/306/77 101/307/77 103/308/77
f 102/309/78 98/310/78 100/311/78 104/312/78
o mesh
v -0.15825939125783411 0.7568036802103394 0.06897872420696977
v -0.22665613280037583 0.7950453831567144 0.16636690573904256
v -0.27421058249517555 0.043002990619218084 0.2678351970457516
v -0.34260732403771726 0.08124469356559305 0.3652233785778244
v -0.00401866866006724 0.761421398441806 0.17549034878782716
v -0.07241541020260896 0.799663101388181 0.27287853031989995
v -0.11996985989740867 0.0476207088506847 0.374346821626609
v -0.18836660143995038 0.08586241179705967 0.4717350031586818
vt 0.4375 1
vt 0.421875 1
vt 0.421875 0.90625
vt 0.4375 0.90625
vt 0.2578125 0.4765625
vt 0.2578125 0.5703125
vt 0.2421875 0.5703125
vt 0.2421875 0.4765625
vt 0.1640625 0.4921875
vt 0.1875 0.4921875
vt 0.1875 0.5078125
vt 0.1640625 0.5078125
vt 0.515625 0.7265625
vt 0.515625 0.7421875
vt 0.4921875 0.7421875
vt 0.4921875 0.7265625
vt 0.171875 0.5390625
vt 0.171875 0.6328125
vt 0.1484375 0.6328125
vt 0.1484375 0.5390625
vt 0.203125 0.6328125
vt 0.1796875 0.6328125
vt 0.1796875 0.5390625
vt 0.203125 0.5390625
vn -0.8226171871880902 -0.024627830567822216 -0.5680619977645728
vn 0.8226171871880902 0.024627830567822216 0.5680619977645728
vn 0.1546015883164552 0.9517342527881617 -0.2651419637850425
vn -0.1546015883164552 -0.9517342527881617 0.2651419637850425
vn 0.5471739323403336 -0.3059336235709996 -0.7791054522565825
vn -0.5471739323403336 0.3059336235709996 0.7791054522565825
usemtl m_7034f7fe-63d5-3082-a90a-c3047105ec32
f 106/313/79 105/314/79 107/315/79 108/316/79
f 111/317/80 109/318/80 110/319/80 112/320/80
f 109/321/81 105/322/81 106/323/81 110/324/81
f 108/325/82 107/326/82 111/327/82 112/328/82
f 107/329/83 105/330/83 109/331/83 111/332/83
f 110/333/84 106/334/84 108/335/84 112/336/84
o mesh
v -0.26928674986711937 0.04053707838198251 0.26081184520457407
v -0.2926872332491453 0.1599235004268694 0.2895224636027848
v -0.40351036820186803 -0.0332844685936516 0.4583830968664795
v -0.42691085158389397 0.0861019534512353 0.48709371526469014
v -0.11504602726935247 0.04515479661344918 0.36732346978543146
v -0.13844651065137842 0.16454121865833607 0.3960340881836421
v -0.24926964560410117 -0.028666750362184926 0.5648947214473369
v -0.27267012898612714 0.09071967168270197 0.5936053398455475
vt 0.4921875 0.8984375
vt 0.4765625 0.8984375
vt 0.4765625 0.8671875
vt 0.4921875 0.8671875
vt 0.4921875 0.828125
vt 0.4921875 0.859375
vt 0.4765625 0.859375
vt 0.4765625 0.828125
vt 0.4921875 0.703125
vt 0.515625 0.703125
vt 0.515625 0.71875
vt 0.4921875 0.71875
vt 0.515625 0.6796875
vt 0.515625 0.6953125
vt 0.4921875 0.6953125
vt 0.4921875 0.6796875
vt 0.46875 0.9296875
vt 0.46875 0.9609375
vt 0.4453125 0.9609375
vt 0.4453125 0.9296875
vt 0.1015625 0.5546875
vt 0.078125 0.5546875
vt 0.078125 0.5234375
vt 0.1015625 0.5234375
vn -0.8226171871880901 -0.02462783056782218 -0.5680619977645728
vn 0.8226171871880901 0.02462783056782218 0.5680619977645728
vn 0.5368944733389948 0.29528618790253636 -0.7902850066476217
vn -0.5368944733389948 -0.29528618790253636 0.7902850066476217
vn 0.1872038670562077 -0.9550913763590951 -0.22968494718568544
vn -0.1872038670562077 0.9550913763590951 0.22968494718568544
usemtl m_7034f7fe-63d5-3082-a90a-c3047105ec32
f 114/337/85 113/338/85 115/339/85 116/340/85
f 119/341/86 117/342/86 118/343/86 120/344/86
f 117/345/87 113/346/87 114/347/87 118/348/87
f 116/349/88 115/350/88 119/351/88 120/352/88
f 115/353/89 113/354/89 117/355/89 119/356/89
f 118/357/90 114/358/90 116/359/90 120/360/90
o mesh
v -0.24353176113975733 0.7547373488584167 -0.16521248828968715
v -0.3661369154905858 0.778985919451996 -0.16298023588959376
v -0.3857492187869853 0.02594542619747553 -0.05968273796056052
v -0.5083543731378137 0.05019399679105485 -0.05745048556046713
v -0.23516017490154292 0.7799794009914942 0.020391944168072662
v -0.35776532925237137 0.8042279715850735 0.022624196568166055
v -0.37737763254877094 0.05118747833055315 0.1259216944971993
v -0.4999827868995994 0.07543604892413247 0.1281539468972927
vt 0.28125 0.5703125
vt 0.265625 0.5703125
vt 0.265625 0.4765625
vt 0.28125 0.4765625
vt 0.4453125 0.53125
vt 0.4453125 0.625
vt 0.4296875 0.625
vt 0.4296875 0.53125
vt 0.4921875 0.625
vt 0.515625 0.625
vt 0.515625 0.640625
vt 0.4921875 0.640625
vt 0.5 0.4921875
vt 0.5 0.5078125
vt 0.4765625 0.5078125
vt 0.4765625 0.4921875
vt 0.234375 0.5390625
vt 0.234375 0.6328125
vt 0.2109375 0.6328125
vt 0.2109375 0.5390625
vt 0.0234375 0.625
vt 0 0.625
vt 0 0.53125
vt 0.0234375 0.53125
vn -0.04464845993714341 -0.13462427804308008 -0.9898903064413858
vn 0.04464845993714341 0.13462427804308008 0.9898903064413858
vn 0.18962327686297073 0.9717225635479215 -0.1407063337721689
vn -0.18962327686297073 -0.9717225635479215 0.1407063337721689
vn 0.980841234806628 -0.19398856474863485 -0.017858019200747234
vn -0.980841234806628 0.19398856474863485 0.017858019200747234
usemtl m_7034f7fe-63d5-3082-a90a-c3047105ec32
f 122/361/91 121/362/91 123/363/91 124/364/91
f 127/365/92 125/366/92 126/367/92 128/368/92
f 125/369/93 121/370/93 122/371/93 126/372/93
f 124/373/94 123/374/94 127/375/94 128/376/94
f 123/377/95 121/378/95 125/379/95 127/380/95
f 126/381/96 122/382/96 124/383/96 128/384/96
o mesh
v -0.3769471596048614 0.024483650478010988 -0.05988094970643462
v -0.4278543002547946 0.13789062473718544 -0.07300806744898813
v -0.6050025461066261 -0.07512910845678608 -0.03604738209835824
v -0.6559096867565593 0.03827786580238837 -0.04917449984091175
v -0.36857557336664704 0.04972570261108851 0.1257234827513252
v -0.4194827140165802 0.16313267687026295 0.11259636500877168
v -0.5966309598684116 -0.049887056323708545 0.1495570503594016
v -0.6475381005183448 0.06351991793546591 0.13642993261684805
vt 0.4921875 0.8203125
vt 0.4765625 0.8203125
vt 0.4765625 0.7890625
vt 0.4921875 0.7890625
vt 0.4921875 0.75
vt 0.4921875 0.78125
vt 0.4765625 0.78125
vt 0.4765625 0.75
vt 0.5 0.984375
vt 0.5234375 0.984375
vt 0.5234375 1
vt 0.5 1
vt 0.5234375 0.9609375
vt 0.5234375 0.9765625
vt 0.5 0.9765625
vt 0.5 0.9609375
vt 0.1328125 0.5234375
vt 0.1328125 0.5546875
vt 0.109375 0.5546875
vt 0.109375 0.5234375
vt 0.4765625 0.6640625
vt 0.453125 0.6640625
vt 0.453125 0.6328125
vt 0.4765625 0.6328125
vn -0.04464845993714341 -0.13462427804308008 -0.9898903064413858
vn 0.04464845993714341 0.13462427804308008 0.9898903064413858
vn 0.9122215460070586 0.3984510357391882 -0.09533427043230565
vn -0.9122215460070586 -0.3984510357391882 0.09533427043230565
vn 0.4072571251994656 -0.9072557940733956 0.10501694194042818
vn -0.4072571251994656 0.9072557940733956 -0.10501694194042818
usemtl m_7034f7fe-63d5-3082-a90a-c3047105ec32
f 130/385/97 129/386/97 131/387/97 132/388/97
f 135/389/98 133/390/98 134/391/98 136/392/98
f 133/393/99 129/394/99 130/395/99 134/396/99
f 132/397/100 131/398/100 135/399/100 136/400/100
f 131/401/101 129/402/101 133/403/101 135/404/101
f 134/405/102 130/406/102 132/407/102 136/408/102