# Made in Blockbench 5.2.1
mtllib plant_pot.mtl

o mesh
v 0.25 0.5 0.25
v 0.25 0.5 -0.25
v 0.25 0 0.25
v 0.25 0 -0.25
v -0.25 0.5 0.25
v -0.25 0.5 -0.25
v -0.25 0 0.25
v -0.25 0 -0.25
vt 0.34375 0.9375
vt 0.28125 0.9375
vt 0.28125 0.875
vt 0.34375 0.875
vt 0.46875 0.875
vt 0.46875 0.9375
vt 0.40625 0.9375
vt 0.40625 0.875
vt 0.34375 0.9375
vt 0.40625 0.9375
vt 0.40625 1
vt 0.34375 1
vt 0.46875 0.9375
vt 0.46875 1
vt 0.40625 1
vt 0.40625 0.9375
vt 0.53125 0.875
vt 0.53125 0.9375
vt 0.46875 0.9375
vt 0.46875 0.875
vt 0.40625 0.9375
vt 0.34375 0.9375
vt 0.34375 0.875
vt 0.40625 0.875
vn 1 0 0
vn -1 0 0
vn 0 1 0
vn 0 -1 0
vn 0 0 1
vn 0 0 -1
usemtl m_47370d66-82f7-4b2b-19ff-d2064a375b7b
f 2/1/1 1/2/1 3/3/1 4/4/1
f 7/5/2 5/6/2 6/7/2 8/8/2
f 5/9/3 1/10/3 2/11/3 6/12/3
f 4/13/4 3/14/4 7/15/4 8/16/4
f 3/17/5 1/18/5 5/19/5 7/20/5
f 6/21/6 2/22/6 4/23/6 8/24/6
o mesh
v 0.5625 2 0
v 0.5625 2 0
v 0.5625 0.5 0
v 0.5625 0.5 0
v -0.5625 2 0
v -0.5625 2 0
v -0.5625 0.5 0
v -0.5625 0.5 0
vt 0 1
vt 0 1
vt 0 1
vt 0 1
vt 0 1
vt 0 1
vt 0 1
vt 0 1
vt 0.140625 1
vt 0.140625 1
vt 0 1
vt 0 1
vt 0.140625 1
vt 0 1
vt 0.140625 1
vt 0 1
vt 0.140625 0.6875
vt 0.140625 0.875
vt 0 0.875
vt 0 0.6875
vt 0.28125 0.875
vt 0.140625 0.875
vt 0.140625 0.6875
vt 0.28125 0.6875
vn 0 0 0
vn 0 0 0
vn 0 0 0
vn 0 0 0
vn 0 0 1
vn 0 0 -1
usemtl m_47370d66-82f7-4b2b-19ff-d2064a375b7b
f 9/25/7 11/26/7 10/27/7 12/28/7
f 13/29/8 14/30/8 15/31/8 16/32/8
f 9/33/9 10/34/9 13/35/9 14/36/9
f 11/37/10 15/38/10 12/39/10 16/40/10
f 11/41/11 9/42/11 13/43/11 15/44/11
f 14/45/12 10/46/12 12/47/12 16/48/12
o mesh
v 0.397747564417433 2 -0.39774756441743303
v 0.397747564417433 2 -0.39774756441743303
v 0.397747564417433 0.5 -0.39774756441743303
v 0.397747564417433 0.5 -0.39774756441743303
v -0.397747564417433 2 0.39774756441743303
v -0.397747564417433 2 0.39774756441743303
v -0.397747564417433 0.5 0.39774756441743303
v -0.397747564417433 0.5 0.39774756441743303
vt 0 1
vt 0 1
vt 0 1
vt 0 1
vt 0 1
vt 0 1
vt 0 1
vt 0 1
vt 0.140625 1
vt 0.140625 1
vt 0 1
vt 0 1
vt 0.140625 1
vt 0 1
vt 0.140625 1
vt 0 1
vt 0.140625 0.5
vt 0.140625 0.6875
vt 0 0.6875
vt 0 0.5
vt 0.28125 0.6875
vt 0.140625 0.6875
vt 0.140625 0.5
vt 0.28125 0.5
vn 0 0 0
vn 0 0 0
vn 0 0 0
vn 0 0 0
vn 0.7071067811865476 0 0.7071067811865475
vn -0.7071067811865476 0 -0.7071067811865475
usemtl m_47370d66-82f7-4b2b-19ff-d2064a375b7b
f 17/49/13 19/50/13 18/51/13 20/52/13
f 21/53/14 22/54/14 23/55/14 24/56/14
f 17/57/15 18/58/15 21/59/15 22/60/15
f 19/61/16 23/62/16 20/63/16 24/64/16
f 19/65/17 17/66/17 21/67/17 23/68/17
f 22/69/18 18/70/18 20/71/18 24/72/18
o mesh
v 0.397747564417433 2 0.39774756441743303
v 0.397747564417433 2 0.39774756441743303
v 0.397747564417433 0.5 0.39774756441743303
v 0.397747564417433 0.5 0.39774756441743303
v -0.397747564417433 2 -0.39774756441743303
v -0.397747564417433 2 -0.39774756441743303
v -0.397747564417433 0.5 -0.39774756441743303
v -0.397747564417433 0.5 -0.39774756441743303
vt 0 1
vt 0 1
vt 0 1
vt 0 1
vt 0 1
vt 0 1
vt 0 1
vt 0 1
vt 0.140625 1
vt 0.140625 1
vt 0 1
vt 0 1
vt 0.140625 1
vt 0 1
vt 0.140625 1
vt 0 1
vt 0.140625 0.5
vt 0.140625 0.6875
vt 0 0.6875
vt 0 0.5
vt 0.28125 0.6875
vt 0.140625 0.6875
vt 0.140625 0.5
vt 0.28125 0.5
vn 0 0 0
vn 0 0 0
vn 0 0 0
vn 0 0 0
vn -0.7071067811865476 0 0.7071067811865475
vn 0.7071067811865476 0 -0.7071067811865475
usemtl m_47370d66-82f7-4b2b-19ff-d2064a375b7b
f 25/73/19 27/74/19 26/75/19 28/76/19
f 29/77/20 30/78/20 31/79/20 32/80/20
f 25/81/21 26/82/21 29/83/21 30/84/21
f 27/85/22 31/86/22 28/87/22 32/88/22
f 27/89/23 25/90/23 29/91/23 31/92/23
f 30/93/24 26/94/24 28/95/24 32/96/24
o mesh
v 1.249000902703301e-16 2 -0.5625
v 1.249000902703301e-16 2 -0.5625
v 1.249000902703301e-16 0.5 -0.5625
v 1.249000902703301e-16 0.5 -0.5625
v -1.249000902703301e-16 2 0.5625
v -1.249000902703301e-16 2 0.5625
v -1.249000902703301e-16 0.5 0.5625
v -1.249000902703301e-16 0.5 0.5625
vt 0 1
vt 0 1
vt 0 1
vt 0 1
vt 0 1
vt 0 1
vt 0 1
vt 0 1
vt 0.140625 1
vt 0.140625 1
vt 0 1
vt 0 1
vt 0.140625 1
vt 0 1
vt 0.140625 1
vt 0 1
vt 0.140625 0.6875
vt 0.140625 0.875
vt 0 0.875
vt 0 0.6875
vt 0.28125 0.875
vt 0.140625 0.875
vt 0.140625 0.6875
vt 0.28125 0.6875
vn 0 0 0
vn 0 0 0
vn 0 0 0
vn 0 0 0
vn 1 0 2.220446049250313e-16
vn -1 0 -2.220446049250313e-16
usemtl m_47370d66-82f7-4b2b-19ff-d2064a375b7b
f 33/97/25 35/98/25 34/99/25 36/100/25
f 37/101/26 38/102/26 39/103/26 40/104/26
f 33/105/27 34/106/27 37/107/27 38/108/27
f 35/109/28 39/110/28 36/111/28 40/112/28
f 35/113/29 33/114/29 37/115/29 39/116/29
f 38/117/30 34/118/30 36/119/30 40/120/30
o mesh
v 0.15625 0.7419119048405463 -0.06143518207153338
v 0.15625 0.6286785726081934 -0.4840277310730008
v 0.15625 0.7419119048405463 -0.06143518207153338
v 0.15625 0.6286785726081934 -0.4840277310730008
v -0.15625 0.7419119048405463 -0.06143518207153338
v -0.15625 0.6286785726081934 -0.4840277310730008
v -0.15625 0.7419119048405463 -0.06143518207153338
v -0.15625 0.6286785726081934 -0.4840277310730008
vt 0 1
vt 0 0.9375
vt 0 0.9375
vt 0 1
vt 0 0.9375
vt 0 0.9375
vt 0 1
vt 0 1
vt 0.28125 0.8203125
vt 0.3203125 0.8203125
vt 0.3203125 0.875
vt 0.28125 0.875
vt 0.3203125 0.765625
vt 0.3203125 0.8203125
vt 0.28125 0.8203125
vt 0.28125 0.765625
vt 0.0390625 1
vt 0.0390625 1
vt 0 1
vt 0 1
vt 0 1
vt 0.0390625 1
vt 0.0390625 1
vt 0 1
vn 0 0 0
vn 0 0 0
vn 0 0.9659258262890683 -0.25881904510252074
vn 0 -0.9659258262890683 0.25881904510252074
vn 0 0 0
vn 0 0 0
usemtl m_47370d66-82f7-4b2b-19ff-d2064a375b7b
f 42/121/31 41/122/31 43/123/31 44/124/31
f 47/125/32 45/126/32 46/127/32 48/128/32
f 45/129/33 41/130/33 42/131/33 46/132/33
f 44/133/34 43/134/34 47/135/34 48/136/34
f 43/137/35 41/138/35 45/139/35 47/140/35
f 46/141/36 42/142/36 44/143/36 48/144/36
o mesh
v 0.15625 1.1169119048405463 -0.06143518207153338
v 0.15625 1.0036785726081934 -0.4840277310730008
v 0.15625 1.1169119048405463 -0.06143518207153338
v 0.15625 1.0036785726081934 -0.4840277310730008
v -0.15625 1.1169119048405463 -0.06143518207153338
v -0.15625 1.0036785726081934 -0.4840277310730008
v -0.15625 1.1169119048405463 -0.06143518207153338
v -0.15625 1.0036785726081934 -0.4840277310730008
vt 0 1
vt 0 0.9375
vt 0 0.9375
vt 0 1
vt 0 0.9375
vt 0 0.9375
vt 0 1
vt 0 1
vt 0.28125 0.8203125
vt 0.3203125 0.8203125
vt 0.3203125 0.875
vt 0.28125 0.875
vt 0.3203125 0.765625
vt 0.3203125 0.8203125
vt 0.28125 0.8203125
vt 0.28125 0.765625
vt 0.0390625 1
vt 0.0390625 1
vt 0 1
vt 0 1
vt 0 1
vt 0.0390625 1
vt 0.0390625 1
vt 0 1
vn 0 0 0
vn 0 0 0
vn 0 0.9659258262890683 -0.25881904510252074
vn 0 -0.9659258262890683 0.25881904510252074
vn 0 0 0
vn 0 0 0
usemtl m_47370d66-82f7-4b2b-19ff-d2064a375b7b
f 50/145/37 49/146/37 51/147/37 52/148/37
f 55/149/38 53/150/38 54/151/38 56/152/38
f 53/153/39 49/154/39 50/155/39 54/156/39
f 52/157/40 51/158/40 55/159/40 56/160/40
f 51/161/41 49/162/41 53/163/41 55/164/41
f 54/165/42 50/166/42 52/167/42 56/168/42
o mesh
v 0.15625 1.4919119048405463 -0.06143518207153338
v 0.15625 1.3786785726081934 -0.4840277310730008
v 0.15625 1.4919119048405463 -0.06143518207153338
v 0.15625 1.3786785726081934 -0.4840277310730008
v -0.15625 1.4919119048405463 -0.06143518207153338
v -0.15625 1.3786785726081934 -0.4840277310730008
v -0.15625 1.4919119048405463 -0.06143518207153338
v -0.15625 1.3786785726081934 -0.4840277310730008
vt 0 1
vt 0 0.9375
vt 0 0.9375
vt 0 1
vt 0 0.9375
vt 0 0.9375
vt 0 1
vt 0 1
vt 0.28125 0.8203125
vt 0.3203125 0.8203125
vt 0.3203125 0.875
vt 0.28125 0.875
vt 0.3203125 0.765625
vt 0.3203125 0.8203125
vt 0.28125 0.8203125
vt 0.28125 0.765625
vt 0.0390625 1
vt 0.0390625 1
vt 0 1
vt 0 1
vt 0 1
vt 0.0390625 1
vt 0.0390625 1
vt 0 1
vn 0 0 0
vn 0 0 0
vn 0 0.9659258262890683 -0.25881904510252074
vn 0 -0.9659258262890683 0.25881904510252074
vn 0 0 0
vn 0 0 0
usemtl m_47370d66-82f7-4b2b-19ff-d2064a375b7b
f 58/169/43 57/170/43 59/171/43 60/172/43
f 63/173/44 61/174/44 62/175/44 64/176/44
f 61/177/45 57/178/45 58/179/45 62/180/45
f 60/181/46 59/182/46 63/183/46 64/184/46
f 59/185/47 57/186/47 61/187/47 63/188/47
f 62/189/48 58/190/48 60/191/48 64/192/48
o mesh
v -0.15625 1.4919119048405463 0.061435182071533395
v -0.15624999999999994 1.3786785726081934 0.48402773107300073
v -0.15625 1.4919119048405463 0.061435182071533395
v -0.15624999999999994 1.3786785726081934 0.48402773107300073
v 0.15625 1.4919119048405463 0.06143518207153337
v 0.15625000000000006 1.3786785726081934 0.48402773107300073
v 0.15625 1.4919119048405463 0.06143518207153337
v 0.15625000000000006 1.3786785726081934 0.48402773107300073
vt 0 1
vt 0 0.9375
vt 0 0.9375
vt 0 1
vt 0 0.9375
vt 0 0.9375
vt 0 1
vt 0 1
vt 0.28125 0.765625
vt 0.3203125 0.765625
vt 0.3203125 0.8200694444444445
vt 0.28125 0.8200694444444445
vt 0.3203125 0.8205555555555555
vt 0.3203125 0.875
vt 0.28125 0.875
vt 0.28125 0.8205555555555555
vt 0.0390625 1
vt 0.0390625 1
vt 0 1
vt 0 1
vt 0 1
vt 0.0390625 1
vt 0.0390625 1
vt 0 1
vn 0 0 0
vn 0 0 0
vn 6.162975822039156e-33 0.9659258262890684 0.2588190451025208
vn -6.162975822039156e-33 -0.9659258262890684 -0.2588190451025208
vn 0 0 0
vn 0 0 0
usemtl m_47370d66-82f7-4b2b-19ff-d2064a375b7b
f 66/193/49 65/194/49 67/195/49 68/196/49
f 71/197/50 69/198/50 70/199/50 72/200/50
f 69/201/51 65/202/51 66/203/51 70/204/51
f 68/205/52 67/206/52 71/207/52 72/208/52
f 67/209/53 65/210/53 69/211/53 71/212/53
f 70/213/54 66/214/54 68/215/54 72/216/54
o mesh
v -0.15625 1.1169119048405463 0.061435182071533395
v -0.15624999999999994 1.0036785726081934 0.48402773107300073
v -0.15625 1.1169119048405463 0.061435182071533395
v -0.15624999999999994 1.0036785726081934 0.48402773107300073
v 0.15625 1.1169119048405463 0.06143518207153337
v 0.15625000000000006 1.0036785726081934 0.48402773107300073
v 0.15625 1.1169119048405463 0.06143518207153337
v 0.15625000000000006 1.0036785726081934 0.48402773107300073
vt 0 1
vt 0 0.9375
vt 0 0.9375
vt 0 1
vt 0 0.9375
vt 0 0.9375
vt 0 1
vt 0 1
vt 0.28125 0.8125
vt 0.3203125 0.8125
vt 0.3203125 0.8695652173913043
vt 0.28125 0.8695652173913043
vt 0.3203125 0.765625
vt 0.3203125 0.8203125
vt 0.28125 0.8203125
vt 0.28125 0.765625
vt 0.0390625 1
vt 0.0390625 1
vt 0 1
vt 0 1
vt 0 1
vt 0.0390625 1
vt 0.0390625 1
vt 0 1
vn 0 0 0
vn 0 0 0
vn 6.162975822039156e-33 0.9659258262890684 0.2588190451025208
vn -6.162975822039156e-33 -0.9659258262890684 -0.2588190451025208
vn 0 0 0
vn 0 0 0
usemtl m_47370d66-82f7-4b2b-19ff-d2064a375b7b
f 74/217/55 73/218/55 75/219/55 76/220/55
f 79/221/56 77/222/56 78/223/56 80/224/56
f 77/225/57 73/226/57 74/227/57 78/228/57
f 76/229/58 75/230/58 79/231/58 80/232/58
f 75/233/59 73/234/59 77/235/59 79/236/59
f 78/237/60 74/238/60 76/239/60 80/240/60
o mesh
v -0.15625 0.7419119048405463 0.0926851820715334
v -0.15624999999999994 0.6286785726081934 0.5152777310730008
v -0.15625 0.7419119048405463 0.0926851820715334
v -0.15624999999999994 0.6286785726081934 0.5152777310730008
v 0.15625 0.7419119048405463 0.09268518207153337
v 0.15625000000000006 0.6286785726081934 0.5152777310730008
v 0.15625 0.7419119048405463 0.09268518207153337
v 0.15625000000000006 0.6286785726081934 0.5152777310730008
vt 0 1
vt 0 0.9375
vt 0 0.9375
vt 0 1
vt 0 0.9375
vt 0 0.9375
vt 0 1
vt 0 1
vt 0.28125 0.765625
vt 0.3203125 0.765625
vt 0.3203125 0.8203125
vt 0.28125 0.8203125
vt 0.3203125 0.8203125
vt 0.3203125 0.875
vt 0.28125 0.875
vt 0.28125 0.8203125
vt 0.0390625 1
vt 0.0390625 1
vt 0 1
vt 0 1
vt 0 1
vt 0.0390625 1
vt 0.0390625 1
vt 0 1
vn 0 0 0
vn 0 0 0
vn 6.162975822039156e-33 0.9659258262890684 0.2588190451025208
vn -6.162975822039156e-33 -0.9659258262890684 -0.2588190451025208
vn 0 0 0
vn 0 0 0
usemtl m_47370d66-82f7-4b2b-19ff-d2064a375b7b
f 82/241/61 81/242/61 83/243/61 84/244/61
f 87/245/62 85/246/62 86/247/62 88/248/62
f 85/249/63 81/250/63 82/251/63 86/252/63
f 84/253/64 83/254/64 87/255/64 88/256/64
f 83/257/65 81/258/65 85/259/65 87/260/65
f 86/261/66 82/262/66 84/263/66 88/264/66
o mesh
v -0.06143518207153329 0.7419119048405463 -0.15625
v -0.48402773107300057 0.6286785726081932 -0.15625000000000022
v -0.06143518207153329 0.7419119048405463 -0.15625
v -0.48402773107300057 0.6286785726081932 -0.15625000000000022
v -0.061435182071533465 0.7419119048405463 0.15624999999999994
v -0.4840277310730008 0.6286785726081932 0.15624999999999972
v -0.061435182071533465 0.7419119048405463 0.15624999999999994
v -0.4840277310730008 0.6286785726081932 0.15624999999999972
vt 0 1
vt 0 0.9375
vt 0 0.9375
vt 0 1
vt 0 0.9375
vt 0 0.9375
vt 0 1
vt 0 1
vt 0.28125 0.765625
vt 0.3203125 0.765625
vt 0.3203125 0.8203125
vt 0.28125 0.8203125
vt 0.3203125 0.8203125
vt 0.3203125 0.875
vt 0.28125 0.875
vt 0.28125 0.8203125
vt 0.0390625 1
vt 0.0390625 1
vt 0 1
vt 0 1
vt 0 1
vt 0.0390625 1
vt 0.0390625 1
vt 0 1
vn 0 0 0
vn 0 0 0
vn -0.25881904510252135 0.9659258262890682 -9.005377692084792e-17
vn 0.25881904510252135 -0.9659258262890682 9.005377692084792e-17
vn 0 0 0
vn 0 0 0
usemtl m_47370d66-82f7-4b2b-19ff-d2064a375b7b
f 90/265/67 89/266/67 91/267/67 92/268/67
f 95/269/68 93/270/68 94/271/68 96/272/68
f 93/273/69 89/274/69 90/275/69 94/276/69
f 92/277/70 91/278/70 95/279/70 96/280/70
f 91/281/71 89/282/71 93/283/71 95/284/71
f 94/285/72 90/286/72 92/287/72 96/288/72
o mesh
v -0.06143518207153329 1.1169119048405463 -0.15625
v -0.48402773107300057 1.0036785726081932 -0.15625000000000022
v -0.06143518207153329 1.1169119048405463 -0.15625
v -0.48402773107300057 1.0036785726081932 -0.15625000000000022
v -0.061435182071533465 1.1169119048405463 0.15624999999999994
v -0.4840277310730008 1.0036785726081932 0.15624999999999972
v -0.061435182071533465 1.1169119048405463 0.15624999999999994
v -0.4840277310730008 1.0036785726081932 0.15624999999999972
vt 0 1
vt 0 0.9375
vt 0 0.9375
vt 0 1
vt 0 0.9375
vt 0 0.9375
vt 0 1
vt 0 1
vt 0.28125 0.8203125
vt 0.3203125 0.8203125
vt 0.3203125 0.875
vt 0.28125 0.875
vt 0.3203125 0.765625
vt 0.3203125 0.8203125
vt 0.28125 0.8203125
vt 0.28125 0.765625
vt 0.0390625 1
vt 0.0390625 1
vt 0 1
vt 0 1
vt 0 1
vt 0.0390625 1
vt 0.0390625 1
vt 0 1
vn 0 0 0
vn 0 0 0
vn -0.25881904510252135 0.9659258262890682 -9.005377692084792e-17
vn 0.25881904510252135 -0.9659258262890682 9.005377692084792e-17
vn 0 0 0
vn 0 0 0
usemtl m_47370d66-82f7-4b2b-19ff-d2064a375b7b
f 98/289/73 97/290/73 99/291/73 100/292/73
f 103/293/74 101/294/74 102/295/74 104/296/74
f 101/297/75 97/298/75 98/299/75 102/300/75
f 100/301/76 99/302/76 103/303/76 104/304/76
f 99/305/77 97/306/77 101/307/77 103/308/77
f 102/309/78 98/310/78 100/311/78 104/312/78
o mesh
v -0.06143518207153329 1.4919119048405463 -0.15625
v -0.48402773107300057 1.3786785726081932 -0.15625000000000022
v -0.06143518207153329 1.4919119048405463 -0.15625
v -0.48402773107300057 1.3786785726081932 -0.15625000000000022
v -0.061435182071533465 1.4919119048405463 0.15624999999999994
v -0.4840277310730008 1.3786785726081932 0.15624999999999972
v -0.061435182071533465 1.4919119048405463 0.15624999999999994
v -0.4840277310730008 1.3786785726081932 0.15624999999999972
vt 0 1
vt 0 0.9375
vt 0 0.9375
vt 0 1
vt 0 0.9375
vt 0 0.9375
vt 0 1
vt 0 1
vt 0.28125 0.8203125
vt 0.3203125 0.8203125
vt 0.3203125 0.875
vt 0.28125 0.875
vt 0.3203125 0.765625
vt 0.3203125 0.8203125
vt 0.28125 0.8203125
vt 0.28125 0.765625
vt 0.0390625 1
vt 0.0390625 1
vt 0 1
vt 0 1
vt 0 1
vt 0.0390625 1
vt 0.0390625 1
vt 0 1
vn 0 0 0
vn 0 0 0
vn -0.25881904510252135 0.9659258262890682 -9.005377692084792e-17
vn 0.25881904510252135 -0.9659258262890682 9.005377692084792e-17
vn 0 0 0
vn 0 0 0
usemtl m_47370d66-82f7-4b2b-19ff-d2064a375b7b
f 106/313/79 105/314/79 107/315/79 108/316/79
f 111/317/80 109/318/80 110/319/80 112/320/80
f 109/321/81 105/322/81 106/323/81 110/324/81
f 108/325/82 107/326/82 111/327/82 112/328/82
f 107/329/83 105/330/83 109/331/83 111/332/83
f 110/333/84 106/334/84 108/335/84 112/336/84
o mesh
v 0.0614351820715328 0.7419119048405463 0.15625000000000014
v 0.4840277310730002 0.6286785726081932 0.1562500000000018
v 0.0614351820715328 0.7419119048405463 0.15625000000000014
v 0.4840277310730002 0.6286785726081932 0.1562500000000018
v 0.06143518207153398 0.7419119048405461 -0.15624999999999992
v 0.4840277310730014 0.628678572608193 -0.15624999999999825
v 0.06143518207153398 0.7419119048405461 -0.15624999999999992
v 0.4840277310730014 0.628678572608193 -0.15624999999999825
vt 0 1
vt 0 0.9375
vt 0 0.9375
vt 0 1
vt 0 0.9375
vt 0 0.9375
vt 0 1
vt 0 1
vt 0.28125 0.8203125
vt 0.3203125 0.8203125
vt 0.3203125 0.875
vt 0.28125 0.875
vt 0.3203125 0.765625
vt 0.3203125 0.8203125
vt 0.28125 0.8203125
vt 0.28125 0.765625
vt 0.0390625 1
vt 0.0390625 1
vt 0 1
vt 0 1
vt 0 1
vt 0.0390625 1
vt 0.0390625 1
vt 0 1
vn 0 0 0
vn 0 0 0
vn 0.25881904510252135 0.9659258262890683 4.944024428948832e-16
vn -0.25881904510252135 -0.9659258262890683 -4.944024428948832e-16
vn 0 0 0
vn 0 0 0
usemtl m_47370d66-82f7-4b2b-19ff-d2064a375b7b
f 114/337/85 113/338/85 115/339/85 116/340/85
f 119/341/86 117/342/86 118/343/86 120/344/86
f 117/345/87 113/346/87 114/347/87 118/348/87
f 116/349/88 115/350/88 119/351/88 120/352/88
f 115/353/89 113/354/89 117/355/89 119/356/89
f 118/357/90 114/358/90 116/359/90 120/360/90
o mesh
v 0.0926851820715328 1.1169119048405463 0.15625000000000014
v 0.5152777310730001 1.0036785726081932 0.1562500000000018
v 0.0926851820715328 1.1169119048405463 0.15625000000000014
v 0.5152777310730001 1.0036785726081932 0.1562500000000018
v 0.09268518207153398 1.116911904840546 -0.15624999999999992
v 0.5152777310730015 1.003678572608193 -0.15624999999999825
v 0.09268518207153398 1.116911904840546 -0.15624999999999992
v 0.5152777310730015 1.003678572608193 -0.15624999999999825
vt 0 1
vt 0 0.9375
vt 0 0.9375
vt 0 1
vt 0 0.9375
vt 0 0.9375
vt 0 1
vt 0 1
vt 0.28125 0.8203125
vt 0.3203125 0.8203125
vt 0.3203125 0.875
vt 0.28125 0.875
vt 0.3203125 0.765625
vt 0.3203125 0.8203125
vt 0.28125 0.8203125
vt 0.28125 0.765625
vt 0.0390625 1
vt 0.0390625 1
vt 0 1
vt 0 1
vt 0 1
vt 0.0390625 1
vt 0.0390625 1
vt 0 1
vn 0 0 0
vn 0 0 0
vn 0.25881904510252135 0.9659258262890683 4.944024428948832e-16
vn -0.25881904510252135 -0.9659258262890683 -4.944024428948832e-16
vn 0 0 0
vn 0 0 0
usemtl m_47370d66-82f7-4b2b-19ff-d2064a375b7b
f 122/361/91 121/362/91 123/363/91 124/364/91
f 127/365/92 125/366/92 126/367/92 128/368/92
f 125/369/93 121/370/93 122/371/93 126/372/93
f 124/373/94 123/374/94 127/375/94 128/376/94
f 123/377/95 121/378/95 125/379/95 127/380/95
f 126/381/96 122/382/96 124/383/96 128/384/96
o mesh
v 0.0926851820715328 1.4919119048405463 0.15625000000000014
v 0.5152777310730001 1.3786785726081932 0.1562500000000018
v 0.0926851820715328 1.4919119048405463 0.15625000000000014
v 0.5152777310730001 1.3786785726081932 0.1562500000000018
v 0.09268518207153398 1.491911904840546 -0.15624999999999992
v 0.5152777310730015 1.378678572608193 -0.15624999999999825
v 0.09268518207153398 1.491911904840546 -0.15624999999999992
v 0.5152777310730015 1.378678572608193 -0.15624999999999825
vt 0 1
vt 0 0.9375
vt 0 0.9375
vt 0 1
vt 0 0.9375
vt 0 0.9375
vt 0 1
vt 0 1
vt 0.28125 0.8203125
vt 0.3203125 0.8203125
vt 0.3203125 0.875
vt 0.28125 0.875
vt 0.3203125 0.765625
vt 0.3203125 0.8203125
vt 0.28125 0.8203125
vt 0.28125 0.765625
vt 0.0390625 1
vt 0.0390625 1
vt 0 1
vt 0 1
vt 0 1
vt 0.0390625 1
vt 0.0390625 1
vt 0 1
vn 0 0 0
vn 0 0 0
vn 0.25881904510252135 0.9659258262890683 4.944024428948832e-16
vn -0.25881904510252135 -0.9659258262890683 -4.944024428948832e-16
vn 0 0 0
vn 0 0 0
usemtl m_47370d66-82f7-4b2b-19ff-d2064a375b7b
f 130/385/97 129/386/97 131/387/97 132/388/97
f 135/389/98 133/390/98 134/391/98 136/392/98
f 133/393/99 129/394/99 130/395/99 134/396/99
f 132/397/100 131/398/100 135/399/100 136/400/100
f 131/401/101 129/402/101 133/403/101 135/404/101
f 134/405/102 130/406/102 132/407/102 136/408/102